<svg fill="#26e07f" xmlns="http://www.w3.org/2000/svg"  viewBox="0 0 64 64" width="64px" height="64px"><path d="M 32 2 C 28 2 24.599609 4.5996094 24.599609 4.5996094 L 24 7 L 24.904297 10.617188 C 18.827675 11.739485 16 14 16 14 C 5 38 7.3007812 57 7.3007812 57 L 10.189453 57 C 10.639453 53.29 11.989766 44.35 15.259766 37 C 15.259766 37 20.5 33 32 33 C 43.5 33 48.740234 37 48.740234 37 C 52.010234 44.35 53.360547 53.29 53.810547 57 L 56.699219 57 C 56.699219 57 59 38 48 14 C 48 14 45.172325 11.739485 39.095703 10.617188 L 40 7 L 39.400391 4.5996094 C 39.400391 4.5996094 36 2 32 2 z M 32 5.9550781 C 35 5.9550781 37 7 37 7 L 36.458984 10.242188 C 35.095472 10.094084 33.620861 10 32 10 C 30.379139 10 28.904528 10.094084 27.541016 10.242188 L 27 7 C 27 7 29 5.9550781 32 5.9550781 z M 32 19 C 36 19 39 20 39 20 L 40 26 L 32 26 L 24 26 L 25 20 C 25 20 28 19 32 19 z M 32 36 C 21 36 17 39 17 39 C 13 48 12 59 12 59 L 52 59 C 52 59 51 48 47 39 C 47 39 43 36 32 36 z M 32 43 C 40.28 43 43.750469 43.62 45.730469 44 C 46.070469 45 46.380391 46.01 46.650391 47 C 46.650391 47 38 46 32 46 C 29.551 46 26.666516 46.166281 24.103516 46.363281 C 24.458516 47.308281 25 48.924 25 50 C 25 51.105 24.105 52 23 52 C 21.895 52 21 51.105 21 50 C 21 48.994 21.473172 47.512734 21.826172 46.552734 C 19.225172 46.783734 17.349609 47 17.349609 47 C 17.619609 46.01 17.929531 45 18.269531 44 C 20.249531 43.62 23.72 43 32 43 z"/></svg>