<svg xmlns="http://www.w3.org/2000/svg"  viewBox="0 0 48 48" width="144px" height="144px"><polygon fill="#3dd9eb" points="42,43 6,43 6,15.056 24,1.453 42,15.025"/><polygon fill="#3dd9eb" points="3.675,24.333 0.042,19.559 24,1.453 47.958,19.518 44.378,24.333 24.021,8.926"/><polygon fill="#00b3d7" points="6,22.573 24.021,8.926 42,22.533 42,15.025 24,1.453 6,15.056"/><polygon fill="#6c19ff" points="15,26 15,35.155 24,38.172 33,35.155 33,26"/><polygon fill="#f5bc00" points="39.042,38 38,36.34 38,24.664 36,25 36,36.34 34.958,38"/><polygon fill="#6c19ff" points="38,24.664 24,20 10,24.664 24,28.812"/><polygon fill="#2100c4" points="15,26.145 24,28.812 33,26.145"/></svg>