<svg xmlns="http://www.w3.org/2000/svg" xmlns:xlink="http://www.w3.org/1999/xlink" viewBox="0 0 500 500"><defs><clipPath id="freepik--clip-path--inject-43"><rect x="242.12" y="164.26" width="58.01" height="63.98" rx="5.65" style="fill:#263238;stroke:#263238;stroke-miterlimit:10"></rect></clipPath><clipPath id="freepik--clip-path-2--inject-43"><path d="M286.81,151.58v9.82h-7.09v-9.82a14.77,14.77,0,0,0-14.3-14.75H265a14.78,14.78,0,0,0-14.76,14.76v9.82h-7.09v-9.82a21.85,21.85,0,0,1,43.7,0Z" style="fill:#757575;stroke:#263238;stroke-linecap:round;stroke-linejoin:round"></path></clipPath><clipPath id="freepik--clip-path-3--inject-43"><path d="M390.71,451.91,388,453.56h-7.48l-2.64-.66-4,.66H361.7c-1.65,0-7.42-1.65-7.42-1.65s.27-1,.63-2.23a28.18,28.18,0,0,1,1-3c.66-1.49,7.09-2.81,9.68-3.79a3.49,3.49,0,0,0,1.59-1.63,22.26,22.26,0,0,0,1.92-6.62s14.83-4.45,18,1a29.66,29.66,0,0,1,2.85,9.28c.29,1.77.48,3.41.6,4.66C390.67,451,390.71,451.91,390.71,451.91Z" style="fill:#F4E285;stroke:#263238;stroke-linecap:round;stroke-linejoin:round"></path></clipPath><clipPath id="freepik--clip-path-4--inject-43"><path d="M397.65,284.74v18.35l-5.06,19.39-1.86,39.28-2.21,7.65,2.87,25.92-.57,35.89,1.85,4.36-1.79,5.62-23.6-2.47,2-6.25-2.62-5.1.68-9.47-2.16-49.59-2-38.95s-4.88-21.07-8.4-42.76Z" style="fill:#757575;stroke:#263238;stroke-linecap:round;stroke-linejoin:round"></path></clipPath><clipPath id="freepik--clip-path-5--inject-43"><path d="M390.37,194.54s16.84,11.67,17.5,15.85,10.88,45.48,9.56,48.73-15.05,14.24-15.05,14.24L404,285.59l-2.3,2.27.31,3.63-47.52,4.34L351.81,290,350,289s1.13-23.26,2.77-28.22.66-24.6.66-24.6S331.38,243,326.77,241,302,217.76,301.71,217.15a11.94,11.94,0,0,1-.66-2.21l-2-2.32a13.35,13.35,0,0,0,2.8-5.43c1-3.55,2.15-4.82,2.15-4.82l3.62,2.87s.42-.52,3.38-.12,20,13.07,21,14.39S352.76,198.26,390.37,194.54Z" style="fill:#F4E285;stroke:#263238;stroke-linecap:round;stroke-linejoin:round"></path></clipPath><clipPath id="freepik--clip-path-6--inject-43"><path d="M364,180a34.31,34.31,0,0,0,.75,14.54c2.11,8.48,6.4,12.19,6.4,12.19s6.37-2.17,7.36-5.79,0-20,0-20Z" style="fill:#F4E285;stroke:#263238;stroke-linecap:round;stroke-linejoin:round"></path></clipPath></defs><g id="freepik--background-simple--inject-43"><path d="M85.34,453.56s-89.4-122.39-34-216.46S216.75,207.59,237.7,119.8s97.42-102.18,169.94,7.6,55.17,262.45,16.77,326.16Z" style="fill:#F4E285"></path><path d="M85,453.56s-89.41-122.39-34-216.46S216.36,207.59,237.3,119.8s97.42-102.18,169.94,7.6S462.42,389.85,424,453.56Z" style="fill:#fff;opacity:0.7000000000000001"></path></g><g id="freepik--Files--inject-43"><polyline points="337.23 120.84 334.73 120.84 334.73 118.34" style="fill:none;stroke:#263238;stroke-linecap:round;stroke-linejoin:round"></polyline><line x1="334.73" y1="115.46" x2="334.73" y2="101.53" style="fill:none;stroke:#263238;stroke-linecap:round;stroke-linejoin:round;stroke-dasharray:4.803430080413818,2.8820600509643555"></line><polyline points="334.73 100.09 334.73 97.59 337.23 97.59" style="fill:none;stroke:#263238;stroke-linecap:round;stroke-linejoin:round"></polyline><line x1="339.98" y1="97.59" x2="360.57" y2="97.59" style="fill:none;stroke:#263238;stroke-linecap:round;stroke-linejoin:round;stroke-dasharray:4.576330184936523,2.745800018310547"></line><polyline points="361.94 97.59 364.44 97.59 364.44 100.44" style="fill:none;stroke:#263238;stroke-linecap:round;stroke-linejoin:round"></polyline><polyline points="366.94 121.19 366.94 123.69 364.44 123.69" style="fill:none;stroke:#263238;stroke-linecap:round;stroke-linejoin:round"></polyline><line x1="361.69" y1="123.68" x2="341.1" y2="123.68" style="fill:none;stroke:#263238;stroke-linecap:round;stroke-linejoin:round;stroke-dasharray:4.575620174407959,2.7453699111938477"></line><polyline points="339.73 123.69 337.23 123.69 337.23 121.19" style="fill:none;stroke:#263238;stroke-linecap:round;stroke-linejoin:round"></polyline><line x1="337.23" y1="118.3" x2="337.23" y2="104.38" style="fill:none;stroke:#263238;stroke-linecap:round;stroke-linejoin:round;stroke-dasharray:4.802670001983643,2.8815999031066895"></line><polyline points="337.23 102.94 337.23 100.44 339.73 100.44" style="fill:none;stroke:#263238;stroke-linecap:round;stroke-linejoin:round"></polyline><line x1="342.48" y1="100.43" x2="363.07" y2="100.43" style="fill:none;stroke:#263238;stroke-linecap:round;stroke-linejoin:round;stroke-dasharray:4.575620174407959,2.7453699111938477"></line><polyline points="364.44 100.44 366.94 100.44 366.94 102.94" style="fill:none;stroke:#263238;stroke-linecap:round;stroke-linejoin:round"></polyline><line x1="366.94" y1="105.82" x2="366.94" y2="119.74" style="fill:none;stroke:#263238;stroke-linecap:round;stroke-linejoin:round;stroke-dasharray:4.802670001983643,2.8815999031066895"></line><polyline points="78.3 412.51 75.8 412.51 75.8 410.01" style="fill:none;stroke:#263238;stroke-linecap:round;stroke-linejoin:round"></polyline><line x1="75.8" y1="407.13" x2="75.8" y2="393.2" style="fill:none;stroke:#263238;stroke-linecap:round;stroke-linejoin:round;stroke-dasharray:4.803430080413818,2.8820600509643555"></line><polyline points="75.8 391.75 75.8 389.25 78.3 389.25" style="fill:none;stroke:#263238;stroke-linecap:round;stroke-linejoin:round"></polyline><line x1="81.05" y1="389.26" x2="101.64" y2="389.26" style="fill:none;stroke:#263238;stroke-linecap:round;stroke-linejoin:round;stroke-dasharray:4.576330184936523,2.745800018310547"></line><polyline points="103.01 389.25 105.51 389.25 105.51 392.1" style="fill:none;stroke:#263238;stroke-linecap:round;stroke-linejoin:round"></polyline><polyline points="108.01 412.85 108.01 415.35 105.51 415.35" style="fill:none;stroke:#263238;stroke-linecap:round;stroke-linejoin:round"></polyline><line x1="102.76" y1="415.35" x2="82.17" y2="415.35" style="fill:none;stroke:#263238;stroke-linecap:round;stroke-linejoin:round;stroke-dasharray:4.575620174407959,2.7453699111938477"></line><polyline points="80.8 415.35 78.3 415.35 78.3 412.85" style="fill:none;stroke:#263238;stroke-linecap:round;stroke-linejoin:round"></polyline><line x1="78.3" y1="409.97" x2="78.3" y2="396.04" style="fill:none;stroke:#263238;stroke-linecap:round;stroke-linejoin:round;stroke-dasharray:4.802670001983643,2.8815999031066895"></line><polyline points="78.3 394.6 78.3 392.1 80.8 392.1" style="fill:none;stroke:#263238;stroke-linecap:round;stroke-linejoin:round"></polyline><line x1="83.54" y1="392.1" x2="104.13" y2="392.1" style="fill:none;stroke:#263238;stroke-linecap:round;stroke-linejoin:round;stroke-dasharray:4.575620174407959,2.7453699111938477"></line><polyline points="105.51 392.1 108.01 392.1 108.01 394.6" style="fill:none;stroke:#263238;stroke-linecap:round;stroke-linejoin:round"></polyline><line x1="108.01" y1="397.48" x2="108.01" y2="411.41" style="fill:none;stroke:#263238;stroke-linecap:round;stroke-linejoin:round;stroke-dasharray:4.802670001983643,2.8815999031066895"></line><polyline points="403.51 403.27 401.01 403.27 401.01 400.77" style="fill:none;stroke:#263238;stroke-linecap:round;stroke-linejoin:round"></polyline><line x1="401.01" y1="397.89" x2="401.01" y2="383.96" style="fill:none;stroke:#263238;stroke-linecap:round;stroke-linejoin:round;stroke-dasharray:4.803430080413818,2.8820600509643555"></line><polyline points="401.01 382.52 401.01 380.02 403.51 380.02" style="fill:none;stroke:#263238;stroke-linecap:round;stroke-linejoin:round"></polyline><line x1="406.26" y1="380.02" x2="426.85" y2="380.02" style="fill:none;stroke:#263238;stroke-linecap:round;stroke-linejoin:round;stroke-dasharray:4.576330184936523,2.745800018310547"></line><polyline points="428.22 380.02 430.72 380.02 430.72 382.86" style="fill:none;stroke:#263238;stroke-linecap:round;stroke-linejoin:round"></polyline><polyline points="433.22 403.61 433.22 406.11 430.72 406.11" style="fill:none;stroke:#263238;stroke-linecap:round;stroke-linejoin:round"></polyline><line x1="427.97" y1="406.11" x2="407.38" y2="406.11" style="fill:none;stroke:#263238;stroke-linecap:round;stroke-linejoin:round;stroke-dasharray:4.575620174407959,2.7453699111938477"></line><polyline points="406.01 406.11 403.51 406.11 403.51 403.61" style="fill:none;stroke:#263238;stroke-linecap:round;stroke-linejoin:round"></polyline><line x1="403.51" y1="400.73" x2="403.51" y2="386.8" style="fill:none;stroke:#263238;stroke-linecap:round;stroke-linejoin:round;stroke-dasharray:4.802670001983643,2.8815999031066895"></line><polyline points="403.51 385.36 403.51 382.86 406.01 382.86" style="fill:none;stroke:#263238;stroke-linecap:round;stroke-linejoin:round"></polyline><line x1="408.75" y1="382.86" x2="429.34" y2="382.86" style="fill:none;stroke:#263238;stroke-linecap:round;stroke-linejoin:round;stroke-dasharray:4.575620174407959,2.7453699111938477"></line><polyline points="430.72 382.86 433.22 382.86 433.22 385.36" style="fill:none;stroke:#263238;stroke-linecap:round;stroke-linejoin:round"></polyline><line x1="433.22" y1="388.24" x2="433.22" y2="402.17" style="fill:none;stroke:#263238;stroke-linecap:round;stroke-linejoin:round;stroke-dasharray:4.802670001983643,2.8815999031066895"></line><polyline points="94.88 114.17 92.38 114.17 92.38 111.67" style="fill:none;stroke:#263238;stroke-linecap:round;stroke-linejoin:round"></polyline><line x1="92.38" y1="108.79" x2="92.38" y2="94.86" style="fill:none;stroke:#263238;stroke-linecap:round;stroke-linejoin:round;stroke-dasharray:4.803430080413818,2.8820600509643555"></line><polyline points="92.38 93.42 92.38 90.92 94.88 90.92" style="fill:none;stroke:#263238;stroke-linecap:round;stroke-linejoin:round"></polyline><line x1="97.63" y1="90.92" x2="118.22" y2="90.92" style="fill:none;stroke:#263238;stroke-linecap:round;stroke-linejoin:round;stroke-dasharray:4.576330184936523,2.745800018310547"></line><polyline points="119.59 90.92 122.09 90.92 122.09 93.77" style="fill:none;stroke:#263238;stroke-linecap:round;stroke-linejoin:round"></polyline><polyline points="124.59 114.52 124.59 117.02 122.09 117.02" style="fill:none;stroke:#263238;stroke-linecap:round;stroke-linejoin:round"></polyline><line x1="119.34" y1="117.01" x2="98.75" y2="117.01" style="fill:none;stroke:#263238;stroke-linecap:round;stroke-linejoin:round;stroke-dasharray:4.575620174407959,2.7453699111938477"></line><polyline points="97.38 117.02 94.88 117.02 94.88 114.52" style="fill:none;stroke:#263238;stroke-linecap:round;stroke-linejoin:round"></polyline><line x1="94.88" y1="111.63" x2="94.88" y2="97.71" style="fill:none;stroke:#263238;stroke-linecap:round;stroke-linejoin:round;stroke-dasharray:4.802670001983643,2.8815999031066895"></line><polyline points="94.88 96.27 94.88 93.77 97.38 93.77" style="fill:none;stroke:#263238;stroke-linecap:round;stroke-linejoin:round"></polyline><line x1="100.13" y1="93.76" x2="120.72" y2="93.76" style="fill:none;stroke:#263238;stroke-linecap:round;stroke-linejoin:round;stroke-dasharray:4.575620174407959,2.7453699111938477"></line><polyline points="122.09 93.77 124.59 93.77 124.59 96.27" style="fill:none;stroke:#263238;stroke-linecap:round;stroke-linejoin:round"></polyline><line x1="124.59" y1="99.15" x2="124.59" y2="113.07" style="fill:none;stroke:#263238;stroke-linecap:round;stroke-linejoin:round;stroke-dasharray:4.802670001983643,2.8815999031066895"></line><polyline points="251.04 89.99 247.22 89.99 247.22 87.49" style="fill:none;stroke:#263238;stroke-linecap:round;stroke-linejoin:round"></polyline><line x1="247.22" y1="84.35" x2="247.22" y2="60.83" style="fill:none;stroke:#263238;stroke-linecap:round;stroke-linejoin:round;stroke-dasharray:5.227089881896973,3.1362500190734863"></line><polyline points="247.22 59.26 247.22 56.76 249.72 56.76" style="fill:none;stroke:#263238;stroke-linecap:round;stroke-linejoin:round"></polyline><line x1="252.9" y1="56.76" x2="268.25" y2="56.76" style="fill:none;stroke:#263238;stroke-linecap:round;stroke-linejoin:round;stroke-dasharray:5.293310165405273,3.175990104675293"></line><polyline points="269.84 56.76 272.34 56.76 272.34 59.81" style="fill:none;stroke:#263238;stroke-linecap:round;stroke-linejoin:round"></polyline><polyline points="273.65 59.81 276.15 59.81 276.15 62.31" style="fill:none;stroke:#263238;stroke-linecap:round;stroke-linejoin:round"></polyline><polyline points="276.15 64.94 276.15 86.94 272.76 90.33" style="fill:none;stroke:#263238;stroke-linecap:round;stroke-linejoin:round;stroke-dasharray:4.392690181732178,2.6356101036071777"></polyline><polyline points="271.83 91.27 270.06 93.03 267.56 93.03" style="fill:none;stroke:#263238;stroke-linecap:round;stroke-linejoin:round"></polyline><line x1="263.74" y1="93.03" x2="255.45" y2="93.03" style="fill:none;stroke:#263238;stroke-linecap:round;stroke-linejoin:round;stroke-dasharray:6.374780178070068,3.8248701095581055"></line><polyline points="253.54 93.03 251.04 93.03 251.04 90.53" style="fill:none;stroke:#263238;stroke-linecap:round;stroke-linejoin:round"></polyline><line x1="251.04" y1="87.4" x2="251.04" y2="63.88" style="fill:none;stroke:#263238;stroke-linecap:round;stroke-linejoin:round;stroke-dasharray:5.227089881896973,3.1362500190734863"></line><polyline points="251.04 62.31 251.04 59.81 253.54 59.81" style="fill:none;stroke:#263238;stroke-linecap:round;stroke-linejoin:round"></polyline><line x1="256.71" y1="59.81" x2="272.07" y2="59.81" style="fill:none;stroke:#263238;stroke-linecap:round;stroke-linejoin:round;stroke-dasharray:5.293310165405273,3.175990104675293"></line><polyline points="273.65 86.94 276.15 86.94 274.39 88.71" style="fill:none;stroke:#263238;stroke-linecap:round;stroke-linejoin:round"></polyline><polyline points="271.83 91.27 270.06 93.03 270.06 90.53" style="fill:none;stroke:#263238;stroke-linecap:round;stroke-linejoin:round"></polyline><polyline points="270.06 89.44 270.06 86.94 272.56 86.94" style="fill:none;stroke:#263238;stroke-linecap:round;stroke-linejoin:round"></polyline><polyline points="58.59 269.02 54.78 269.02 54.78 266.52" style="fill:none;stroke:#263238;stroke-linecap:round;stroke-linejoin:round"></polyline><line x1="54.78" y1="263.38" x2="54.78" y2="239.86" style="fill:none;stroke:#263238;stroke-linecap:round;stroke-linejoin:round;stroke-dasharray:5.227089881896973,3.1362500190734863"></line><polyline points="54.78 238.29 54.78 235.79 57.28 235.79" style="fill:none;stroke:#263238;stroke-linecap:round;stroke-linejoin:round"></polyline><line x1="60.46" y1="235.79" x2="75.81" y2="235.79" style="fill:none;stroke:#263238;stroke-linecap:round;stroke-linejoin:round;stroke-dasharray:5.293310165405273,3.175990104675293"></line><polyline points="77.39 235.79 79.89 235.79 79.89 238.84" style="fill:none;stroke:#263238;stroke-linecap:round;stroke-linejoin:round"></polyline><polyline points="81.21 238.84 83.71 238.84 83.71 241.34" style="fill:none;stroke:#263238;stroke-linecap:round;stroke-linejoin:round"></polyline><polyline points="83.71 243.97 83.71 265.97 80.32 269.36" style="fill:none;stroke:#263238;stroke-linecap:round;stroke-linejoin:round;stroke-dasharray:4.392690181732178,2.6356101036071777"></polyline><polyline points="79.39 270.29 77.62 272.06 75.12 272.06" style="fill:none;stroke:#263238;stroke-linecap:round;stroke-linejoin:round"></polyline><line x1="71.29" y1="272.06" x2="63.01" y2="272.06" style="fill:none;stroke:#263238;stroke-linecap:round;stroke-linejoin:round;stroke-dasharray:6.374780178070068,3.8248701095581055"></line><polyline points="61.09 272.06 58.59 272.06 58.59 269.56" style="fill:none;stroke:#263238;stroke-linecap:round;stroke-linejoin:round"></polyline><line x1="58.59" y1="266.43" x2="58.59" y2="242.9" style="fill:none;stroke:#263238;stroke-linecap:round;stroke-linejoin:round;stroke-dasharray:5.227089881896973,3.1362500190734863"></line><polyline points="58.59 241.34 58.59 238.84 61.09 238.84" style="fill:none;stroke:#263238;stroke-linecap:round;stroke-linejoin:round"></polyline><line x1="64.27" y1="238.84" x2="79.62" y2="238.84" style="fill:none;stroke:#263238;stroke-linecap:round;stroke-linejoin:round;stroke-dasharray:5.293310165405273,3.175990104675293"></line><polyline points="81.21 265.97 83.71 265.97 81.94 267.74" style="fill:none;stroke:#263238;stroke-linecap:round;stroke-linejoin:round"></polyline><polyline points="79.39 270.29 77.62 272.06 77.62 269.56" style="fill:none;stroke:#263238;stroke-linecap:round;stroke-linejoin:round"></polyline><polyline points="77.62 268.47 77.62 265.97 80.12 265.97" style="fill:none;stroke:#263238;stroke-linecap:round;stroke-linejoin:round"></polyline><polyline points="304.55 347.27 300.73 347.27 300.73 344.77" style="fill:none;stroke:#263238;stroke-linecap:round;stroke-linejoin:round"></polyline><line x1="300.73" y1="341.64" x2="300.73" y2="318.12" style="fill:none;stroke:#263238;stroke-linecap:round;stroke-linejoin:round;stroke-dasharray:5.227089881896973,3.1362500190734863"></line><polyline points="300.73 316.55 300.73 314.05 303.23 314.05" style="fill:none;stroke:#263238;stroke-linecap:round;stroke-linejoin:round"></polyline><line x1="306.41" y1="314.05" x2="321.76" y2="314.05" style="fill:none;stroke:#263238;stroke-linecap:round;stroke-linejoin:round;stroke-dasharray:5.293310165405273,3.175990104675293"></line><polyline points="323.35 314.05 325.85 314.05 325.85 317.09" style="fill:none;stroke:#263238;stroke-linecap:round;stroke-linejoin:round"></polyline><polyline points="327.16 317.09 329.66 317.09 329.66 319.59" style="fill:none;stroke:#263238;stroke-linecap:round;stroke-linejoin:round"></polyline><polyline points="329.66 322.23 329.66 344.23 326.27 347.62" style="fill:none;stroke:#263238;stroke-linecap:round;stroke-linejoin:round;stroke-dasharray:4.392690181732178,2.6356101036071777"></polyline><polyline points="325.34 348.55 323.57 350.32 321.07 350.32" style="fill:none;stroke:#263238;stroke-linecap:round;stroke-linejoin:round"></polyline><line x1="317.25" y1="350.32" x2="308.96" y2="350.32" style="fill:none;stroke:#263238;stroke-linecap:round;stroke-linejoin:round;stroke-dasharray:6.374780178070068,3.8248701095581055"></line><polyline points="307.05 350.32 304.55 350.32 304.55 347.82" style="fill:none;stroke:#263238;stroke-linecap:round;stroke-linejoin:round"></polyline><line x1="304.55" y1="344.68" x2="304.55" y2="321.16" style="fill:none;stroke:#263238;stroke-linecap:round;stroke-linejoin:round;stroke-dasharray:5.227089881896973,3.1362500190734863"></line><polyline points="304.55 319.59 304.55 317.09 307.05 317.09" style="fill:none;stroke:#263238;stroke-linecap:round;stroke-linejoin:round"></polyline><line x1="310.22" y1="317.09" x2="325.57" y2="317.09" style="fill:none;stroke:#263238;stroke-linecap:round;stroke-linejoin:round;stroke-dasharray:5.293310165405273,3.175990104675293"></line><polyline points="327.16 344.23 329.66 344.23 327.89 346" style="fill:none;stroke:#263238;stroke-linecap:round;stroke-linejoin:round"></polyline><polyline points="325.34 348.55 323.57 350.32 323.57 347.82" style="fill:none;stroke:#263238;stroke-linecap:round;stroke-linejoin:round"></polyline><polyline points="323.57 346.73 323.57 344.23 326.07 344.23" style="fill:none;stroke:#263238;stroke-linecap:round;stroke-linejoin:round"></polyline></g><g id="freepik--filing-cabinet--inject-43"><rect x="108.49" y="114.28" width="199.43" height="339.23" style="fill:#bfbfbf"></rect><rect x="242.45" y="119.85" width="59.95" height="61.24" style="fill-opacity:0.7000000000000001;opacity:0.30000000000000004"></rect><path d="M291.89,133.22h-.51v-1.09a1.38,1.38,0,0,0-1.29-1.45H265.27a1.36,1.36,0,0,1-1.28-1.27l-.16-1.41a1.35,1.35,0,0,0-1.28-1.27h-6.46a1.35,1.35,0,0,0-1.28,1.27l-.15,1.41a1.36,1.36,0,0,1-1.28,1.27h-1.19a1.38,1.38,0,0,0-1.29,1.45v37.46a1.38,1.38,0,0,0,1.29,1.45h37.9a1,1,0,0,0,.42-.09h1.38a1.63,1.63,0,0,0,1.63-1.62V134.85A1.63,1.63,0,0,0,291.89,133.22Z" style="fill:#F4E285"></path><path d="M253,169.33V134.85a1.63,1.63,0,0,1,1.63-1.63h36.73v-1.09a1.38,1.38,0,0,0-1.29-1.45H265.27a1.36,1.36,0,0,1-1.28-1.27l-.16-1.41a1.35,1.35,0,0,0-1.28-1.27h-6.46a1.35,1.35,0,0,0-1.28,1.27l-.15,1.41a1.36,1.36,0,0,1-1.28,1.27h-1.19a1.38,1.38,0,0,0-1.29,1.45v37.46a1.38,1.38,0,0,0,1.29,1.45h37.9a1,1,0,0,0,.42-.09H254.65A1.63,1.63,0,0,1,253,169.33Z" style="fill:#fff;opacity:0.5"></path><path d="M291.89,133.22H254.65a1.63,1.63,0,0,0-1.63,1.63v34.48a1.63,1.63,0,0,0,1.63,1.62h37.24a1.63,1.63,0,0,0,1.63-1.62V134.85A1.63,1.63,0,0,0,291.89,133.22Z" style="fill:#fff;opacity:0.7000000000000001"></path><path d="M272.78,161.22c-5.22,0-9.66-7.39-10.65-9.16a27.17,27.17,0,0,1,5.34-6.81l-.59-.91a28.22,28.22,0,0,0-5.57,7.34.89.89,0,0,0,0,.75c.21.41,5.19,10,11.47,10a8.21,8.21,0,0,0,4.69-1.7l-.6-.93A7.42,7.42,0,0,1,272.78,161.22Z" style="fill:#F4E285"></path><path d="M284.26,151.68c-.21-.41-5.19-10-11.48-10a8.19,8.19,0,0,0-4.68,1.69l.6.93a7.42,7.42,0,0,1,4.08-1.41c5.22,0,9.67,7.4,10.66,9.17a27,27,0,0,1-5.34,6.8l.59.91a28.22,28.22,0,0,0,5.57-7.34A.89.89,0,0,0,284.26,151.68Z" style="fill:#F4E285"></path><path d="M272.78,157.27a2.64,2.64,0,0,0,1.88-.88l-.57-.89a2,2,0,0,1-1.31.56c-1.42,0-2.58-1.8-2.58-4a5.59,5.59,0,0,1,.36-2l-.57-.88a7.35,7.35,0,0,0-.57,2.9C269.42,154.93,270.93,157.27,272.78,157.27Z" style="fill:#F4E285"></path><path d="M272.78,146.85a2.6,2.6,0,0,0-1.87.88l.57.88a1.94,1.94,0,0,1,1.3-.55c1.43,0,2.59,1.79,2.59,4a5.8,5.8,0,0,1-.36,2l.57.89a7.35,7.35,0,0,0,.57-2.9C276.15,149.18,274.64,146.85,272.78,146.85Z" style="fill:#F4E285"></path><path d="M265.27,139.82a.32.32,0,0,0-.27.18.83.83,0,0,0,0,.86l15,23.26a.32.32,0,0,0,.27.18.35.35,0,0,0,.28-.18.88.88,0,0,0,0-.86l-15-23.26A.32.32,0,0,0,265.27,139.82Z" style="fill:#F4E285"></path><path d="M291.38,133.22v-1.09a1.38,1.38,0,0,0-1.29-1.45H265.27a1.36,1.36,0,0,1-1.28-1.27l-.16-1.41a1.35,1.35,0,0,0-1.28-1.27h-6.46a1.35,1.35,0,0,0-1.28,1.27l-.15,1.41a1.36,1.36,0,0,1-1.28,1.27h-1.19a1.38,1.38,0,0,0-1.29,1.45v37.46a1.38,1.38,0,0,0,1.29,1.45" style="fill:none;stroke:#263238;stroke-linecap:round;stroke-linejoin:round;stroke-dasharray:5,3"></path><path d="M291.89,133.22H254.65a1.63,1.63,0,0,0-1.63,1.63v34.48a1.63,1.63,0,0,0,1.63,1.62h37.24a1.63,1.63,0,0,0,1.63-1.62V134.85A1.63,1.63,0,0,0,291.89,133.22Z" style="fill:none;stroke:#263238;stroke-linecap:round;stroke-linejoin:round;stroke-dasharray:5,3"></path><rect x="177.85" y="119.85" width="59.95" height="61.24" style="fill-opacity:0.7000000000000001;opacity:0.30000000000000004"></rect><path d="M185.35,126.73h-6.46a1.35,1.35,0,0,0-1.28,1.27l-.15,1.41a1.36,1.36,0,0,1-1.28,1.27H175a1.38,1.38,0,0,0-1.29,1.45v37.46A1.38,1.38,0,0,0,175,171" style="fill:none;stroke:#263238;stroke-linecap:round;stroke-linejoin:round;stroke-dasharray:5,3"></path><path d="M171.28,127h-6.46a1.36,1.36,0,0,0-1.28,1.28l-.15,1.4a1.36,1.36,0,0,1-1.28,1.28h-1.19a1.38,1.38,0,0,0-1.29,1.45v37.45a1.39,1.39,0,0,0,1.29,1.46" style="fill:none;stroke:#263238;stroke-linecap:round;stroke-linejoin:round;stroke-dasharray:5,3"></path><path d="M157.22,127.28h-6.46a1.36,1.36,0,0,0-1.28,1.27l-.16,1.41a1.34,1.34,0,0,1-1.28,1.27h-1.18a1.38,1.38,0,0,0-1.29,1.46v37.45a1.38,1.38,0,0,0,1.29,1.45" style="fill:none;stroke:#263238;stroke-linecap:round;stroke-linejoin:round;stroke-dasharray:5,3"></path><path d="M143.15,127.56h-6.46a1.35,1.35,0,0,0-1.28,1.27l-.15,1.4a1.36,1.36,0,0,1-1.28,1.28h-1.19A1.38,1.38,0,0,0,131.5,133v37.45a1.38,1.38,0,0,0,1.29,1.46" style="fill:none;stroke:#263238;stroke-linecap:round;stroke-linejoin:round;stroke-dasharray:5,3"></path><path d="M227.29,133.22h-.51v-1.09a1.38,1.38,0,0,0-1.29-1.45H200.66a1.36,1.36,0,0,1-1.28-1.27l-.15-1.41a1.35,1.35,0,0,0-1.28-1.27h-6.46a1.35,1.35,0,0,0-1.28,1.27l-.16,1.41a1.35,1.35,0,0,1-1.28,1.27h-1.18a1.38,1.38,0,0,0-1.29,1.45v37.46a1.38,1.38,0,0,0,1.29,1.45h37.9a1,1,0,0,0,.41-.09h1.39a1.63,1.63,0,0,0,1.62-1.62V134.85A1.63,1.63,0,0,0,227.29,133.22Z" style="fill:#F4E285"></path><path d="M188.42,169.33V134.85a1.63,1.63,0,0,1,1.63-1.63h36.73v-1.09a1.38,1.38,0,0,0-1.29-1.45H200.66a1.36,1.36,0,0,1-1.28-1.27l-.15-1.41a1.35,1.35,0,0,0-1.28-1.27h-6.46a1.35,1.35,0,0,0-1.28,1.27l-.16,1.41a1.35,1.35,0,0,1-1.28,1.27h-1.18a1.38,1.38,0,0,0-1.29,1.45v37.46a1.38,1.38,0,0,0,1.29,1.45h37.9a1,1,0,0,0,.41-.09H190.05A1.63,1.63,0,0,1,188.42,169.33Z" style="fill:#fff;opacity:0.5"></path><path d="M227.29,133.22H190.05a1.63,1.63,0,0,0-1.63,1.63v34.48a1.63,1.63,0,0,0,1.63,1.62h37.24a1.63,1.63,0,0,0,1.62-1.62V134.85A1.63,1.63,0,0,0,227.29,133.22Z" style="fill:#fff;opacity:0.7000000000000001"></path><path d="M208.18,161.22c-5.22,0-9.67-7.39-10.65-9.16a26.83,26.83,0,0,1,5.33-6.81l-.59-.91a27.83,27.83,0,0,0-5.56,7.34.83.83,0,0,0,0,.75c.21.41,5.19,10,11.47,10a8.15,8.15,0,0,0,4.68-1.7l-.6-.93A7.36,7.36,0,0,1,208.18,161.22Z" style="fill:#F4E285"></path><path d="M219.65,151.68c-.21-.41-5.19-10-11.47-10a8.14,8.14,0,0,0-4.68,1.69l.6.93a7.36,7.36,0,0,1,4.08-1.41c5.22,0,9.66,7.4,10.65,9.17a26.89,26.89,0,0,1-5.33,6.8l.58.91a28.22,28.22,0,0,0,5.57-7.34A.89.89,0,0,0,219.65,151.68Z" style="fill:#F4E285"></path><path d="M208.18,157.27a2.64,2.64,0,0,0,1.87-.88l-.57-.89a1.94,1.94,0,0,1-1.3.56c-1.42,0-2.58-1.8-2.58-4a5.82,5.82,0,0,1,.35-2l-.57-.88a7.35,7.35,0,0,0-.57,2.9C204.81,154.93,206.32,157.27,208.18,157.27Z" style="fill:#F4E285"></path><path d="M208.18,146.85a2.58,2.58,0,0,0-1.87.88l.57.88a1.91,1.91,0,0,1,1.3-.55c1.42,0,2.58,1.79,2.58,4a5.58,5.58,0,0,1-.36,2l.57.89a7.35,7.35,0,0,0,.57-2.9C211.54,149.18,210,146.85,208.18,146.85Z" style="fill:#F4E285"></path><path d="M200.67,139.82a.35.35,0,0,0-.28.18.88.88,0,0,0,0,.86l15,23.26a.31.31,0,0,0,.56,0,.88.88,0,0,0,0-.86L201,140A.35.35,0,0,0,200.67,139.82Z" style="fill:#F4E285"></path><path d="M226.78,133.22v-1.09a1.38,1.38,0,0,0-1.29-1.45H200.66a1.36,1.36,0,0,1-1.28-1.27l-.15-1.41a1.35,1.35,0,0,0-1.28-1.27h-6.46a1.35,1.35,0,0,0-1.28,1.27l-.16,1.41a1.35,1.35,0,0,1-1.28,1.27h-1.18a1.38,1.38,0,0,0-1.29,1.45v37.46a1.38,1.38,0,0,0,1.29,1.45" style="fill:none;stroke:#263238;stroke-linecap:round;stroke-linejoin:round;stroke-dasharray:5,3"></path><path d="M227.29,133.22H190.05a1.63,1.63,0,0,0-1.63,1.63v34.48a1.63,1.63,0,0,0,1.63,1.62h37.24a1.63,1.63,0,0,0,1.62-1.62V134.85A1.63,1.63,0,0,0,227.29,133.22Z" style="fill:none;stroke:#263238;stroke-linecap:round;stroke-linejoin:round;stroke-dasharray:5,3"></path><path d="M129.09,127.56h-6.46a1.35,1.35,0,0,0-1.28,1.27l-.16,1.4a1.36,1.36,0,0,1-1.28,1.28h-1.18a1.37,1.37,0,0,0-1.29,1.45v37.45a1.38,1.38,0,0,0,1.29,1.46" style="fill:none;stroke:#263238;stroke-linecap:round;stroke-linejoin:round;stroke-dasharray:5,3"></path><rect x="242.58" y="185.69" width="59.95" height="61.24" style="fill-opacity:0.7000000000000001;opacity:0.30000000000000004"></rect><path d="M292,199.06h-.51V198a1.37,1.37,0,0,0-1.29-1.45H265.4a1.36,1.36,0,0,1-1.28-1.28l-.15-1.4a1.36,1.36,0,0,0-1.28-1.28h-6.46a1.36,1.36,0,0,0-1.28,1.28l-.16,1.4a1.36,1.36,0,0,1-1.28,1.28h-1.18A1.37,1.37,0,0,0,251,198v37.45a1.38,1.38,0,0,0,1.29,1.46h37.89a1.17,1.17,0,0,0,.42-.09H292a1.63,1.63,0,0,0,1.63-1.63V200.69A1.63,1.63,0,0,0,292,199.06Z" style="fill:#F4E285"></path><path d="M253.16,235.16V200.69a1.63,1.63,0,0,1,1.62-1.63h36.73V198a1.37,1.37,0,0,0-1.29-1.45H265.4a1.36,1.36,0,0,1-1.28-1.28l-.15-1.4a1.36,1.36,0,0,0-1.28-1.28h-6.46a1.36,1.36,0,0,0-1.28,1.28l-.16,1.4a1.36,1.36,0,0,1-1.28,1.28h-1.18A1.37,1.37,0,0,0,251,198v37.45a1.38,1.38,0,0,0,1.29,1.46h37.89a1.17,1.17,0,0,0,.42-.09H254.78A1.63,1.63,0,0,1,253.16,235.16Z" style="fill:#fff;opacity:0.5"></path><path d="M292,199.06H254.78a1.63,1.63,0,0,0-1.62,1.63v34.47a1.63,1.63,0,0,0,1.62,1.63H292a1.63,1.63,0,0,0,1.63-1.63V200.69A1.63,1.63,0,0,0,292,199.06Z" style="fill:#fff;opacity:0.7000000000000001"></path><path d="M272.92,227.06c-5.22,0-9.67-7.39-10.66-9.17a27.17,27.17,0,0,1,5.34-6.8l-.59-.91a28.22,28.22,0,0,0-5.57,7.34.89.89,0,0,0,0,.75c.21.41,5.19,10,11.48,10a8.2,8.2,0,0,0,4.68-1.7l-.6-.93A7.42,7.42,0,0,1,272.92,227.06Z" style="fill:#F4E285"></path><path d="M284.39,217.52c-.21-.41-5.19-10-11.47-10a8.21,8.21,0,0,0-4.69,1.7l.61.93a7.36,7.36,0,0,1,4.08-1.41c5.22,0,9.66,7.39,10.65,9.16a27,27,0,0,1-5.34,6.81l.59.91a28.22,28.22,0,0,0,5.57-7.34A.89.89,0,0,0,284.39,217.52Z" style="fill:#F4E285"></path><path d="M272.92,223.11a2.61,2.61,0,0,0,1.87-.89l-.57-.88a1.92,1.92,0,0,1-1.3.55c-1.43,0-2.58-1.79-2.58-4a5.8,5.8,0,0,1,.35-2l-.57-.88a7.3,7.3,0,0,0-.57,2.89C269.55,220.77,271.06,223.11,272.92,223.11Z" style="fill:#F4E285"></path><path d="M272.92,212.68a2.58,2.58,0,0,0-1.87.89l.57.88a1.91,1.91,0,0,1,1.3-.55c1.42,0,2.58,1.79,2.58,4a5.59,5.59,0,0,1-.36,2l.57.88a7.31,7.31,0,0,0,.57-2.9C276.28,215,274.77,212.68,272.92,212.68Z" style="fill:#F4E285"></path><path d="M265.41,205.66a.36.36,0,0,0-.28.17.88.88,0,0,0,0,.86l15,23.27a.36.36,0,0,0,.28.17.33.33,0,0,0,.27-.17.83.83,0,0,0,0-.86l-15-23.27A.33.33,0,0,0,265.41,205.66Z" style="fill:#F4E285"></path><path d="M291.51,199.06V198a1.37,1.37,0,0,0-1.29-1.45H265.4a1.36,1.36,0,0,1-1.28-1.28l-.15-1.4a1.36,1.36,0,0,0-1.28-1.28h-6.46a1.36,1.36,0,0,0-1.28,1.28l-.16,1.4a1.36,1.36,0,0,1-1.28,1.28h-1.18A1.37,1.37,0,0,0,251,198v37.45a1.38,1.38,0,0,0,1.29,1.46" style="fill:none;stroke:#263238;stroke-linecap:round;stroke-linejoin:round;stroke-dasharray:5,3"></path><path d="M292,199.06H254.78a1.63,1.63,0,0,0-1.62,1.63v34.47a1.63,1.63,0,0,0,1.62,1.63H292a1.63,1.63,0,0,0,1.63-1.63V200.69A1.63,1.63,0,0,0,292,199.06Z" style="fill:none;stroke:#263238;stroke-linecap:round;stroke-linejoin:round;stroke-dasharray:5,3"></path><rect x="177.98" y="185.69" width="59.95" height="61.24" style="fill-opacity:0.7000000000000001;opacity:0.30000000000000004"></rect><path d="M185.48,192.56H179a1.36,1.36,0,0,0-1.28,1.28l-.15,1.4a1.36,1.36,0,0,1-1.28,1.28h-1.19a1.38,1.38,0,0,0-1.29,1.45v37.45a1.38,1.38,0,0,0,1.29,1.46" style="fill:none;stroke:#263238;stroke-linecap:round;stroke-linejoin:round;stroke-dasharray:5,3"></path><path d="M171.42,192.84H165a1.36,1.36,0,0,0-1.28,1.28l-.16,1.4a1.35,1.35,0,0,1-1.28,1.27h-1.18a1.38,1.38,0,0,0-1.29,1.46V235.7a1.37,1.37,0,0,0,1.29,1.45" style="fill:none;stroke:#263238;stroke-linecap:round;stroke-linejoin:round;stroke-dasharray:5,3"></path><path d="M157.35,193.12h-6.46a1.35,1.35,0,0,0-1.28,1.27l-.15,1.41a1.36,1.36,0,0,1-1.28,1.27H147a1.38,1.38,0,0,0-1.29,1.45V236a1.38,1.38,0,0,0,1.29,1.46" style="fill:none;stroke:#263238;stroke-linecap:round;stroke-linejoin:round;stroke-dasharray:5,3"></path><path d="M143.29,193.39h-6.46a1.36,1.36,0,0,0-1.28,1.28l-.16,1.4a1.36,1.36,0,0,1-1.28,1.28h-1.19a1.38,1.38,0,0,0-1.29,1.45v37.45a1.38,1.38,0,0,0,1.29,1.45" style="fill:none;stroke:#263238;stroke-linecap:round;stroke-linejoin:round;stroke-dasharray:5,3"></path><path d="M227.42,199.06h-.51V198a1.38,1.38,0,0,0-1.29-1.45H200.8a1.35,1.35,0,0,1-1.28-1.28l-.16-1.4a1.36,1.36,0,0,0-1.28-1.28h-6.46a1.36,1.36,0,0,0-1.28,1.28l-.15,1.4a1.36,1.36,0,0,1-1.28,1.28h-1.19a1.38,1.38,0,0,0-1.29,1.45v37.45a1.38,1.38,0,0,0,1.29,1.46h37.9a1.17,1.17,0,0,0,.42-.09h1.38a1.63,1.63,0,0,0,1.63-1.63V200.69A1.63,1.63,0,0,0,227.42,199.06Z" style="fill:#F4E285"></path><path d="M188.55,235.16V200.69a1.63,1.63,0,0,1,1.63-1.63h36.73V198a1.38,1.38,0,0,0-1.29-1.45H200.8a1.35,1.35,0,0,1-1.28-1.28l-.16-1.4a1.36,1.36,0,0,0-1.28-1.28h-6.46a1.36,1.36,0,0,0-1.28,1.28l-.15,1.4a1.36,1.36,0,0,1-1.28,1.28h-1.19a1.38,1.38,0,0,0-1.29,1.45v37.45a1.38,1.38,0,0,0,1.29,1.46h37.9a1.17,1.17,0,0,0,.42-.09H190.18A1.63,1.63,0,0,1,188.55,235.16Z" style="fill:#fff;opacity:0.5"></path><path d="M227.42,199.06H190.18a1.63,1.63,0,0,0-1.63,1.63v34.47a1.63,1.63,0,0,0,1.63,1.63h37.24a1.63,1.63,0,0,0,1.63-1.63V200.69A1.63,1.63,0,0,0,227.42,199.06Z" style="fill:#fff;opacity:0.7000000000000001"></path><path d="M208.31,227.06c-5.22,0-9.66-7.39-10.65-9.17a27.07,27.07,0,0,1,5.33-6.8l-.58-.91a28.22,28.22,0,0,0-5.57,7.34.89.89,0,0,0,0,.75c.21.41,5.19,10,11.47,10a8.15,8.15,0,0,0,4.68-1.7l-.6-.93A7.36,7.36,0,0,1,208.31,227.06Z" style="fill:#F4E285"></path><path d="M219.78,217.52c-.21-.41-5.18-10-11.47-10a8.18,8.18,0,0,0-4.68,1.7l.6.93a7.36,7.36,0,0,1,4.08-1.41c5.22,0,9.67,7.39,10.65,9.16a26.66,26.66,0,0,1-5.33,6.81l.59.91a27.83,27.83,0,0,0,5.56-7.34A.83.83,0,0,0,219.78,217.52Z" style="fill:#F4E285"></path><path d="M208.31,223.11a2.59,2.59,0,0,0,1.87-.89l-.57-.88a1.91,1.91,0,0,1-1.3.55c-1.42,0-2.58-1.79-2.58-4a5.58,5.58,0,0,1,.36-2l-.57-.88a7.3,7.3,0,0,0-.57,2.89C205,220.77,206.46,223.11,208.31,223.11Z" style="fill:#F4E285"></path><path d="M208.31,212.68a2.61,2.61,0,0,0-1.87.89l.57.88a1.92,1.92,0,0,1,1.3-.55c1.42,0,2.58,1.79,2.58,4a5.82,5.82,0,0,1-.35,2l.57.88a7.31,7.31,0,0,0,.57-2.9C211.68,215,210.17,212.68,208.31,212.68Z" style="fill:#F4E285"></path><path d="M200.8,205.66a.33.33,0,0,0-.27.17.83.83,0,0,0,0,.86l15,23.27a.32.32,0,0,0,.56,0,.88.88,0,0,0,0-.86l-15-23.27A.36.36,0,0,0,200.8,205.66Z" style="fill:#F4E285"></path><path d="M226.91,199.06V198a1.38,1.38,0,0,0-1.29-1.45H200.8a1.35,1.35,0,0,1-1.28-1.28l-.16-1.4a1.36,1.36,0,0,0-1.28-1.28h-6.46a1.36,1.36,0,0,0-1.28,1.28l-.15,1.4a1.36,1.36,0,0,1-1.28,1.28h-1.19a1.38,1.38,0,0,0-1.29,1.45v37.45a1.38,1.38,0,0,0,1.29,1.46" style="fill:none;stroke:#263238;stroke-linecap:round;stroke-linejoin:round;stroke-dasharray:5,3"></path><path d="M227.42,199.06H190.18a1.63,1.63,0,0,0-1.63,1.63v34.47a1.63,1.63,0,0,0,1.63,1.63h37.24a1.63,1.63,0,0,0,1.63-1.63V200.69A1.63,1.63,0,0,0,227.42,199.06Z" style="fill:none;stroke:#263238;stroke-linecap:round;stroke-linejoin:round;stroke-dasharray:5,3"></path><path d="M129.22,193.39h-6.46a1.36,1.36,0,0,0-1.28,1.28l-.15,1.4a1.36,1.36,0,0,1-1.28,1.28h-1.19a1.38,1.38,0,0,0-1.29,1.45v37.45a1.38,1.38,0,0,0,1.29,1.45" style="fill:none;stroke:#263238;stroke-linecap:round;stroke-linejoin:round;stroke-dasharray:5,3"></path><rect x="242.72" y="251.53" width="59.95" height="61.24" style="fill-opacity:0.7000000000000001;opacity:0.30000000000000004"></rect><path d="M292.16,264.9h-.51v-1.09a1.38,1.38,0,0,0-1.29-1.45H265.53a1.36,1.36,0,0,1-1.28-1.28l-.15-1.4a1.36,1.36,0,0,0-1.28-1.28h-6.46a1.36,1.36,0,0,0-1.28,1.28l-.15,1.4a1.37,1.37,0,0,1-1.29,1.28h-1.18a1.38,1.38,0,0,0-1.29,1.45v37.45a1.38,1.38,0,0,0,1.29,1.45h37.9a1.25,1.25,0,0,0,.42-.08h1.38a1.62,1.62,0,0,0,1.62-1.63V266.53A1.62,1.62,0,0,0,292.16,264.9Z" style="fill:#F4E285"></path><path d="M253.29,301V266.53a1.63,1.63,0,0,1,1.63-1.63h36.73v-1.09a1.38,1.38,0,0,0-1.29-1.45H265.53a1.36,1.36,0,0,1-1.28-1.28l-.15-1.4a1.36,1.36,0,0,0-1.28-1.28h-6.46a1.36,1.36,0,0,0-1.28,1.28l-.15,1.4a1.37,1.37,0,0,1-1.29,1.28h-1.18a1.38,1.38,0,0,0-1.29,1.45v37.45a1.38,1.38,0,0,0,1.29,1.45h37.9a1.25,1.25,0,0,0,.42-.08H254.92A1.63,1.63,0,0,1,253.29,301Z" style="fill:#fff;opacity:0.5"></path><path d="M292.16,264.9H254.92a1.63,1.63,0,0,0-1.63,1.63V301a1.63,1.63,0,0,0,1.63,1.63h37.24a1.62,1.62,0,0,0,1.62-1.63V266.53A1.62,1.62,0,0,0,292.16,264.9Z" style="fill:#fff;opacity:0.7000000000000001"></path><path d="M273.05,292.9c-5.22,0-9.66-7.4-10.65-9.17a26.65,26.65,0,0,1,5.33-6.8l-.59-.91a28,28,0,0,0-5.56,7.33.85.85,0,0,0,0,.76c.21.41,5.19,10,11.47,10a8.14,8.14,0,0,0,4.68-1.69l-.6-.94A7.3,7.3,0,0,1,273.05,292.9Z" style="fill:#F4E285"></path><path d="M284.52,283.35c-.21-.4-5.19-10-11.47-10a8.15,8.15,0,0,0-4.68,1.7l.6.93a7.36,7.36,0,0,1,4.08-1.41c5.22,0,9.66,7.39,10.65,9.16a27.07,27.07,0,0,1-5.33,6.81l.58.91a28,28,0,0,0,5.57-7.34A.92.92,0,0,0,284.52,283.35Z" style="fill:#F4E285"></path><path d="M273.05,288.94a2.6,2.6,0,0,0,1.87-.88l-.57-.88a1.92,1.92,0,0,1-1.3.55c-1.42,0-2.58-1.79-2.58-4a5.8,5.8,0,0,1,.35-2l-.57-.89a7.35,7.35,0,0,0-.57,2.9C269.68,286.61,271.19,288.94,273.05,288.94Z" style="fill:#F4E285"></path><path d="M273.05,278.52a2.62,2.62,0,0,0-1.87.88l.57.89a1.92,1.92,0,0,1,1.3-.56c1.42,0,2.58,1.8,2.58,4a5.59,5.59,0,0,1-.36,2l.57.88a7.35,7.35,0,0,0,.57-2.9C276.41,280.86,274.9,278.52,273.05,278.52Z" style="fill:#F4E285"></path><path d="M265.54,271.49a.35.35,0,0,0-.28.18.88.88,0,0,0,0,.86l15,23.26a.31.31,0,0,0,.56,0,.88.88,0,0,0,0-.86l-15-23.26A.35.35,0,0,0,265.54,271.49Z" style="fill:#F4E285"></path><path d="M291.65,264.9v-1.09a1.38,1.38,0,0,0-1.29-1.45H265.53a1.36,1.36,0,0,1-1.28-1.28l-.15-1.4a1.36,1.36,0,0,0-1.28-1.28h-6.46a1.36,1.36,0,0,0-1.28,1.28l-.15,1.4a1.37,1.37,0,0,1-1.29,1.28h-1.18a1.38,1.38,0,0,0-1.29,1.45v37.45a1.38,1.38,0,0,0,1.29,1.45" style="fill:none;stroke:#263238;stroke-linecap:round;stroke-linejoin:round;stroke-dasharray:5,3"></path><path d="M292.16,264.9H254.92a1.63,1.63,0,0,0-1.63,1.63V301a1.63,1.63,0,0,0,1.63,1.63h37.24a1.62,1.62,0,0,0,1.62-1.63V266.53A1.62,1.62,0,0,0,292.16,264.9Z" style="fill:none;stroke:#263238;stroke-linecap:round;stroke-linejoin:round;stroke-dasharray:5,3"></path><rect x="178.11" y="251.53" width="59.95" height="61.24" style="fill-opacity:0.7000000000000001;opacity:0.30000000000000004"></rect><path d="M185.61,258.4h-6.45a1.35,1.35,0,0,0-1.28,1.28l-.16,1.4a1.36,1.36,0,0,1-1.28,1.28h-1.19a1.38,1.38,0,0,0-1.29,1.45v37.45a1.38,1.38,0,0,0,1.29,1.45" style="fill:none;stroke:#263238;stroke-linecap:round;stroke-linejoin:round;stroke-dasharray:5,3"></path><path d="M171.55,258.68h-6.46a1.35,1.35,0,0,0-1.28,1.27l-.15,1.41a1.36,1.36,0,0,1-1.28,1.27h-1.19a1.38,1.38,0,0,0-1.29,1.45v37.46a1.38,1.38,0,0,0,1.29,1.45" style="fill:none;stroke:#263238;stroke-linecap:round;stroke-linejoin:round;stroke-dasharray:5,3"></path><path d="M157.48,259H151a1.36,1.36,0,0,0-1.28,1.28l-.15,1.4a1.36,1.36,0,0,1-1.28,1.28h-1.19a1.38,1.38,0,0,0-1.29,1.45v37.45a1.38,1.38,0,0,0,1.29,1.46" style="fill:none;stroke:#263238;stroke-linecap:round;stroke-linejoin:round;stroke-dasharray:5,3"></path><path d="M143.42,259.23H137a1.36,1.36,0,0,0-1.28,1.27l-.16,1.41a1.34,1.34,0,0,1-1.28,1.27h-1.18a1.38,1.38,0,0,0-1.29,1.46v37.45a1.37,1.37,0,0,0,1.29,1.45" style="fill:none;stroke:#263238;stroke-linecap:round;stroke-linejoin:round;stroke-dasharray:5,3"></path><path d="M227.55,264.9H227v-1.09a1.38,1.38,0,0,0-1.29-1.45H200.93a1.36,1.36,0,0,1-1.28-1.28l-.16-1.4a1.36,1.36,0,0,0-1.28-1.28h-6.46a1.36,1.36,0,0,0-1.28,1.28l-.15,1.4a1.36,1.36,0,0,1-1.28,1.28h-1.19a1.38,1.38,0,0,0-1.29,1.45v37.45a1.38,1.38,0,0,0,1.29,1.45h37.9a1.16,1.16,0,0,0,.42-.08h1.38a1.63,1.63,0,0,0,1.63-1.63V266.53A1.63,1.63,0,0,0,227.55,264.9Z" style="fill:#F4E285"></path><path d="M188.68,301V266.53a1.63,1.63,0,0,1,1.63-1.63H227v-1.09a1.38,1.38,0,0,0-1.29-1.45H200.93a1.36,1.36,0,0,1-1.28-1.28l-.16-1.4a1.36,1.36,0,0,0-1.28-1.28h-6.46a1.36,1.36,0,0,0-1.28,1.28l-.15,1.4a1.36,1.36,0,0,1-1.28,1.28h-1.19a1.38,1.38,0,0,0-1.29,1.45v37.45a1.38,1.38,0,0,0,1.29,1.45h37.9a1.16,1.16,0,0,0,.42-.08H190.31A1.63,1.63,0,0,1,188.68,301Z" style="fill:#fff;opacity:0.5"></path><path d="M227.55,264.9H190.31a1.63,1.63,0,0,0-1.63,1.63V301a1.63,1.63,0,0,0,1.63,1.63h37.24a1.63,1.63,0,0,0,1.63-1.63V266.53A1.63,1.63,0,0,0,227.55,264.9Z" style="fill:#fff;opacity:0.7000000000000001"></path><path d="M208.44,292.9c-5.22,0-9.66-7.4-10.65-9.17a27,27,0,0,1,5.34-6.8l-.59-.91a28.42,28.42,0,0,0-5.57,7.33.92.92,0,0,0,0,.76c.21.41,5.19,10,11.47,10a8.2,8.2,0,0,0,4.69-1.69l-.6-.94A7.36,7.36,0,0,1,208.44,292.9Z" style="fill:#F4E285"></path><path d="M219.92,283.35c-.21-.4-5.19-10-11.48-10a8.2,8.2,0,0,0-4.68,1.7l.6.93a7.42,7.42,0,0,1,4.08-1.41c5.22,0,9.67,7.39,10.66,9.16a27.17,27.17,0,0,1-5.34,6.81l.59.91a28.22,28.22,0,0,0,5.57-7.34A.92.92,0,0,0,219.92,283.35Z" style="fill:#F4E285"></path><path d="M208.44,288.94a2.6,2.6,0,0,0,1.88-.88l-.57-.88a2,2,0,0,1-1.31.55c-1.42,0-2.58-1.79-2.58-4a5.58,5.58,0,0,1,.36-2l-.57-.89a7.35,7.35,0,0,0-.57,2.9C205.08,286.61,206.59,288.94,208.44,288.94Z" style="fill:#F4E285"></path><path d="M208.44,278.52a2.64,2.64,0,0,0-1.87.88l.57.89a2,2,0,0,1,1.3-.56c1.43,0,2.59,1.8,2.59,4a5.81,5.81,0,0,1-.36,2l.57.88a7.35,7.35,0,0,0,.57-2.9C211.81,280.86,210.3,278.52,208.44,278.52Z" style="fill:#F4E285"></path><path d="M200.93,271.49a.32.32,0,0,0-.27.18.83.83,0,0,0,0,.86l15,23.26a.32.32,0,0,0,.27.18.35.35,0,0,0,.28-.18.88.88,0,0,0,0-.86l-15-23.26A.32.32,0,0,0,200.93,271.49Z" style="fill:#F4E285"></path><path d="M227,264.9v-1.09a1.38,1.38,0,0,0-1.29-1.45H200.93a1.36,1.36,0,0,1-1.28-1.28l-.16-1.4a1.36,1.36,0,0,0-1.28-1.28h-6.46a1.36,1.36,0,0,0-1.28,1.28l-.15,1.4a1.36,1.36,0,0,1-1.28,1.28h-1.19a1.38,1.38,0,0,0-1.29,1.45v37.45a1.38,1.38,0,0,0,1.29,1.45" style="fill:none;stroke:#263238;stroke-linecap:round;stroke-linejoin:round;stroke-dasharray:5,3"></path><path d="M227.55,264.9H190.31a1.63,1.63,0,0,0-1.63,1.63V301a1.63,1.63,0,0,0,1.63,1.63h37.24a1.63,1.63,0,0,0,1.63-1.63V266.53A1.63,1.63,0,0,0,227.55,264.9Z" style="fill:none;stroke:#263238;stroke-linecap:round;stroke-linejoin:round;stroke-dasharray:5,3"></path><path d="M129.35,259.23h-6.46a1.36,1.36,0,0,0-1.28,1.27l-.15,1.41a1.35,1.35,0,0,1-1.28,1.27H119a1.38,1.38,0,0,0-1.29,1.46v37.45a1.38,1.38,0,0,0,1.29,1.45" style="fill:none;stroke:#263238;stroke-linecap:round;stroke-linejoin:round;stroke-dasharray:5,3"></path><rect x="242.85" y="317.36" width="59.95" height="61.24" style="fill-opacity:0.7000000000000001;opacity:0.30000000000000004"></rect><path d="M292.29,330.73h-.51v-1.08a1.38,1.38,0,0,0-1.29-1.46H265.67a1.34,1.34,0,0,1-1.28-1.27l-.16-1.41a1.36,1.36,0,0,0-1.28-1.27h-6.46a1.36,1.36,0,0,0-1.28,1.27l-.15,1.41a1.35,1.35,0,0,1-1.28,1.27h-1.19a1.38,1.38,0,0,0-1.29,1.46V367.1a1.38,1.38,0,0,0,1.29,1.45h37.9a1.16,1.16,0,0,0,.42-.08h1.38a1.63,1.63,0,0,0,1.63-1.63V332.36A1.63,1.63,0,0,0,292.29,330.73Z" style="fill:#F4E285"></path><path d="M253.42,366.84V332.36a1.63,1.63,0,0,1,1.63-1.63h36.73v-1.08a1.38,1.38,0,0,0-1.29-1.46H265.67a1.34,1.34,0,0,1-1.28-1.27l-.16-1.41a1.36,1.36,0,0,0-1.28-1.27h-6.46a1.36,1.36,0,0,0-1.28,1.27l-.15,1.41a1.35,1.35,0,0,1-1.28,1.27h-1.19a1.38,1.38,0,0,0-1.29,1.46V367.1a1.38,1.38,0,0,0,1.29,1.45h37.9a1.16,1.16,0,0,0,.42-.08H255.05A1.63,1.63,0,0,1,253.42,366.84Z" style="fill:#fff;opacity:0.5"></path><path d="M292.29,330.73H255.05a1.63,1.63,0,0,0-1.63,1.63v34.48a1.63,1.63,0,0,0,1.63,1.63h37.24a1.63,1.63,0,0,0,1.63-1.63V332.36A1.63,1.63,0,0,0,292.29,330.73Z" style="fill:#fff;opacity:0.7000000000000001"></path><path d="M273.18,358.74c-5.22,0-9.66-7.4-10.65-9.17a27.07,27.07,0,0,1,5.33-6.81l-.58-.91a28.57,28.57,0,0,0-5.57,7.34.92.92,0,0,0,0,.76c.21.4,5.19,10,11.47,10a8.15,8.15,0,0,0,4.68-1.7l-.6-.93A7.38,7.38,0,0,1,273.18,358.74Z" style="fill:#F4E285"></path><path d="M284.65,349.19c-.2-.41-5.18-10-11.47-10a8.24,8.24,0,0,0-4.68,1.69l.6.94a7.38,7.38,0,0,1,4.08-1.42c5.22,0,9.67,7.4,10.65,9.17a26.83,26.83,0,0,1-5.33,6.81l.59.91a28.17,28.17,0,0,0,5.56-7.34A.85.85,0,0,0,284.65,349.19Z" style="fill:#F4E285"></path><path d="M273.18,354.78a2.58,2.58,0,0,0,1.87-.88l-.57-.88a2,2,0,0,1-1.3.55c-1.42,0-2.58-1.8-2.58-4a5.63,5.63,0,0,1,.36-2l-.57-.88a7.35,7.35,0,0,0-.57,2.9C269.82,352.44,271.33,354.78,273.18,354.78Z" style="fill:#F4E285"></path><path d="M273.18,344.36a2.6,2.6,0,0,0-1.87.88l.57.88a1.92,1.92,0,0,1,1.3-.55c1.42,0,2.58,1.79,2.58,4a5.86,5.86,0,0,1-.35,2l.57.88a7.35,7.35,0,0,0,.57-2.9C276.55,346.7,275,344.36,273.18,344.36Z" style="fill:#F4E285"></path><path d="M265.67,337.33a.32.32,0,0,0-.27.18.83.83,0,0,0,0,.86l15,23.26a.31.31,0,0,0,.56,0,.88.88,0,0,0,0-.86l-15-23.26A.35.35,0,0,0,265.67,337.33Z" style="fill:#F4E285"></path><path d="M291.78,330.73v-1.08a1.38,1.38,0,0,0-1.29-1.46H265.67a1.34,1.34,0,0,1-1.28-1.27l-.16-1.41a1.36,1.36,0,0,0-1.28-1.27h-6.46a1.36,1.36,0,0,0-1.28,1.27l-.15,1.41a1.35,1.35,0,0,1-1.28,1.27h-1.19a1.38,1.38,0,0,0-1.29,1.46V367.1a1.38,1.38,0,0,0,1.29,1.45" style="fill:none;stroke:#263238;stroke-linecap:round;stroke-linejoin:round;stroke-dasharray:5,3"></path><path d="M292.29,330.73H255.05a1.63,1.63,0,0,0-1.63,1.63v34.48a1.63,1.63,0,0,0,1.63,1.63h37.24a1.63,1.63,0,0,0,1.63-1.63V332.36A1.63,1.63,0,0,0,292.29,330.73Z" style="fill:none;stroke:#263238;stroke-linecap:round;stroke-linejoin:round;stroke-dasharray:5,3"></path><rect x="178.24" y="317.36" width="59.95" height="61.24" style="fill-opacity:0.7000000000000001;opacity:0.30000000000000004"></rect><path d="M185.75,324.24h-6.46a1.36,1.36,0,0,0-1.28,1.27l-.16,1.41a1.35,1.35,0,0,1-1.28,1.27h-1.18a1.38,1.38,0,0,0-1.29,1.46V367.1a1.37,1.37,0,0,0,1.29,1.45" style="fill:none;stroke:#263238;stroke-linecap:round;stroke-linejoin:round;stroke-dasharray:5,3"></path><path d="M171.68,324.51h-6.46a1.36,1.36,0,0,0-1.28,1.28l-.15,1.4a1.36,1.36,0,0,1-1.28,1.28h-1.19a1.38,1.38,0,0,0-1.29,1.45v37.45a1.38,1.38,0,0,0,1.29,1.46" style="fill:none;stroke:#263238;stroke-linecap:round;stroke-linejoin:round;stroke-dasharray:5,3"></path><path d="M157.62,324.79h-6.46a1.36,1.36,0,0,0-1.28,1.28l-.16,1.4a1.35,1.35,0,0,1-1.28,1.27h-1.18A1.38,1.38,0,0,0,146,330.2v37.45a1.37,1.37,0,0,0,1.29,1.45" style="fill:none;stroke:#263238;stroke-linecap:round;stroke-linejoin:round;stroke-dasharray:5,3"></path><path d="M143.55,325.07h-6.46a1.35,1.35,0,0,0-1.28,1.27l-.15,1.41a1.36,1.36,0,0,1-1.28,1.27h-1.19a1.38,1.38,0,0,0-1.29,1.45v37.46a1.38,1.38,0,0,0,1.29,1.45" style="fill:none;stroke:#263238;stroke-linecap:round;stroke-linejoin:round;stroke-dasharray:5,3"></path><path d="M227.68,330.73h-.51v-1.08a1.38,1.38,0,0,0-1.29-1.46H201.06a1.35,1.35,0,0,1-1.28-1.27l-.15-1.41a1.36,1.36,0,0,0-1.28-1.27h-6.46a1.36,1.36,0,0,0-1.28,1.27l-.16,1.41a1.35,1.35,0,0,1-1.28,1.27H188a1.38,1.38,0,0,0-1.29,1.46V367.1a1.37,1.37,0,0,0,1.29,1.45h37.89a1.16,1.16,0,0,0,.42-.08h1.38a1.63,1.63,0,0,0,1.63-1.63V332.36A1.63,1.63,0,0,0,227.68,330.73Z" style="fill:#F4E285"></path><path d="M188.82,366.84V332.36a1.63,1.63,0,0,1,1.62-1.63h36.73v-1.08a1.38,1.38,0,0,0-1.29-1.46H201.06a1.35,1.35,0,0,1-1.28-1.27l-.15-1.41a1.36,1.36,0,0,0-1.28-1.27h-6.46a1.36,1.36,0,0,0-1.28,1.27l-.16,1.41a1.35,1.35,0,0,1-1.28,1.27H188a1.38,1.38,0,0,0-1.29,1.46V367.1a1.37,1.37,0,0,0,1.29,1.45h37.89a1.16,1.16,0,0,0,.42-.08H190.44A1.63,1.63,0,0,1,188.82,366.84Z" style="fill:#fff;opacity:0.5"></path><path d="M227.68,330.73H190.44a1.63,1.63,0,0,0-1.62,1.63v34.48a1.63,1.63,0,0,0,1.62,1.63h37.24a1.63,1.63,0,0,0,1.63-1.63V332.36A1.63,1.63,0,0,0,227.68,330.73Z" style="fill:#fff;opacity:0.7000000000000001"></path><path d="M208.58,358.74c-5.22,0-9.67-7.4-10.66-9.17a27.17,27.17,0,0,1,5.34-6.81l-.59-.91a28.57,28.57,0,0,0-5.57,7.34.92.92,0,0,0,0,.76c.21.4,5.19,10,11.48,10a8.2,8.2,0,0,0,4.68-1.7l-.6-.93A7.43,7.43,0,0,1,208.58,358.74Z" style="fill:#F4E285"></path><path d="M220.05,349.19c-.21-.41-5.19-10-11.47-10a8.27,8.27,0,0,0-4.69,1.69l.61.94a7.38,7.38,0,0,1,4.08-1.42c5.22,0,9.66,7.4,10.65,9.17a27.17,27.17,0,0,1-5.34,6.81l.59.91a28.57,28.57,0,0,0,5.57-7.34A.92.92,0,0,0,220.05,349.19Z" style="fill:#F4E285"></path><path d="M208.58,354.78a2.6,2.6,0,0,0,1.87-.88l-.57-.88a2,2,0,0,1-1.3.55c-1.43,0-2.58-1.8-2.58-4a5.86,5.86,0,0,1,.35-2l-.57-.88a7.35,7.35,0,0,0-.57,2.9C205.21,352.44,206.72,354.78,208.58,354.78Z" style="fill:#F4E285"></path><path d="M208.58,344.36a2.57,2.57,0,0,0-1.87.88l.57.88a1.91,1.91,0,0,1,1.3-.55c1.42,0,2.58,1.79,2.58,4a5.63,5.63,0,0,1-.36,2l.57.88a7.35,7.35,0,0,0,.57-2.9C211.94,346.7,210.43,344.36,208.58,344.36Z" style="fill:#F4E285"></path><path d="M201.07,337.33a.35.35,0,0,0-.28.18.88.88,0,0,0,0,.86l15,23.26a.35.35,0,0,0,.28.18.32.32,0,0,0,.27-.18.83.83,0,0,0,0-.86l-15-23.26A.32.32,0,0,0,201.07,337.33Z" style="fill:#F4E285"></path><path d="M227.17,330.73v-1.08a1.38,1.38,0,0,0-1.29-1.46H201.06a1.35,1.35,0,0,1-1.28-1.27l-.15-1.41a1.36,1.36,0,0,0-1.28-1.27h-6.46a1.36,1.36,0,0,0-1.28,1.27l-.16,1.41a1.35,1.35,0,0,1-1.28,1.27H188a1.38,1.38,0,0,0-1.29,1.46V367.1a1.37,1.37,0,0,0,1.29,1.45" style="fill:none;stroke:#263238;stroke-linecap:round;stroke-linejoin:round;stroke-dasharray:5,3"></path><path d="M227.68,330.73H190.44a1.63,1.63,0,0,0-1.62,1.63v34.48a1.63,1.63,0,0,0,1.62,1.63h37.24a1.63,1.63,0,0,0,1.63-1.63V332.36A1.63,1.63,0,0,0,227.68,330.73Z" style="fill:none;stroke:#263238;stroke-linecap:round;stroke-linejoin:round;stroke-dasharray:5,3"></path><path d="M129.48,325.07H123a1.34,1.34,0,0,0-1.28,1.27l-.16,1.41a1.36,1.36,0,0,1-1.28,1.27h-1.19a1.38,1.38,0,0,0-1.29,1.45v37.46a1.38,1.38,0,0,0,1.29,1.45" style="fill:none;stroke:#263238;stroke-linecap:round;stroke-linejoin:round;stroke-dasharray:5,3"></path><rect x="242.98" y="383.2" width="59.95" height="61.24" style="fill-opacity:0.7000000000000001;opacity:0.30000000000000004"></rect><path d="M292.42,396.57h-.51v-1.09a1.38,1.38,0,0,0-1.29-1.45H265.8a1.36,1.36,0,0,1-1.28-1.28l-.16-1.4a1.35,1.35,0,0,0-1.28-1.27h-6.46a1.35,1.35,0,0,0-1.28,1.27l-.15,1.4a1.36,1.36,0,0,1-1.28,1.28h-1.19a1.38,1.38,0,0,0-1.29,1.45v37.45a1.38,1.38,0,0,0,1.29,1.46h37.9a1.17,1.17,0,0,0,.42-.09h1.38a1.63,1.63,0,0,0,1.63-1.63V398.2A1.63,1.63,0,0,0,292.42,396.57Z" style="fill:#F4E285"></path><path d="M253.55,432.67V398.2a1.63,1.63,0,0,1,1.63-1.63h36.73v-1.09a1.38,1.38,0,0,0-1.29-1.45H265.8a1.36,1.36,0,0,1-1.28-1.28l-.16-1.4a1.35,1.35,0,0,0-1.28-1.27h-6.46a1.35,1.35,0,0,0-1.28,1.27l-.15,1.4a1.36,1.36,0,0,1-1.28,1.28h-1.19a1.38,1.38,0,0,0-1.29,1.45v37.45a1.38,1.38,0,0,0,1.29,1.46h37.9a1.17,1.17,0,0,0,.42-.09H255.18A1.63,1.63,0,0,1,253.55,432.67Z" style="fill:#fff;opacity:0.5"></path><path d="M292.42,396.57H255.18a1.63,1.63,0,0,0-1.63,1.63v34.47a1.63,1.63,0,0,0,1.63,1.63h37.24a1.63,1.63,0,0,0,1.63-1.63V398.2A1.63,1.63,0,0,0,292.42,396.57Z" style="fill:#fff;opacity:0.7000000000000001"></path><path d="M273.31,424.57c-5.22,0-9.66-7.39-10.65-9.16A27.17,27.17,0,0,1,268,408.6l-.59-.91a28.22,28.22,0,0,0-5.57,7.34.89.89,0,0,0,0,.75c.21.41,5.19,10,11.47,10a8.21,8.21,0,0,0,4.69-1.7l-.6-.93A7.42,7.42,0,0,1,273.31,424.57Z" style="fill:#F4E285"></path><path d="M284.79,415c-.21-.41-5.19-10-11.48-10a8.19,8.19,0,0,0-4.68,1.69l.6.93a7.42,7.42,0,0,1,4.08-1.41c5.22,0,9.67,7.4,10.66,9.17a27,27,0,0,1-5.34,6.8l.59.91a28.22,28.22,0,0,0,5.57-7.34A.89.89,0,0,0,284.79,415Z" style="fill:#F4E285"></path><path d="M273.31,420.62a2.64,2.64,0,0,0,1.88-.88l-.57-.89a2,2,0,0,1-1.31.55c-1.42,0-2.58-1.79-2.58-4a5.59,5.59,0,0,1,.36-2l-.57-.88a7.31,7.31,0,0,0-.57,2.9C270,418.28,271.46,420.62,273.31,420.62Z" style="fill:#F4E285"></path><path d="M273.31,410.19a2.61,2.61,0,0,0-1.87.89l.57.88a1.94,1.94,0,0,1,1.3-.55c1.43,0,2.59,1.79,2.59,4a5.8,5.8,0,0,1-.36,2l.57.89a7.35,7.35,0,0,0,.57-2.9C276.68,412.53,275.17,410.19,273.31,410.19Z" style="fill:#F4E285"></path><path d="M265.81,403.17a.32.32,0,0,0-.28.18.81.81,0,0,0,0,.85l15,23.27a.32.32,0,0,0,.27.18.35.35,0,0,0,.28-.18.88.88,0,0,0,0-.86l-15-23.26A.32.32,0,0,0,265.81,403.17Z" style="fill:#F4E285"></path><path d="M291.91,396.57v-1.09a1.38,1.38,0,0,0-1.29-1.45H265.8a1.36,1.36,0,0,1-1.28-1.28l-.16-1.4a1.35,1.35,0,0,0-1.28-1.27h-6.46a1.35,1.35,0,0,0-1.28,1.27l-.15,1.4a1.36,1.36,0,0,1-1.28,1.28h-1.19a1.38,1.38,0,0,0-1.29,1.45v37.45a1.38,1.38,0,0,0,1.29,1.46" style="fill:none;stroke:#263238;stroke-linecap:round;stroke-linejoin:round;stroke-dasharray:5,3"></path><path d="M292.42,396.57H255.18a1.63,1.63,0,0,0-1.63,1.63v34.47a1.63,1.63,0,0,0,1.63,1.63h37.24a1.63,1.63,0,0,0,1.63-1.63V398.2A1.63,1.63,0,0,0,292.42,396.57Z" style="fill:none;stroke:#263238;stroke-linecap:round;stroke-linejoin:round;stroke-dasharray:5,3"></path><rect x="178.38" y="383.2" width="59.95" height="61.24" style="fill-opacity:0.7000000000000001;opacity:0.30000000000000004"></rect><path d="M185.88,390.08h-6.46a1.35,1.35,0,0,0-1.28,1.27l-.15,1.4a1.36,1.36,0,0,1-1.28,1.28h-1.19a1.38,1.38,0,0,0-1.29,1.45v37.45a1.38,1.38,0,0,0,1.29,1.46" style="fill:none;stroke:#263238;stroke-linecap:round;stroke-linejoin:round;stroke-dasharray:5,3"></path><path d="M171.81,390.35h-6.45a1.36,1.36,0,0,0-1.29,1.28l-.15,1.4a1.36,1.36,0,0,1-1.28,1.28h-1.19a1.38,1.38,0,0,0-1.29,1.45v37.45a1.38,1.38,0,0,0,1.29,1.45" style="fill:none;stroke:#263238;stroke-linecap:round;stroke-linejoin:round;stroke-dasharray:5,3"></path><path d="M157.75,390.63h-6.46A1.36,1.36,0,0,0,150,391.9l-.15,1.41a1.35,1.35,0,0,1-1.29,1.27h-1.18A1.38,1.38,0,0,0,146.1,396v37.45a1.38,1.38,0,0,0,1.29,1.45" style="fill:none;stroke:#263238;stroke-linecap:round;stroke-linejoin:round;stroke-dasharray:5,3"></path><path d="M143.68,390.9h-6.46a1.36,1.36,0,0,0-1.28,1.28l-.15,1.4a1.36,1.36,0,0,1-1.28,1.28h-1.19a1.38,1.38,0,0,0-1.29,1.45v37.45a1.38,1.38,0,0,0,1.29,1.46" style="fill:none;stroke:#263238;stroke-linecap:round;stroke-linejoin:round;stroke-dasharray:5,3"></path><path d="M227.82,396.57h-.51v-1.09A1.38,1.38,0,0,0,226,394H201.19a1.36,1.36,0,0,1-1.28-1.28l-.15-1.4a1.35,1.35,0,0,0-1.28-1.27H192a1.35,1.35,0,0,0-1.28,1.27l-.15,1.4A1.36,1.36,0,0,1,189.3,394h-1.18a1.38,1.38,0,0,0-1.29,1.45v37.45a1.38,1.38,0,0,0,1.29,1.46H226a1.27,1.27,0,0,0,.42-.09h1.38a1.62,1.62,0,0,0,1.62-1.63V398.2A1.62,1.62,0,0,0,227.82,396.57Z" style="fill:#F4E285"></path><path d="M189,432.67V398.2a1.63,1.63,0,0,1,1.63-1.63h36.73v-1.09A1.38,1.38,0,0,0,226,394H201.19a1.36,1.36,0,0,1-1.28-1.28l-.15-1.4a1.35,1.35,0,0,0-1.28-1.27H192a1.35,1.35,0,0,0-1.28,1.27l-.15,1.4A1.36,1.36,0,0,1,189.3,394h-1.18a1.38,1.38,0,0,0-1.29,1.45v37.45a1.38,1.38,0,0,0,1.29,1.46H226a1.27,1.27,0,0,0,.42-.09H190.58A1.63,1.63,0,0,1,189,432.67Z" style="fill:#fff;opacity:0.5"></path><path d="M227.82,396.57H190.58A1.63,1.63,0,0,0,189,398.2v34.47a1.63,1.63,0,0,0,1.63,1.63h37.24a1.62,1.62,0,0,0,1.62-1.63V398.2A1.62,1.62,0,0,0,227.82,396.57Z" style="fill:#fff;opacity:0.7000000000000001"></path><path d="M208.71,424.57c-5.22,0-9.66-7.39-10.65-9.16a26.83,26.83,0,0,1,5.33-6.81l-.59-.91a27.83,27.83,0,0,0-5.56,7.34.83.83,0,0,0,0,.75c.21.41,5.19,10,11.47,10a8.15,8.15,0,0,0,4.68-1.7l-.6-.93A7.36,7.36,0,0,1,208.71,424.57Z" style="fill:#F4E285"></path><path d="M220.18,415c-.21-.41-5.19-10-11.47-10a8.14,8.14,0,0,0-4.68,1.69l.6.93a7.36,7.36,0,0,1,4.08-1.41c5.22,0,9.66,7.4,10.65,9.17a26.89,26.89,0,0,1-5.33,6.8l.58.91a28,28,0,0,0,5.57-7.34A.89.89,0,0,0,220.18,415Z" style="fill:#F4E285"></path><path d="M208.71,420.62a2.62,2.62,0,0,0,1.87-.88l-.57-.89a1.92,1.92,0,0,1-1.3.55c-1.42,0-2.58-1.79-2.58-4a5.82,5.82,0,0,1,.35-2l-.57-.88a7.31,7.31,0,0,0-.57,2.9C205.34,418.28,206.85,420.62,208.71,420.62Z" style="fill:#F4E285"></path><path d="M208.71,410.19a2.59,2.59,0,0,0-1.87.89l.57.88a1.91,1.91,0,0,1,1.3-.55c1.42,0,2.58,1.79,2.58,4a5.58,5.58,0,0,1-.36,2l.57.89a7.35,7.35,0,0,0,.57-2.9C212.07,412.53,210.56,410.19,208.71,410.19Z" style="fill:#F4E285"></path><path d="M201.2,403.17a.35.35,0,0,0-.28.18.86.86,0,0,0,0,.85l15,23.27a.31.31,0,0,0,.56,0,.88.88,0,0,0,0-.86l-15-23.26A.35.35,0,0,0,201.2,403.17Z" style="fill:#F4E285"></path><path d="M227.31,396.57v-1.09A1.38,1.38,0,0,0,226,394H201.19a1.36,1.36,0,0,1-1.28-1.28l-.15-1.4a1.35,1.35,0,0,0-1.28-1.27H192a1.35,1.35,0,0,0-1.28,1.27l-.15,1.4A1.36,1.36,0,0,1,189.3,394h-1.18a1.38,1.38,0,0,0-1.29,1.45v37.45a1.38,1.38,0,0,0,1.29,1.46" style="fill:none;stroke:#263238;stroke-linecap:round;stroke-linejoin:round;stroke-dasharray:5,3"></path><path d="M227.82,396.57H190.58A1.63,1.63,0,0,0,189,398.2v34.47a1.63,1.63,0,0,0,1.63,1.63h37.24a1.62,1.62,0,0,0,1.62-1.63V398.2A1.62,1.62,0,0,0,227.82,396.57Z" style="fill:none;stroke:#263238;stroke-linecap:round;stroke-linejoin:round;stroke-dasharray:5,3"></path><path d="M129.62,390.9h-6.46a1.36,1.36,0,0,0-1.28,1.28l-.16,1.4a1.35,1.35,0,0,1-1.28,1.28h-1.18a1.37,1.37,0,0,0-1.29,1.45v37.45a1.38,1.38,0,0,0,1.29,1.46" style="fill:none;stroke:#263238;stroke-linecap:round;stroke-linejoin:round;stroke-dasharray:5,3"></path><rect x="108.49" y="114.28" width="63.76" height="339.23" style="fill:#fff;opacity:0.5"></rect><rect x="108.49" y="114.28" width="199.43" height="339.23" style="fill:none;stroke:#263238;stroke-linecap:round;stroke-linejoin:round;stroke-dasharray:5,3"></rect></g><g id="freepik--Padlock--inject-43"><rect x="230.72" y="164.26" width="69.41" height="63.98" rx="5.65" style="fill:#263238;stroke:#263238;stroke-miterlimit:10"></rect><rect x="242.12" y="164.26" width="58.01" height="63.98" rx="5.65" style="fill:#263238"></rect><g style="clip-path:url(#freepik--clip-path--inject-43)"><rect x="242.12" y="164.26" width="58.01" height="63.98" rx="5.65" style="fill:#fff;opacity:0.2"></rect></g><rect x="242.12" y="164.26" width="58.01" height="63.98" rx="5.65" style="fill:none;stroke:#263238;stroke-miterlimit:10"></rect><path d="M271.12,212c-9,0-16.59-12.7-18.29-15.74A46.7,46.7,0,0,1,262,184.57L261,183a48.11,48.11,0,0,0-9.55,12.6,1.48,1.48,0,0,0,0,1.3c.36.7,8.9,17.17,19.69,17.17a14,14,0,0,0,8-2.91l-1-1.6A12.69,12.69,0,0,1,271.12,212Z" style="fill:#F4E285"></path><path d="M290.82,195.6c-.36-.7-8.91-17.17-19.7-17.17a14.07,14.07,0,0,0-8,2.91l1,1.6a12.66,12.66,0,0,1,7-2.43c9,0,16.59,12.7,18.29,15.74a46.22,46.22,0,0,1-9.16,11.68l1,1.57a48.51,48.51,0,0,0,9.56-12.6A1.55,1.55,0,0,0,290.82,195.6Z" style="fill:#F4E285"></path><path d="M271.12,205.2a4.48,4.48,0,0,0,3.22-1.52l-1-1.51a3.31,3.31,0,0,1-2.24.94c-2.44,0-4.43-3.08-4.43-6.86a10,10,0,0,1,.61-3.46l-1-1.52a12.78,12.78,0,0,0-1,5C265.35,201.18,267.94,205.2,271.12,205.2Z" style="fill:#F4E285"></path><path d="M271.12,187.3a4.46,4.46,0,0,0-3.21,1.52l1,1.51a3.31,3.31,0,0,1,2.23-.94c2.45,0,4.43,3.08,4.43,6.86a9.73,9.73,0,0,1-.61,3.46l1,1.52a12.6,12.6,0,0,0,1-5C276.9,191.32,274.31,187.3,271.12,187.3Z" style="fill:#F4E285"></path><path d="M258.23,175.24a.6.6,0,0,0-.48.3,1.5,1.5,0,0,0,0,1.48L283.54,217a.53.53,0,0,0,.95,0,1.5,1.5,0,0,0,0-1.48l-25.78-39.94A.59.59,0,0,0,258.23,175.24Z" style="fill:#F4E285"></path><path d="M286.81,151.58v9.82h-7.09v-9.82a14.77,14.77,0,0,0-14.3-14.75H265a14.78,14.78,0,0,0-14.76,14.76v9.82h-7.09v-9.82a21.85,21.85,0,0,1,43.7,0Z" style="fill:#757575"></path><g style="clip-path:url(#freepik--clip-path-2--inject-43)"><path d="M245.42,151.17c-.46,0-1.4-.79-.87-3.77,1-5.85,7.6-16.57,20.41-16.57,12.63,0,17.28,11.31,17.28,11.31a20.14,20.14,0,0,0-17-8.94C249.89,133.2,248.4,151.17,245.42,151.17Z" style="fill:#fff;opacity:0.5"></path><path d="M279.72,161.4v-9.82a14.77,14.77,0,0,0-14.3-14.75s5.68-1.61,11.6,3.56S282.24,160,282.24,160H283v-8.85l1.23,10.23Z" style="fill-opacity:0.7000000000000001;opacity:0.30000000000000004"></path></g><path d="M286.81,151.58v9.82h-7.09v-9.82a14.77,14.77,0,0,0-14.3-14.75H265a14.78,14.78,0,0,0-14.76,14.76v9.82h-7.09v-9.82a21.85,21.85,0,0,1,43.7,0Z" style="fill:none;stroke:#263238;stroke-linecap:round;stroke-linejoin:round"></path></g><g id="freepik--Character--inject-43"><path d="M317.37,213.62l-16.8-11.54s-1.6-1.81-3.06-3.17a10.61,10.61,0,0,0-4.92-2.74c-6.64,0-19.47-2-19.47-2s-.64,1.39,1.4,2.12,8.66,2,8.66,2-2.78,2.06-1.31,3.47c0,0-1.56,1.39,1.28,3.62a4.9,4.9,0,0,0,.51,1.63c.82.95,2.66,1.67,3.61.8,0,0,5.27,1.93,9.18,1.55l17,12.18Z" style="fill:#fff;stroke:#263238;stroke-linecap:round;stroke-linejoin:round"></path><path d="M285.11,199a1.74,1.74,0,0,1,0,1.29" style="fill:none;stroke:#263238;stroke-linecap:round;stroke-linejoin:round"></path><path d="M284,200a2.88,2.88,0,0,1,1.95,1.13" style="fill:none;stroke:#263238;stroke-linecap:round;stroke-linejoin:round"></path><path d="M281.87,201.75c.56,1,3.5,2.38,4.71,2" style="fill:none;stroke:#263238;stroke-linecap:round;stroke-linejoin:round"></path><path d="M283.15,205.37a13.74,13.74,0,0,0,1.36.69c2.85,1.07,2.89-.82,2.89-.82" style="fill:none;stroke:#263238;stroke-linecap:round;stroke-linejoin:round"></path><path d="M287.27,207.8a9.37,9.37,0,0,0,1.24-1.3c.3-.76-.76-1.38-.76-1.38" style="fill:none;stroke:#263238;stroke-linecap:round;stroke-linejoin:round"></path><path d="M292,197.54a3.74,3.74,0,0,1-1.71,1.09c-1,.22-4,.87-4.3,2s1.44,4.6,1.44,4.6,2,.21,1.36-2.7a4.79,4.79,0,0,1,2.5,1.71c1.39,1.56,3.17,2.83,4.22,2.21" style="fill:#fff;stroke:#263238;stroke-linecap:round;stroke-linejoin:round"></path><path d="M393.2,429.49s.59,10.71-1.24,12.79-6.92,6.24-6.82,7.86a15.1,15.1,0,0,0,.75,3.42s8.92-.55,11.76-1.32c6.1-1.65,11.05-7.58,11.05-7.58l8-3.28,1.65-2.73s-5.5-9.43-10.8-12.78S393.2,429.49,393.2,429.49Z" style="fill:#263238"></path><path d="M355.24,288.91s35.49,142.39,36.48,142.22,16.48.31,16.48.31l3.63-3-2-2.26.66-6.39L403.92,391s-6.27-28.71-6.27-34.05-3.29-43.53-1.64-52.35S355.24,288.91,355.24,288.91Z" style="fill:#263238"></path><path d="M390.71,451.91,388,453.56h-7.48l-2.64-.66-4,.66H361.7c-1.65,0-7.42-1.65-7.42-1.65s.27-1,.63-2.23a28.18,28.18,0,0,1,1-3c.66-1.49,7.09-2.81,9.68-3.79a3.49,3.49,0,0,0,1.59-1.63,22.26,22.26,0,0,0,1.92-6.62s14.83-4.45,18,1a29.66,29.66,0,0,1,2.85,9.28c.29,1.77.48,3.41.6,4.66C390.67,451,390.71,451.91,390.71,451.91Z" style="fill:#F4E285"></path><g style="clip-path:url(#freepik--clip-path-3--inject-43)"><path d="M389.93,444.86H372.49s-1-1.29-1.71-2a16.07,16.07,0,0,0-3.58-1.63,22.26,22.26,0,0,0,1.92-6.62s14.83-4.45,18,1A29.66,29.66,0,0,1,389.93,444.86Z" style="fill-opacity:0.7000000000000001;opacity:0.2"></path><path d="M390.71,451.91,388,453.56h-7.48l-2.64-.66-4,.66H361.7c-1.65,0-7.42-1.65-7.42-1.65s.27-1,.63-2.23l11.14,2.4,8.91-.7,2.77-1.33,5,1s4.58-.76,7.8-1.55C390.67,451,390.71,451.91,390.71,451.91Z" style="fill:#fff;opacity:0.7000000000000001"></path></g><path d="M390.71,451.91,388,453.56h-7.48l-2.64-.66-4,.66H361.7c-1.65,0-7.42-1.65-7.42-1.65s.27-1,.63-2.23a28.18,28.18,0,0,1,1-3c.66-1.49,7.09-2.81,9.68-3.79a3.49,3.49,0,0,0,1.59-1.63,22.26,22.26,0,0,0,1.92-6.62s14.83-4.45,18,1a29.66,29.66,0,0,1,2.85,9.28c.29,1.77.48,3.41.6,4.66C390.67,451,390.71,451.91,390.71,451.91Z" style="fill:none;stroke:#263238;stroke-linecap:round;stroke-linejoin:round"></path><path d="M361.15,444.22s5.1.24,5.7,1.43,6.92-2.43,6.92-2.43l2.45-5.29" style="fill:none;stroke:#263238;stroke-linecap:round;stroke-linejoin:round"></path><path d="M365.61,442.85a8.34,8.34,0,0,1,3.61,1" style="fill:none;stroke:#263238;stroke-linecap:round;stroke-linejoin:round"></path><path d="M367.42,440.82s3.8-.22,5.07,1.09" style="fill:none;stroke:#263238;stroke-linecap:round;stroke-linejoin:round"></path><path d="M358.24,446.64s4.85,1.68,7.37,1.78,3.3-.1,4.34,3" style="fill:none;stroke:#263238;stroke-linecap:round;stroke-linejoin:round"></path><path d="M354.79,450.05s10.87,2,11.26,2,8.91-.7,8.91-.7l2.77-1.33s4.07.89,5,1a40.56,40.56,0,0,0,5.78-1" style="fill:none;stroke:#263238;stroke-linecap:round;stroke-linejoin:round"></path><path d="M382.73,448.62s2.51-3.47,2.41-3.76,3.37-1,3.37-1" style="fill:none;stroke:#263238;stroke-linecap:round;stroke-linejoin:round"></path><path d="M397.65,284.74v18.35l-5.06,19.39-1.86,39.28-2.21,7.65,2.87,25.92-.57,35.89,1.85,4.36-1.79,5.62-23.6-2.47,2-6.25-2.62-5.1.68-9.47-2.16-49.59-2-38.95s-4.88-21.07-8.4-42.76Z" style="fill:#757575"></path><g style="clip-path:url(#freepik--clip-path-4--inject-43)"><path d="M397.65,290.91v2.77l-8.07.8-1.27,6.31s-6.77-3.74-7.41-5l-19.18,1.67,1.47,5.13,9-1.84-6.44,3.42,7.56,1.91-10.12,1.66,1.08,4L363,328.41c-.85-3.76-4.05-18.12-6.89-34.21,6.7-1,13.77-2.11,14-2.29S386.44,291.21,397.65,290.91Z" style="fill-opacity:0.7000000000000001;opacity:0.30000000000000004"></path></g><path d="M397.65,284.74v18.35l-5.06,19.39-1.86,39.28-2.21,7.65,2.87,25.92-.57,35.89,1.85,4.36-1.79,5.62-23.6-2.47,2-6.25-2.62-5.1.68-9.47-2.16-49.59-2-38.95s-4.88-21.07-8.4-42.76Z" style="fill:none;stroke:#263238;stroke-linecap:round;stroke-linejoin:round"></path><polyline points="363.19 329.37 361.71 305.39 358.31 300.79" style="fill:none;stroke:#263238;stroke-linecap:round;stroke-linejoin:round"></polyline><path d="M377.87,284.74s.83,10.07,4.78,13.2a39.73,39.73,0,0,1,4.78,4.12" style="fill:none;stroke:#263238;stroke-linecap:round;stroke-linejoin:round"></path><path d="M389.58,287.39l-1.16,15.7-3,19.41s-1,11.71-1.92,14.51-.88,9.56-.88,10.88,1.93,12.18.88,15.08-1.87,3.22-.88,5.36-.44,10.55-.44,10.55" style="fill:none;stroke:#263238;stroke-linecap:round;stroke-linejoin:round"></path><path d="M382.21,385.15a73.42,73.42,0,0,0,0,12.24,50,50,0,0,1-.26,11c-.29,2.64,1.58,11.54,1.58,11.54v6.76" style="fill:none;stroke:#263238;stroke-linecap:round;stroke-linejoin:round"></path><polyline points="370.78 432.88 389.57 435.58 379.02 432.48" style="fill:none;stroke:#263238;stroke-linecap:round;stroke-linejoin:round"></polyline><polyline points="394.22 294.48 394.22 302.06 393.04 305.39 396.01 305.39" style="fill:none;stroke:#263238;stroke-linecap:round;stroke-linejoin:round"></polyline><line x1="363.19" y1="304.21" x2="369.79" y2="302.06" style="fill:none;stroke:#263238;stroke-linecap:round;stroke-linejoin:round"></line><line x1="361.72" y1="305.39" x2="369.79" y2="306.84" style="fill:none;stroke:#263238;stroke-linecap:round;stroke-linejoin:round"></line><polyline points="358.31 295.47 359.9 300.79 360.75 303.09" style="fill:none;stroke:#263238;stroke-linecap:round;stroke-linejoin:round"></polyline><path d="M390.37,194.54s16.84,11.67,17.5,15.85,10.88,45.48,9.56,48.73-15.05,14.24-15.05,14.24L404,285.59l-2.3,2.27.31,3.63-47.52,4.34L351.81,290,350,289s1.13-23.26,2.77-28.22.66-24.6.66-24.6S331.38,243,326.77,241,302,217.76,301.71,217.15a11.94,11.94,0,0,1-.66-2.21l-2-2.32a13.35,13.35,0,0,0,2.8-5.43c1-3.55,2.15-4.82,2.15-4.82l3.62,2.87s.42-.52,3.38-.12,20,13.07,21,14.39S352.76,198.26,390.37,194.54Z" style="fill:#F4E285"></path><g style="clip-path:url(#freepik--clip-path-5--inject-43)"><path d="M338.79,240l6.56-5s-.79-14.38,0-14.21,4.34,7.49,4.34,7.49l1.6-8.77,1.09,10.87.52,5.91C351,236.86,344.79,238.71,338.79,240Z" style="fill-opacity:0.7000000000000001;opacity:0.2"></path><polygon points="401.65 287.86 401.96 291.49 377.31 293.74 384.65 290.63 381.85 288.91 401.65 287.86" style="fill-opacity:0.7000000000000001;opacity:0.2"></polygon><path d="M402.38,273.36l1.41,11c-3-.31-7-.69-7.78-.64-1.31.09-13.93-12.54-14.13-13.48s.77-11.27.77-11.27l2.44-.58L392.45,245s-4.44,1-5,.16,5-9.07,5-9.07c-.71-1.63-1.06-8.15-1.06-8.15l3.79,8.15,3.59,12.94-4.62,7.8-6.72,4.21,4,17.59a114.12,114.12,0,0,0,18-11.15C405.78,270.64,402.38,273.36,402.38,273.36Z" style="fill-opacity:0.7000000000000001;opacity:0.2"></path><path d="M377.65,209.9s-6.85,3.46-9.09,1.48-3.61-5.7-3.94-4.65a8.43,8.43,0,0,0,0,2.94s.15.72-2.26-2.94a8.78,8.78,0,0,1-1.26-4.8c1.12-.46,2.27-.93,3.46-1.37.29,2.36,5.85,8.06,7.38,8.85S377.65,209.9,377.65,209.9Z" style="fill-opacity:0.7000000000000001;opacity:0.2"></path><path d="M396.78,199.26c-5.29,3.25-13.45,2.23-13.45,2.23a23.92,23.92,0,0,0,6.47-6.89l.57-.06S393.31,196.58,396.78,199.26Z" style="fill-opacity:0.7000000000000001;opacity:0.2"></path><path d="M307.34,206.73s-1.42,5.28-4.32,7.34l-2.54.2-1.41-1.65s.13-.14.35-.41a14.65,14.65,0,0,0,3.73-2.71C304.34,207.82,307.34,206.73,307.34,206.73Z" style="fill-opacity:0.7000000000000001;opacity:0.2"></path><path d="M359.53,248.24S380.22,238.75,380,239s-16.86,14-20.43,14S359.53,248.24,359.53,248.24Z" style="fill-opacity:0.7000000000000001;opacity:0.2"></path><path d="M386.13,283.89,351.81,290,350,289s.16-3.35.45-7.8h0l19.3-6,6.43-11.27v7.62s7.44,7.21,8.87,9.07Z" style="fill-opacity:0.7000000000000001;opacity:0.2"></path></g><path d="M390.37,194.54s16.84,11.67,17.5,15.85,10.88,45.48,9.56,48.73-15.05,14.24-15.05,14.24L404,285.59l-2.3,2.27.31,3.63-47.52,4.34L351.81,290,350,289s1.13-23.26,2.77-28.22.66-24.6.66-24.6S331.38,243,326.77,241,302,217.76,301.71,217.15a11.94,11.94,0,0,1-.66-2.21l-2-2.32a13.35,13.35,0,0,0,2.8-5.43c1-3.55,2.15-4.82,2.15-4.82l3.62,2.87s.42-.52,3.38-.12,20,13.07,21,14.39S352.76,198.26,390.37,194.54Z" style="fill:none;stroke:#263238;stroke-linecap:round;stroke-linejoin:round"></path><path d="M364,180a34.31,34.31,0,0,0,.75,14.54c2.11,8.48,6.4,12.19,6.4,12.19s6.37-2.17,7.36-5.79,0-20,0-20Z" style="fill:#F4E285"></path><g style="clip-path:url(#freepik--clip-path-6--inject-43)"><path d="M364,180a34.31,34.31,0,0,0,.75,14.54c2.11,8.48,6.4,12.19,6.4,12.19s6.37-2.17,7.36-5.79,0-20,0-20Z" style="fill-opacity:0.7000000000000001;opacity:0.5"></path></g><path d="M364,180a34.31,34.31,0,0,0,.75,14.54c2.11,8.48,6.4,12.19,6.4,12.19s6.37-2.17,7.36-5.79,0-20,0-20Z" style="fill:none;stroke:#263238;stroke-linecap:round;stroke-linejoin:round"></path><path d="M388.31,192.6s-2.36,7.9-6.43,10.09-11.48,4.73-8.83.22c1.23-2.08.92-5.41.22-8.37a39.48,39.48,0,0,0-2.1-6.35l.55-.5,10.17-9.17Z" style="fill:#fff;stroke:#263238;stroke-linecap:round;stroke-linejoin:round"></path><path d="M380,184.12s-2.17,8.91-6.69,10.42a39.48,39.48,0,0,0-2.1-6.35l.55-.5Z" style="fill:#263238"></path><path d="M374,154.21c9.13.66,11.73,9.42,10.94,15.51-1.65,12.7-7.08,22-14.34,21.54s-10.55-14.78-9.38-24.58C362.1,159.47,367,153.7,374,154.21Z" style="fill:#fff;stroke:#263238;stroke-linecap:round;stroke-linejoin:round"></path><path d="M373.91,168s3.63-1.1,6,1.64" style="fill:none;stroke:#263238;stroke-linecap:round;stroke-linejoin:round"></path><path d="M365.78,202.69s-1.81,5.06-1,7.7" style="fill:none;stroke:#263238;stroke-linecap:round;stroke-linejoin:round"></path><path d="M377.65,173.19c0,.63-.32,1.14-.71,1.14s-.72-.51-.72-1.14.32-1.14.72-1.14S377.65,172.56,377.65,173.19Z" style="fill:#263238"></path><path d="M367.21,172.73c0,.63-.32,1.14-.71,1.14s-.72-.51-.72-1.14.32-1.14.72-1.14S367.21,172.1,367.21,172.73Z" style="fill:#263238"></path><path d="M367.21,167.75s-2.86-1.7-4.89,0" style="fill:none;stroke:#263238;stroke-linecap:round;stroke-linejoin:round"></path><path d="M368.09,172.47a21.14,21.14,0,0,1-1.59,4.73c-.77,1.1,1.59,2.14,1.59,2.14" style="fill:none;stroke:#263238;stroke-linecap:round;stroke-linejoin:round"></path><path d="M367.81,182.86s4-.44,4.13.77-3.25,1.15-3.85,0" style="fill:none;stroke:#263238;stroke-linecap:round;stroke-linejoin:round"></path><path d="M382.49,157s-8.24-5.11-12.61-5.27-10,6.75-10,6.75h2.42s-3.41,3.3-3.41,6.43l3.41-3.62,1.7,3s1.33-3.62,7.92-4.12v2.31s5.85-2.05,9.06-1.15l-1,2.14,4.42-.74S385.62,160.16,382.49,157Z" style="fill:#263238"></path><path d="M390.37,194.54s6.51-27.23,3.22-34.16-9-6.92-9-6.92-13.12-4-14.22-3.85-5.75,5.24-4.62,4.57c7.37-4.33,18.84,7.85,18.84,7.85-1.27,4.07-5.43,30.33-7,33.41s-5.27,9.34-5.27,9.34a51.15,51.15,0,0,1-5.16-4.06c-1.54-1.54-3.2-13.41-3.2-13.41s0,13,.75,15.17,7.17,7.91,7.17,7.91a65.45,65.45,0,0,0,8-.88" style="fill:#F4E285;stroke:#263238;stroke-linecap:round;stroke-linejoin:round"></path><path d="M353.47,236.13s-4.06-17.83-1.1-24.2" style="fill:none;stroke:#263238;stroke-linecap:round;stroke-linejoin:round"></path><path d="M332,219.51s.77,5.82-1.1,8.46" style="fill:none;stroke:#263238;stroke-linecap:round;stroke-linejoin:round"></path><path d="M390.37,194.54s-5.47,6.51-8.49,8.15" style="fill:none;stroke:#263238;stroke-linecap:round;stroke-linejoin:round"></path><path d="M402.38,273.36l-12,5.79s-8.54-8.43-8.49-10,0-5.46,0-5.46,11.27-4.87,13.25-7.94,3.95-5.59,3.95-5.59,6.6,1.63,7.47,2.51" style="fill:none;stroke:#263238;stroke-linecap:round;stroke-linejoin:round"></path><path d="M405.46,247.24c-.87.26-6.38,2.95-6.38,2.95s-4.23-15.51-4.86-17.27,3.3-15.83,5.62-17.37" style="fill:none;stroke:#263238;stroke-linecap:round;stroke-linejoin:round"></path><path d="M394.52,233.88c-4.34-2.91-4.15-11.16-4.15-11.16" style="fill:none;stroke:#263238;stroke-linecap:round;stroke-linejoin:round"></path><polyline points="394.52 280.81 394.15 281.97 390.37 279.15 381.88 269.18 381.88 263.72 382.65 258.98 383.53 260.74" style="fill:none;stroke:#263238;stroke-linecap:round;stroke-linejoin:round"></polyline><polyline points="355.24 258.98 365.17 258.98 381.88 256.56" style="fill:none;stroke:#263238;stroke-linecap:round;stroke-linejoin:round"></polyline><path d="M387.43,236.13s-20.66,17.8-25.71,17.8" style="fill:none;stroke:#263238;stroke-linecap:round;stroke-linejoin:round"></path><path d="M391.39,284.74s-33.18,5.48-36.15,5.89" style="fill:none;stroke:#263238;stroke-linecap:round;stroke-linejoin:round"></path><line x1="394.22" y1="245.19" x2="388.31" y2="257.77" style="fill:none;stroke:#263238;stroke-linecap:round;stroke-linejoin:round"></line><path d="M352.38,232.87s-4.29-7.3-5.39-10.15" style="fill:none;stroke:#263238;stroke-linecap:round;stroke-linejoin:round"></path><path d="M307.64,205.24s-.22,5.88-3.07,7.27" style="fill:none;stroke:#263238;stroke-linecap:round;stroke-linejoin:round"></path></g><g id="freepik--Floor--inject-43"><line x1="39.61" y1="453.56" x2="456.85" y2="453.56" style="fill:none;stroke:#263238;stroke-linecap:round;stroke-linejoin:round"></line></g></svg>