<svg xmlns="http://www.w3.org/2000/svg" viewBox="0 0 500 500"><g id="freepik--background-complete--inject-459"><path d="M39,400.88c-1.75-.51-3.84-.78-5.2.42a4.1,4.1,0,0,0-.67,4.66,12.12,12.12,0,0,0,3.23,3.84,15.17,15.17,0,0,0-10.88-2c-1.23.24-2.65.89-2.8,2.14a3.26,3.26,0,0,0,1.07,2.36,38.32,38.32,0,0,0,7.94,6.93A11,11,0,0,0,26.87,421c-1.36,1.06-2.15,3.06-1.3,4.56a5.26,5.26,0,0,0,2.15,1.8,37.34,37.34,0,0,0,17.45,4.49c3.22,0,6.59-.42,9.23-2.27s5.43-4.79,4.26-7.79l.19.88A28.94,28.94,0,0,0,39,400.88Z" style="fill:#ebebeb"></path><path d="M58.7,424.46c0,.07-1.43-.68-3.78-1.68a48.78,48.78,0,0,0-9.5-2.91,45,45,0,0,0-9.9-.8c-2.55.09-4.12.32-4.13.23a4.55,4.55,0,0,1,1.09-.25,29.11,29.11,0,0,1,3-.34,39.46,39.46,0,0,1,10,.64,42,42,0,0,1,9.55,3.1c1.16.54,2.08,1,2.7,1.39A4,4,0,0,1,58.7,424.46Z" style="fill:#e0e0e0"></path><path d="M46.67,420a8.19,8.19,0,0,1-1.8-1.32c-1.07-.88-2.49-2.15-4-3.62s-2.79-2.89-3.69-3.94a9.13,9.13,0,0,1-1.35-1.78c.11-.1,2.41,2.41,5.4,5.35S46.77,419.86,46.67,420Z" style="fill:#e0e0e0"></path><path d="M475.47,340c.48-2.77.52-6-1.57-7.91-1.93-1.74-5-1.53-7.28-.2s-3.81,3.5-5.31,5.63a23.5,23.5,0,0,0,1.13-17.05c-.6-1.86-1.84-3.93-3.79-3.93-1.38,0-2.5,1.05-3.43,2.06A59.14,59.14,0,0,0,446,332.05c-.8-2.55-1.66-5.19-3.54-7.09s-5.08-2.76-7.24-1.19a7.86,7.86,0,0,0-2.37,3.62A57.64,57.64,0,0,0,429,355c.53,4.95,1.82,10,5.12,13.78s8.31,7.49,12.72,5.16l-1.33.45A44.76,44.76,0,0,0,475.47,340Z" style="fill:#ebebeb"></path><path d="M442.74,374.46a10.93,10.93,0,0,1,.54-1.64c.38-1,.89-2.55,1.46-4.44s1.16-4.17,1.68-6.73a75.12,75.12,0,0,0,1.17-8.39,73.87,73.87,0,0,0,.12-8.48c-.15-2.6-.39-4.94-.7-6.89-.12-1-.32-1.85-.45-2.63s-.28-1.43-.41-2a10.46,10.46,0,0,1-.31-1.69,12.63,12.63,0,0,1,.51,1.64c.16.54.33,1.19.49,2s.38,1.65.53,2.63a58.22,58.22,0,0,1,.81,6.93,66.38,66.38,0,0,1-.08,8.54,69.21,69.21,0,0,1-1.21,8.45,63.93,63.93,0,0,1-1.8,6.74c-.62,1.88-1.18,3.39-1.62,4.4A10.8,10.8,0,0,1,442.74,374.46Z" style="fill:#e0e0e0"></path><path d="M447.5,355.18a3,3,0,0,1,.43-.82c.31-.51.77-1.24,1.37-2.12,1.18-1.78,2.88-4.18,4.88-6.74s3.93-4.8,5.36-6.38c.72-.78,1.31-1.41,1.73-1.83s.66-.65.69-.62a24.3,24.3,0,0,1-2.14,2.69c-1.36,1.64-3.23,3.9-5.23,6.46s-3.73,4.91-5,6.63A26.9,26.9,0,0,1,447.5,355.18Z" style="fill:#e0e0e0"></path><path d="M477,54.52c.11-1.55-.06-3.34-1.31-4.25a3.5,3.5,0,0,0-4,.31A10.15,10.15,0,0,0,469,54a13,13,0,0,0-.37-9.44c-.43-1-1.23-2-2.31-1.94a2.8,2.8,0,0,0-1.76,1.33,33.38,33.38,0,0,0-4.31,7.91,9.27,9.27,0,0,0-2.35-3.69,3.22,3.22,0,0,0-4.05-.24A4.39,4.39,0,0,0,452.8,50a31.9,31.9,0,0,0-.51,15.38c.58,2.69,1.58,5.42,3.61,7.28s5,3.64,7.29,2.11l-.7.32A24.73,24.73,0,0,0,477,54.52Z" style="fill:#ebebeb"></path><path d="M461,75.34c-.08,0,.28-1.33.67-3.48a42.4,42.4,0,0,0,.66-8.45,39.49,39.49,0,0,0-1.17-8.4c-.54-2.11-1-3.37-.93-3.41a3.87,3.87,0,0,1,.42.86,20.49,20.49,0,0,1,.86,2.46,33.36,33.36,0,0,1,1.34,8.47,35.72,35.72,0,0,1-.82,8.55c-.24,1.07-.48,1.93-.67,2.51A3.29,3.29,0,0,1,461,75.34Z" style="fill:#e0e0e0"></path><path d="M462.46,64.47a28.56,28.56,0,0,1,3-5.77,28.52,28.52,0,0,1,3.86-5.24c.13.09-1.52,2.48-3.42,5.51S462.6,64.54,462.46,64.47Z" style="fill:#e0e0e0"></path><path d="M461.32,381.6a37.26,37.26,0,0,0-22.86-1.4,37,37,0,0,0,16.38,14.3c6.73,3,16.89,3.06,24.12,1.7A37.25,37.25,0,0,0,461.32,381.6Z" style="fill:#ebebeb"></path><path d="M468.45,391.53a5.63,5.63,0,0,1-1.15-.51c-.81-.41-1.84-.91-3.06-1.51-2.59-1.26-6.22-2.89-10.34-4.41s-7.95-2.62-10.73-3.34l-3.31-.83a5.92,5.92,0,0,1-1.21-.35,5.47,5.47,0,0,1,1.25.15c.8.13,1.94.35,3.35.67a88.06,88.06,0,0,1,21.16,7.78c1.28.67,2.3,1.24,3,1.66A6.33,6.33,0,0,1,468.45,391.53Z" style="fill:#e0e0e0"></path><path d="M157.57,55.13c-2.39-5.25-7.06-11.63-11.77-15-14.39-10.13-32.06-10.4-47-5.78-4.8.87-9.79,3.28-14.48,6.45h0A70,70,0,0,0,67.17,57.6c-7.45,10.66-8.07,26-.55,36.6s23.11,15,34.6,8.89S118.5,82.9,130.65,78.68c8.39-2.92,19.08-.82,25.12-7.35C159.68,67.1,160,60.37,157.57,55.13Z" style="fill:#ebebeb"></path><circle cx="51.17" cy="128.22" r="15.6" transform="translate(-44.47 28.66) rotate(-22.09)" style="fill:#ebebeb"></circle><circle cx="437.5" cy="430.97" r="15.6" transform="translate(-81.95 758.56) rotate(-76.81)" style="fill:#ebebeb"></circle><circle cx="253.16" cy="432.73" r="31.19" style="fill:#ebebeb"></circle></g><g id="freepik--Plants--inject-459"><path d="M482.16,102.43a14.23,14.23,0,0,0-5.9.4,18,18,0,0,0,9.48-9c.63-1.35,1-3.15-.08-4.17a3.88,3.88,0,0,0-3-.62,46,46,0,0,0-12.14,2.72,13,13,0,0,0,1.7-5.8c-.07-2-1.42-4.19-3.45-4.43a6,6,0,0,0-3.21.8A44.15,44.15,0,0,0,449.1,95.84c-2.27,3-4.19,6.58-4.28,10.38s.77,8.52,4.45,9.5l-1-.44a34.18,34.18,0,0,0,34.61-3.71c1.7-1.3,3.42-3.1,3.23-5.24C486,104.35,484.1,102.86,482.16,102.43Z" style="fill:#FFDC2F"></path><path d="M476.81,102.72a6.07,6.07,0,0,1-1.21.38l-3.33.91c-2.8.79-6.64,2-10.81,3.53s-7.89,3.09-10.58,4.2l-3.2,1.31a5,5,0,0,1-1.2.41,7.12,7.12,0,0,1,1.12-.6c.73-.36,1.8-.86,3.13-1.46,2.66-1.2,6.37-2.8,10.55-4.35a104.38,104.38,0,0,1,10.9-3.4c1.42-.34,2.57-.6,3.37-.75A5.55,5.55,0,0,1,476.81,102.72Z" style="fill:#263238"></path><path d="M470.82,91.16a6.67,6.67,0,0,1-.69,1.11C469.67,93,469,94,468,95.16a71.74,71.74,0,0,1-7.94,8.67,70.72,70.72,0,0,1-9.28,7.22c-1.26.82-2.3,1.45-3,1.86a6.07,6.07,0,0,1-1.17.59,6.85,6.85,0,0,1,1.06-.76c.71-.46,1.71-1.14,2.95-2a84.94,84.94,0,0,0,9.13-7.3,86.48,86.48,0,0,0,8-8.51c.95-1.16,1.7-2.11,2.22-2.78A6.16,6.16,0,0,1,470.82,91.16Z" style="fill:#263238"></path><g style="opacity:0.30000000000000004"><path d="M448.83,112.3c8.78-3,17.14-9.35,20-18.29C462.49,101.67,456,108.51,448.83,112.3Z"></path></g><path d="M427.44,39c-2.56-2-5.86-3.91-8.95-2.83-2.87,1-4.39,4.3-4.3,7.33S415.64,49.31,417,52a27.38,27.38,0,0,0-16.79-10.71c-2.23-.43-5-.32-6.14,1.67-.77,1.4-.33,3.14.19,4.66a69.56,69.56,0,0,0,8.53,17c-3.05-.61-6.24-1.21-9.22-.36s-5.68,3.65-5.28,6.73a9.29,9.29,0,0,0,2.37,4.46,67.19,67.19,0,0,0,26,19.36C422,97,428,98.58,433.62,97.29S445.94,93,446,87.2l-.29,1.6A52.17,52.17,0,0,0,427.44,39Z" style="fill:#FFDC2F"></path><path d="M444.28,91.69s-.15-.12-.38-.37l-1-1.11c-.42-.48-.93-1.08-1.57-1.74S440,87,439.2,86.22c-1.6-1.65-3.6-3.53-5.92-5.5a90.36,90.36,0,0,0-7.93-5.9,82.92,82.92,0,0,0-8.6-4.87,76.24,76.24,0,0,0-7.44-3.15c-1.07-.42-2.07-.71-2.93-1s-1.63-.52-2.25-.69l-1.42-.42a2.26,2.26,0,0,1-.49-.19,2.34,2.34,0,0,1,.51.08l1.46.33c.63.15,1.39.34,2.27.61s1.89.53,3,.93A72.92,72.92,0,0,1,417,69.51a81.89,81.89,0,0,1,8.68,4.87,83.13,83.13,0,0,1,7.95,6,78.47,78.47,0,0,1,5.88,5.6c.81.83,1.48,1.63,2.09,2.32s1.11,1.29,1.51,1.8l.91,1.18A2.22,2.22,0,0,1,444.28,91.69Z" style="fill:#263238"></path><path d="M427.24,76a4.32,4.32,0,0,1-.58-.91c-.34-.6-.82-1.49-1.39-2.59-1.14-2.2-2.63-5.29-4.13-8.77s-2.71-6.7-3.52-9c-.41-1.17-.72-2.13-.92-2.79a5.17,5.17,0,0,1-.27-1.05,4,4,0,0,1,.46,1c.29.75.65,1.66,1.07,2.73.9,2.31,2.17,5.49,3.66,9s2.93,6.58,4,8.82c.49,1,.9,1.93,1.24,2.66A4.45,4.45,0,0,1,427.24,76Z" style="fill:#263238"></path><path d="M402.76,64.61s15.62-.83,23.49,10.49C426.25,75.1,414.12,66.78,402.76,64.61Z" style="opacity:0.30000000000000004"></path><path d="M114.5,375.54c-1.69-3.44-4.24-7.08-8-7.49-3.53-.39-6.8,2.34-8.23,5.59s-1.41,6.92-1.38,10.46a32,32,0,0,0-12.36-19.76c-2.14-1.58-5.16-2.87-7.32-1.32-1.53,1.09-1.93,3.15-2.15,5a81.47,81.47,0,0,0,.48,22.22c-2.91-2.18-6-4.42-9.56-5s-7.83,1-9,4.46a10.8,10.8,0,0,0,.26,5.9A78.77,78.77,0,0,0,75,429.17c4.54,5.05,10,9.66,16.66,11.15s15.18,1.66,18.19-4.43l-1.1,1.55C121.78,420,124.07,395.12,114.5,375.54Z" style="fill:#FFDC2F"></path><path d="M105.77,439.75a2.64,2.64,0,0,1-.2-.57c-.12-.44-.28-1-.48-1.67s-.44-1.62-.77-2.64-.66-2.19-1.13-3.46-.92-2.66-1.53-4.13-1.25-3-2-4.66a102.61,102.61,0,0,0-5.41-10.23,99.57,99.57,0,0,0-6.64-9.48c-1.14-1.37-2.2-2.69-3.28-3.85s-2.07-2.25-3-3.21-1.83-1.79-2.6-2.54-1.46-1.35-2-1.85l-1.3-1.15a2.47,2.47,0,0,1-.43-.44,3.51,3.51,0,0,1,.5.35l1.36,1.09c.59.47,1.31,1.06,2.09,1.79s1.73,1.52,2.67,2.49,2,2,3.08,3.18,2.18,2.47,3.33,3.84a94.44,94.44,0,0,1,6.72,9.51,98.15,98.15,0,0,1,5.4,10.3c.7,1.65,1.39,3.21,1.93,4.7s1.05,2.89,1.47,4.18.75,2.46,1.06,3.49.52,1.93.69,2.67.28,1.25.38,1.69A2.11,2.11,0,0,1,105.77,439.75Z" style="fill:#263238"></path><path d="M95.64,414.63a6.34,6.34,0,0,1-.13-1.25c-.06-.81-.11-2-.16-3.44-.08-2.9-.11-6.92.06-11.35s.5-8.43.81-11.32c.16-1.45.3-2.61.42-3.42a5.35,5.35,0,0,1,.23-1.24,6.71,6.71,0,0,1,0,1.26c-.07.92-.15,2.07-.25,3.43-.22,2.89-.49,6.89-.66,11.31s-.2,8.42-.21,11.32c0,1.37,0,2.52,0,3.44A5.48,5.48,0,0,1,95.64,414.63Z" style="fill:#263238"></path><path d="M75.5,390.26s16.93,7,19.56,22.9C95.06,413.16,86.42,398.26,75.5,390.26Z" style="opacity:0.30000000000000004"></path><path d="M472.8,158.5a38.81,38.81,0,0,1-33.74-28.25,39.17,39.17,0,0,1,36.55,28.19" style="fill:#455a64"></path><path d="M466.27,150.59a6.51,6.51,0,0,1-1-.86c-.62-.59-1.53-1.42-2.67-2.44-2.26-2-5.48-4.77-9.23-7.53s-7.33-5-10-6.55c-1.31-.78-2.38-1.39-3.13-1.81a7.63,7.63,0,0,1-1.13-.71,6.93,6.93,0,0,1,1.23.53c.77.36,1.87.93,3.21,1.67a92.22,92.22,0,0,1,10.08,6.45,94.16,94.16,0,0,1,9.18,7.68c1.11,1.06,2,1.93,2.56,2.56A6.32,6.32,0,0,1,466.27,150.59Z" style="fill:#263238"></path><path d="M66.47,448.57a46.26,46.26,0,0,0-26.89,9.18c7.79,4.76,19.62,9.12,28.74,8.63A45.77,45.77,0,0,0,93.6,457,46.26,46.26,0,0,0,66.47,448.57Z" style="fill:#455a64"></path><path d="M53.83,457a8.08,8.08,0,0,1,1.52-.32c1-.18,2.43-.39,4.21-.6a113.64,113.64,0,0,1,14-.73,112.08,112.08,0,0,1,14,1c1.77.25,3.2.48,4.19.68a8,8,0,0,1,1.51.35,8.48,8.48,0,0,1-1.55-.15c-1-.13-2.42-.31-4.2-.51-3.55-.4-8.47-.8-13.93-.86s-10.38.25-13.94.58c-1.77.16-3.21.31-4.21.43A9.82,9.82,0,0,1,53.83,457Z" style="fill:#263238"></path></g><g id="freepik--Character--inject-459"><path d="M488.89,230.62c-2.94-22.81-22.06-41-43.56-49.12-23.4-8.87-49.34-8-74.19-6.78a15.8,15.8,0,0,1-10.49-3.15c-7.72-6-4.15-15.08-.56-22.29q11.13-22.32,22.25-44.65c4.13-8.3,8.4-17.9,1.9-26.44a19.45,19.45,0,0,0-10.42-6.76c-10.29-2.86-20.31.45-30.3,2.57-17.13,3.63-39.52.92-45.36-15.58-1.54-4.35-1.65-9.18-3.8-13.27-3.76-7.18-13-10.06-21-8.87-7.76,1.16-14.68,5.32-21.34,9.49A511.53,511.53,0,0,0,79.6,149.23c-24.15,22-57.88,43.78-65.82,75.48C7.05,251.53,16.79,290,32,313s46.66,34.43,74,38.78c6.68,1.07,13.85,1.61,19.89,4.32l0-.06c12.35,5.08,20.09,10.52,19.25,21.17-.56,7-2.06,9.78-4.29,16.36-.12.79-.94,3.33-1.26,4.29-3.45,10.47,1.78,22,12.19,25.62.69.24,1.4.44,2.1.61,9,2.15,18.48-.41,26.6-4.76s15.18-10.39,22.59-15.86a186.52,186.52,0,0,1,57.69-28.67c11.64-3.44,25-5.52,35.3.82,9.21,5.65,13.69,16.68,15.61,27.32,3.73,16,13.31,30.24,29.32,34.28s33-.56,48-7.36c16.84-7.62,33.76-20,37.23-38.13,1.7-8.86-.92-19.36-8.83-23.7a30.12,30.12,0,0,0-5.15-2.08c-1.32-.11-2.63-.24-3.93-.44-8.45-1.25-17.9-6.74-14.84-17.23a17.52,17.52,0,0,1,4.32-7.17c17.89-18.62,41.31-30.67,60.68-47.62C476.81,277.56,492,254.68,488.89,230.62Z" style="fill:#aa6550"></path><path d="M329.19,154.38c0,.19-1.9.54-5.35,1.12s-8.44,1.49-14.56,2.76-13.4,2.92-21.5,4.75-17,3.77-26.54,5.26a158.47,158.47,0,0,1-27.09,2,99.87,99.87,0,0,1-22.05-2.75,70.67,70.67,0,0,1-14.12-5,19.81,19.81,0,0,1-2.08-1.07l-1.49-.86c-.8-.48-1.2-.77-1.15-.85s.52,0,1.38.38l1.58.63c.62.26,1.34.56,2.16.84a89.4,89.4,0,0,0,14.13,4.13,109.8,109.8,0,0,0,21.67,2.15,171.77,171.77,0,0,0,26.67-2.15c9.4-1.47,18.31-3.34,26.43-5s15.45-3.18,21.66-4.21,11.26-1.68,14.77-1.95S329.17,154.21,329.19,154.38Z" style="fill:#723f33"></path><path d="M235.86,359.28c-.46-.1.7-5,.82-12.95,0-1,0-2,0-3.12s-.12-2.21-.18-3.38c0-.58,0-1.18-.1-1.78l-.21-1.83c-.15-1.24-.24-2.52-.44-3.82A127.17,127.17,0,0,0,232,315.69a199.64,199.64,0,0,0-11.48-29.06c-3.47-7.24-5.79-11.66-5.45-11.86s3.17,3.93,7.09,11A149.58,149.58,0,0,1,234.52,315a108.74,108.74,0,0,1,3.61,17.14c.18,1.34.24,2.66.36,3.93,0,.64.09,1.27.14,1.88s0,1.24,0,1.84c0,1.2,0,2.35,0,3.47s-.13,2.18-.18,3.2-.12,2-.24,2.9-.27,1.76-.4,2.57-.25,1.54-.36,2.22-.33,1.29-.48,1.84C236.44,358.14,236,359.32,235.86,359.28Z" style="fill:#723f33"></path><path d="M297.54,345.52c-.18.05-.61-1.13-1.24-3.3-.16-.55-.33-1.16-.51-1.82s-.31-1.4-.48-2.19c-.31-1.58-.73-3.37-1-5.39-.14-1-.28-2.06-.43-3.15s-.2-2.25-.3-3.44c-.24-2.38-.25-4.94-.31-7.63a104,104,0,0,1,5.86-34.34c.95-2.51,1.81-4.92,2.82-7.09.49-1.08.93-2.15,1.42-3.14s1-1.94,1.46-2.84c.89-1.82,1.88-3.37,2.7-4.76.42-.68.79-1.33,1.17-1.91l1.09-1.54c1.32-1.84,2.12-2.81,2.27-2.71s-.36,1.25-1.4,3.24c-.27.49-.56,1-.88,1.64s-.63,1.28-1,2c-.69,1.43-1.55,3-2.32,4.86l-1.28,2.86c-.44,1-.82,2.06-1.26,3.14-.91,2.16-1.67,4.55-2.53,7a130.88,130.88,0,0,0-4.09,16.6,128.67,128.67,0,0,0-1.65,17c0,2.63-.08,5.14.07,7.47.05,1.17.05,2.31.14,3.39s.18,2.12.26,3.12c.11,2,.4,3.78.58,5.35.09.79.17,1.53.25,2.21s.2,1.28.29,1.84C297.61,344.23,297.71,345.48,297.54,345.52Z" style="fill:#723f33"></path><path d="M174.86,331a1.89,1.89,0,0,0-1,3.1,2.1,2.1,0,0,0,3.28-1A1.85,1.85,0,0,0,174.86,331Z" style="fill:#723f33"></path><path d="M240.17,246a2,2,0,0,0-1.07,3.18,2.15,2.15,0,0,0,3.36-1A1.9,1.9,0,0,0,240.17,246Z" style="fill:#723f33"></path><path d="M157.7,321.8a1.89,1.89,0,0,0-1,3.1,2.09,2.09,0,0,0,3.28-1A1.85,1.85,0,0,0,157.7,321.8Z" style="fill:#723f33"></path><path d="M355.93,331.78a1.89,1.89,0,0,0-1,3.1,2.1,2.1,0,0,0,3.28-1A1.85,1.85,0,0,0,355.93,331.78Z" style="fill:#723f33"></path><path d="M363.34,357.52a1.89,1.89,0,0,0-1,3.1,2.1,2.1,0,0,0,3.28-1A1.85,1.85,0,0,0,363.34,357.52Z" style="fill:#723f33"></path><path d="M395.37,375.89a1.89,1.89,0,0,0-1,3.1,2.1,2.1,0,0,0,3.28-1A1.85,1.85,0,0,0,395.37,375.89Z" style="fill:#723f33"></path><path d="M386,332.77a1.89,1.89,0,0,0-1,3.1,2.09,2.09,0,0,0,3.28-1A1.85,1.85,0,0,0,386,332.77Z" style="fill:#723f33"></path><path d="M331.85,351.34a1.89,1.89,0,0,0-1,3.1,2.1,2.1,0,0,0,3.28-1A1.85,1.85,0,0,0,331.85,351.34Z" style="fill:#723f33"></path><path d="M345.43,383a1.89,1.89,0,0,0-1,3.1,2.1,2.1,0,0,0,3.28-1A1.85,1.85,0,0,0,345.43,383Z" style="fill:#723f33"></path><path d="M175.27,351.71a1.89,1.89,0,0,0-1,3.1,2.1,2.1,0,0,0,3.28-1A1.85,1.85,0,0,0,175.27,351.71Z" style="fill:#723f33"></path><path d="M247.39,272.66a1.94,1.94,0,0,0-1.07,3.18,2.15,2.15,0,0,0,3.36-1A1.9,1.9,0,0,0,247.39,272.66Z" style="fill:#723f33"></path><path d="M280.58,289.49a1.89,1.89,0,0,0-1,3.1,2.1,2.1,0,0,0,3.28-1A1.85,1.85,0,0,0,280.58,289.49Z" style="fill:#723f33"></path><path d="M264.42,242.82a1.89,1.89,0,0,0-1,3.1,2.1,2.1,0,0,0,3.28-1A1.85,1.85,0,0,0,264.42,242.82Z" style="fill:#723f33"></path><path d="M243,219.46a1.89,1.89,0,0,0-1,3.1,2.1,2.1,0,0,0,3.28-1A1.85,1.85,0,0,0,243,219.46Z" style="fill:#723f33"></path><path d="M155.8,344.53a1.91,1.91,0,0,0-1.05,3.11,2.1,2.1,0,0,0,3.28-1A1.85,1.85,0,0,0,155.8,344.53Z" style="fill:#723f33"></path><path d="M96,326.36a1.89,1.89,0,0,0-1,3.1,2.1,2.1,0,0,0,3.28-1A1.85,1.85,0,0,0,96,326.36Z" style="fill:#723f33"></path><path d="M130.82,333.12a1.89,1.89,0,0,0-1,3.1,2.1,2.1,0,0,0,3.28-1A1.85,1.85,0,0,0,130.82,333.12Z" style="fill:#723f33"></path><path d="M89,257.25a3.76,3.76,0,0,1-1.78,0,9.71,9.71,0,0,1-6.94-4.7,4.08,4.08,0,0,1-.64-1.66,12.2,12.2,0,0,1,1,1.46,11.29,11.29,0,0,0,2.92,2.91,11.16,11.16,0,0,0,3.78,1.63A12.35,12.35,0,0,1,89,257.25Z" style="fill:#263238"></path><path d="M96.51,255.58c0,.06-.51.06-1.27-.19A7,7,0,0,1,91,251.1c-.24-.77-.25-1.27-.18-1.28A12.08,12.08,0,0,0,93,253.36,12.23,12.23,0,0,0,96.51,255.58Z" style="fill:#263238"></path><path d="M213.81,242.66a136.69,136.69,0,0,1-61.93-15.37c-16.1-8.38-30.56-20-47.54-26.43a86.75,86.75,0,0,0-67,2.68C48.7,190.37,64.42,180.7,81.59,178c17.35-2.69,34.92,1.7,51.92,6.05l59.14,15.15c3.47.89,7.08,1.86,9.74,4.27,7.44,6.75,3.16,20.17,9.45,28,1.06-5.77,3.23-17.52,5.22-22.7-.88,7.88-.93,22-1.8,29.89" style="fill:#263238"></path><path d="M228.9,211.22c.57.54-4.8,6.26-8.25,15s-3.64,16.57-4.43,16.57c-.33,0-.76-2-.67-5.21a33.66,33.66,0,0,1,.68-5.64,41.67,41.67,0,0,1,2-6.69,41,41,0,0,1,3.17-6.22,34.5,34.5,0,0,1,3.42-4.54C227,212.11,228.67,211,228.9,211.22Z" style="fill:#263238"></path><path d="M175.54,196.64c0-.14.8-.2,2,.44a9.18,9.18,0,0,1,3.55,4.23c1.94,4.27,2.73,10.39,3.66,17a76.38,76.38,0,0,0,1.77,9.09,37,37,0,0,0,2.64,7c1.93,3.78,3.92,5.66,3.64,6s-2.71-1.21-5.24-5.05a30.3,30.3,0,0,1-3.33-7.21,55.43,55.43,0,0,1-2.05-9.39c-.44-3.31-.86-6.45-1.25-9.33a43.38,43.38,0,0,0-1.54-7.32,9.92,9.92,0,0,0-2.44-4.1C176.11,197.13,175.48,196.84,175.54,196.64Z" style="fill:#455a64"></path><path d="M159.34,191.51s.13.12.33.37a12.44,12.44,0,0,1,.85,1.13,25.46,25.46,0,0,1,2.48,4.56,43.11,43.11,0,0,1,2.28,7.35c.65,2.83,1.14,6,1.67,9.26a82.64,82.64,0,0,0,1.91,9.16,35.08,35.08,0,0,0,2.77,7.09,23.92,23.92,0,0,0,2.86,4.26c.79.93,1.27,1.4,1.24,1.44s-.15-.1-.38-.31-.61-.53-1-1a21.7,21.7,0,0,1-3-4.22,33.58,33.58,0,0,1-2.91-7.13,77.93,77.93,0,0,1-2-9.22c-.53-3.29-1-6.42-1.62-9.23a46,46,0,0,0-2.16-7.32,28.62,28.62,0,0,0-2.31-4.59C159.71,192.09,159.31,191.54,159.34,191.51Z" style="fill:#455a64"></path><path d="M190.2,196.83s.12.1.31.33a7.58,7.58,0,0,1,.73,1.07,13.11,13.11,0,0,1,1.57,4.47,23,23,0,0,1,0,7c-.35,2.63-1,5.46-1.44,8.45a46.21,46.21,0,0,0,.51,15.41c.4,1.94.83,3.5,1.16,4.56a12,12,0,0,1,.47,1.67,1.9,1.9,0,0,1-.2-.41c-.11-.27-.28-.67-.47-1.2a39.73,39.73,0,0,1-1.32-4.54,43.78,43.78,0,0,1-.67-15.56c.42-3,1.12-5.85,1.48-8.45a23.53,23.53,0,0,0,.14-6.91,13.84,13.84,0,0,0-1.39-4.43C190.55,197.35,190.16,196.86,190.2,196.83Z" style="fill:#455a64"></path><path d="M105.51,180.35a9.91,9.91,0,0,1,1.45.76c.46.25,1,.58,1.64,1s1.35.86,2.09,1.45,1.58,1.18,2.42,1.92,1.7,1.53,2.61,2.39a52,52,0,0,1,5.24,6.19,51,51,0,0,1,4.1,7c.51,1.14,1,2.21,1.39,3.26s.73,2,1,2.91.48,1.73.67,2.46a18.54,18.54,0,0,1,.4,1.88,9.28,9.28,0,0,1,.23,1.62,12.44,12.44,0,0,1-.43-1.58c-.11-.51-.26-1.14-.48-1.85s-.41-1.53-.74-2.41-.63-1.86-1.06-2.87-.9-2.09-1.41-3.21a54.51,54.51,0,0,0-4.09-6.92,53.78,53.78,0,0,0-5.16-6.15c-.89-.86-1.71-1.7-2.56-2.41s-1.61-1.37-2.35-2-1.43-1.06-2-1.5-1.14-.79-1.59-1.07A9.82,9.82,0,0,1,105.51,180.35Z" style="fill:#455a64"></path><path d="M115.12,203c-.1,0-.56-1.81-1.73-4.63a43.3,43.3,0,0,0-2.35-4.79,47.07,47.07,0,0,0-3.67-5.41,46.37,46.37,0,0,0-4.47-4.78,42.64,42.64,0,0,0-4.15-3.36c-2.49-1.76-4.18-2.62-4.13-2.71a7.67,7.67,0,0,1,1.21.55c.39.19.85.44,1.37.76s1.13.65,1.76,1.1a38.87,38.87,0,0,1,4.27,3.3,39.7,39.7,0,0,1,8.22,10.31,38.73,38.73,0,0,1,2.29,4.89c.29.71.49,1.38.68,2a15.59,15.59,0,0,1,.43,1.51A5.8,5.8,0,0,1,115.12,203Z" style="fill:#455a64"></path><path d="M78.63,175.67a6.37,6.37,0,0,1,.76,1.05c.45.7,1.12,1.69,2,2.9a64.1,64.1,0,0,0,16.55,16c1.24.83,2.25,1.48,3,1.9a5.68,5.68,0,0,1,1.08.73,6.5,6.5,0,0,1-1.18-.55c-.74-.38-1.79-1-3.06-1.77a56.61,56.61,0,0,1-16.65-16.12c-.83-1.24-1.47-2.27-1.87-3A6.46,6.46,0,0,1,78.63,175.67Z" style="fill:#455a64"></path><path d="M424.91,120.28A15.91,15.91,0,0,0,413,113.14h0a13.83,13.83,0,0,0-2.65.1,29.52,29.52,0,0,0-19.46,8.93c-5.69,6-8.44,15-6.08,22.89S395,159.19,403.3,158.65c5.49-.36,10.48-3.44,14.5-7.21A31.8,31.8,0,0,0,427.07,137C428.62,131.41,428.08,125.12,424.91,120.28Z" style="fill:#aa6550"></path><path d="M298.26,242.72a136.69,136.69,0,0,0,61.93-15.37c16.11-8.39,30.57-20,47.55-26.43a86.68,86.68,0,0,1,67,2.68c-11.33-13.17-27.06-22.84-44.23-25.5-17.34-2.69-34.91,1.69-51.91,6.05L319.43,199.3c-3.47.89-7.09,1.85-9.74,4.26-7.45,6.76-3.17,20.18-9.46,28a51.78,51.78,0,0,0-6-16.46q1.32,11.82,2.62,23.64" style="fill:#263238"></path><path d="M348.1,194.11c0,.2-1,.37-2.56.95a18.87,18.87,0,0,0-6.11,3.66,26.43,26.43,0,0,0-6.28,8.49,97.81,97.81,0,0,0-4.66,12.51,55.71,55.71,0,0,1-5.58,12.63,25.56,25.56,0,0,1-3.91,4.77,20.35,20.35,0,0,1-4.38,3.15,15.12,15.12,0,0,1-7.47,1.95c-1.84-.07-2.79-.47-2.76-.62s1-.15,2.7-.4a16.89,16.89,0,0,0,6.61-2.52,20.94,20.94,0,0,0,3.78-3.1,24.29,24.29,0,0,0,3.39-4.5A60.47,60.47,0,0,0,326,218.89a81.35,81.35,0,0,1,5-12.78,30.36,30.36,0,0,1,3.37-5.11,23.48,23.48,0,0,1,3.88-3.71,16.53,16.53,0,0,1,7-3.21C347.08,193.78,348.09,194,348.1,194.11Z" style="fill:#455a64"></path><path d="M365.59,186.12s-.75.53-2,1.58a26.52,26.52,0,0,0-4.59,5.16,42.69,42.69,0,0,0-4.6,9.14c-1.35,3.63-2.44,7.76-3.67,12.07a65.84,65.84,0,0,1-4.4,11.88,30.88,30.88,0,0,1-6.13,8.33,20.38,20.38,0,0,1-5.79,3.88,14.31,14.31,0,0,1-1.79.63,3.21,3.21,0,0,1-.64.16c0-.06.87-.28,2.35-1a21.63,21.63,0,0,0,5.62-4,31.14,31.14,0,0,0,5.95-8.28,67.6,67.6,0,0,0,4.33-11.81c1.23-4.3,2.33-8.44,3.72-12.09a41.55,41.55,0,0,1,4.75-9.19,24.82,24.82,0,0,1,4.76-5.09,17.11,17.11,0,0,1,1.55-1.1A3.72,3.72,0,0,1,365.59,186.12Z" style="fill:#455a64"></path><path d="M375,184.4s-.61.57-1.69,1.61a31,31,0,0,0-4.05,4.9,49.32,49.32,0,0,0-4.41,8.32c-1.4,3.28-2.68,7-4,10.87a89.71,89.71,0,0,1-4.42,10.76,38.67,38.67,0,0,1-5.21,7.95,24.54,24.54,0,0,1-4.75,4.3,15.5,15.5,0,0,1-1.49.91,2.18,2.18,0,0,1-.54.28c0-.05.7-.47,1.91-1.36a26.07,26.07,0,0,0,4.59-4.36,40.21,40.21,0,0,0,5.06-7.94,94.68,94.68,0,0,0,4.36-10.72c1.36-3.88,2.66-7.59,4.09-10.87A46.73,46.73,0,0,1,369,190.7a27.89,27.89,0,0,1,4.21-4.84,14.32,14.32,0,0,1,1.34-1.11A2.47,2.47,0,0,1,375,184.4Z" style="fill:#455a64"></path><path d="M415.5,177.35a26.87,26.87,0,0,0-6.82,3.15,31.58,31.58,0,0,0-6.13,5.38,56.54,56.54,0,0,0-5.92,8.07c-1.86,3-3.51,6-5.1,8.68a75.54,75.54,0,0,1-4.52,6.9,37.71,37.71,0,0,1-3.62,4.22c-.45.48-.85.8-1.1,1s-.4.34-.42.32.49-.54,1.37-1.5a44.48,44.48,0,0,0,3.47-4.3c1.37-1.89,2.85-4.25,4.41-6.92s3.19-5.66,5.07-8.71a54.76,54.76,0,0,1,6-8.13,31,31,0,0,1,6.28-5.36,21.11,21.11,0,0,1,5-2.37,14.09,14.09,0,0,1,1.47-.38A1.73,1.73,0,0,1,415.5,177.35Z" style="fill:#455a64"></path><path d="M430.09,180.16a28.07,28.07,0,0,0-6.21.37,28.75,28.75,0,0,0-13.19,6.81,59,59,0,0,0-9.61,11.57l-2.51,3.84a10.14,10.14,0,0,1-1,1.38,10.06,10.06,0,0,1,.79-1.49c.54-.94,1.33-2.29,2.37-3.93A54.76,54.76,0,0,1,410.34,187a28,28,0,0,1,13.47-6.78,19.21,19.21,0,0,1,4.61-.25,10.42,10.42,0,0,1,1.25.15A1.21,1.21,0,0,1,430.09,180.16Z" style="fill:#455a64"></path><path d="M308.87,203.77a8.87,8.87,0,0,1,.58,1.53,16.42,16.42,0,0,1,.55,1.85c.17.73.41,1.55.55,2.49a30.76,30.76,0,0,1,.41,3.06c.14,1.11.14,2.3.17,3.55a40.73,40.73,0,0,1-.87,8.09,41.72,41.72,0,0,1-2.54,7.73c-.55,1.13-1,2.21-1.63,3.16a27.77,27.77,0,0,1-1.64,2.62,25.13,25.13,0,0,1-1.53,2,14.81,14.81,0,0,1-1.26,1.46,9.8,9.8,0,0,1-1.16,1.16,9.08,9.08,0,0,1,1-1.29,18.83,18.83,0,0,0,1.18-1.51c.43-.6,1-1.26,1.45-2.06a29.46,29.46,0,0,0,1.58-2.63c.56-1,1-2,1.56-3.14a40,40,0,0,0,3.38-15.63c0-1.24,0-2.41-.13-3.51a28.65,28.65,0,0,0-.35-3,24.53,24.53,0,0,0-.47-2.48,16,16,0,0,0-.45-1.86A11,11,0,0,1,308.87,203.77Z" style="fill:#455a64"></path><path d="M321.28,277c-.63-9.06,3.1-18,8.77-25.14s13.19-12.49,20.95-17.2c13-7.91,27.39-14.24,42.58-15.13s31.31,4.4,40.79,16.3a2.11,2.11,0,0,1,.65,1.58c-.2,1.18-1.88,1.18-3,.9-13.09-3.13-26.78-1.87-40.18-.59-11.51,1.1-23.29,2.27-33.72,7.26-9.06,4.34-16.56,11.31-23.89,18.17a142,142,0,0,0-12.7,12.91" style="fill:#723f33"></path><path d="M361.12,261.31c-9.3,4.68-9.7,7.5-17.4,14.18-3.72,3.23-7.54,6.6-9.62,11.06s-2.62,16.12,1.67,13.71c1.58-.88,10.86-1.75,16.36.46,12.29,4.93,26.2,5.14,39.34,3.54A49.57,49.57,0,0,0,430.75,274c1.41-3.56,2.34-7.81.32-11.06-1.47-2.38-4.16-3.65-6.76-4.66a78.82,78.82,0,0,0-63.73,3.34" style="fill:#ebebeb"></path><path d="M433.35,267.26c.09,0,.08.46,0,1.29a23.09,23.09,0,0,1-.66,3.59,41.64,41.64,0,0,1-5.34,12.33c-.72,1.25-1.66,2.41-2.56,3.69s-2,2.5-3.2,3.68a44.47,44.47,0,0,1-8.26,6.89,45.32,45.32,0,0,1-10.75,5.16,52.76,52.76,0,0,1-6.13,1.51c-1.05.23-2.12.29-3.19.44a29.51,29.51,0,0,1-3.25.3c-8.75.5-16.94-.75-24.27-1.88s-13.88-2.25-19.42-2.71a89.15,89.15,0,0,0-13.14-.14c-3.09.32-4.82.5-4.86.31s1.63-.68,4.73-1.32a67.09,67.09,0,0,1,13.39-.68c5.66.22,12.33,1.14,19.65,2.17s15.39,2.13,23.77,1.65a28.79,28.79,0,0,0,3.1-.28c1-.14,2.05-.2,3-.41a53,53,0,0,0,5.81-1.39A44.37,44.37,0,0,0,412,296.71a44.91,44.91,0,0,0,8-6.38c1.18-1.1,2.16-2.32,3.17-3.43s1.86-2.28,2.59-3.44a48.48,48.48,0,0,0,5.91-11.61c.56-1.45.86-2.62,1.12-3.41S433.26,267.25,433.35,267.26Z" style="fill:#263238"></path><path d="M373,256a12,12,0,0,0-9.62,5.52,18.63,18.63,0,0,0-2.82,11,25.53,25.53,0,0,0,15.25,22.36c8.82,3.65,19.83,1.37,26.25-5.68s7.62-18.44,2.55-26.52-16.1-11.92-25-8.49" style="fill:#FFDC2F"></path><path d="M379.6,254.18c-.06-.1,1.65-1.18,5.19-1.69a21.16,21.16,0,0,1,6.48.25,22.36,22.36,0,0,1,11.92,6.46,21.86,21.86,0,0,1,3.23,4.51,22.89,22.89,0,0,1,2.47,11.85,23.76,23.76,0,0,1-4.41,12.64,23.34,23.34,0,0,1-11.69,8.37,25.63,25.63,0,0,1-14.34.51A24.15,24.15,0,0,1,367,290.22a27.2,27.2,0,0,1-6.17-10.36,25.19,25.19,0,0,1-1.07-10.43,17.91,17.91,0,0,1,2.93-8.18,13.26,13.26,0,0,1,4.94-4.31,10.22,10.22,0,0,1,4-1.11c.94,0,1.42.09,1.42.16,0,.25-2,.1-4.9,1.84a12.89,12.89,0,0,0-4.21,4.22,16.94,16.94,0,0,0-2.32,7.56,23.74,23.74,0,0,0,1.29,9.57,25.59,25.59,0,0,0,5.84,9.37,22.11,22.11,0,0,0,10.39,6.06,23.3,23.3,0,0,0,12.9-.52,21.07,21.07,0,0,0,10.44-7.39,21.51,21.51,0,0,0,4.07-11.29,21,21,0,0,0-2-10.72,20.59,20.59,0,0,0-2.78-4.13,21.11,21.11,0,0,0-3.48-3.07,21.49,21.49,0,0,0-7.28-3.33,22.27,22.27,0,0,0-6.08-.66C381.49,253.68,379.67,254.4,379.6,254.18Z" style="fill:#263238"></path><path d="M442.25,246.16c-.16.16-1.51-1.27-4.44-3.12a35.91,35.91,0,0,0-13.63-4.9c-6.09-1-13.51-.69-21.76.1a198.12,198.12,0,0,0-26.54,4,104.28,104.28,0,0,0-25.08,9,83.69,83.69,0,0,0-9.9,6.1,74.09,74.09,0,0,0-7.79,6.48,65.79,65.79,0,0,0-9.44,11.24c-.48.73-.9,1.38-1.28,1.94s-.64,1.06-.89,1.46c-.49.78-.79,1.17-.87,1.14s.06-.51.41-1.38c.17-.43.39-1,.67-1.59l1.09-2.09a55.59,55.59,0,0,1,9-12,72.75,72.75,0,0,1,7.8-6.91,80.28,80.28,0,0,1,10.06-6.47,100.79,100.79,0,0,1,25.63-9.41,179.45,179.45,0,0,1,26.92-3.86c4.16-.31,8.13-.54,11.88-.5a57.46,57.46,0,0,1,10.4,1,33.76,33.76,0,0,1,13.89,5.88C441.24,244.39,442.35,246.07,442.25,246.16Z" style="fill:#263238"></path><path d="M451.92,276.58c-.13.12-.61-.11-1.39-.67-.39-.28-.86-.63-1.39-1.07s-1.15-.94-1.87-1.46A95.36,95.36,0,0,0,434.84,265c-1.34-.82-2.85-1.49-4.37-2.29s-3.19-1.44-4.87-2.18-3.48-1.41-5.37-2c-.93-.29-1.87-.62-2.84-.9l-3-.78a73.21,73.21,0,0,0-40.12.87,72.86,72.86,0,0,0-11.94,4.87l-2.69,1.44c-.88.49-1.71,1-2.54,1.54-1.7,1-3.19,2.15-4.71,3.18-.74.54-1.43,1.13-2.13,1.67s-1.4,1.07-2,1.66c-1.24,1.17-2.53,2.2-3.58,3.36s-2.17,2.17-3.06,3.27-1.83,2.05-2.55,3.08-1.49,1.91-2.11,2.79l-1.65,2.44c-.53.72-.94,1.4-1.3,2s-.69,1.08-1,1.47c-.56.77-.94,1.16-1.1,1.08s-.11-.59.14-1.52q.19-.7.54-1.71a15.86,15.86,0,0,1,.9-2.27l1.32-2.77c.51-1,1.16-2,1.83-3.16a41.26,41.26,0,0,1,2.36-3.48A44,44,0,0,1,342,273c1-1.31,2.3-2.49,3.55-3.81.62-.67,1.34-1.25,2-1.88s1.41-1.28,2.16-1.9c1.56-1.18,3.11-2.5,4.87-3.62.87-.57,1.74-1.18,2.65-1.74l2.82-1.64a71.72,71.72,0,0,1,12.67-5.49,75.56,75.56,0,0,1,14.52-3.12,77.43,77.43,0,0,1,14.83-.06,75.57,75.57,0,0,1,13.54,2.53l3.12.94c1,.33,2,.71,3,1.06,2,.67,3.79,1.57,5.58,2.32s3.44,1.68,5,2.58,3.08,1.74,4.43,2.71a62.53,62.53,0,0,1,11.89,10,19.45,19.45,0,0,1,1.58,1.86c.43.55.79,1,1.06,1.44C451.84,276,452.06,276.46,451.92,276.58Z" style="fill:#263238"></path><path d="M394,271.6a11.13,11.13,0,1,1-11.86-10.35A11.13,11.13,0,0,1,394,271.6Z" style="fill:#263238"></path><path d="M395.66,263.58c-.88-1.15-4.9-2.63-6.37-3a8.81,8.81,0,0,0-4.49-.27,3.54,3.54,0,0,0-2.75,3.2c0,1.8,1.82,3,3.47,3.73a35.12,35.12,0,0,0,5.83,1.81,9.13,9.13,0,0,0,3.06.35,3.39,3.39,0,0,0,2.58-1.48C397.83,266.48,397,264.54,395.66,263.58Z" style="fill:#fff"></path><path d="M374,290.69a12,12,0,0,1,1.21-4.78,12.44,12.44,0,0,1,2.56-4.22c.13.09-1.05,1.94-2.08,4.42S374.11,290.72,374,290.69Z" style="fill:#263238"></path><path d="M381.51,288.18a24.74,24.74,0,0,1,.38-7.15,24.74,24.74,0,0,1-.38,7.15Z" style="fill:#263238"></path><path d="M388.59,289.07c-.15,0-.35-1.81-1-4s-1.42-3.81-1.28-3.88A9.4,9.4,0,0,1,388.1,285,9.19,9.19,0,0,1,388.59,289.07Z" style="fill:#263238"></path><path d="M395.53,287.85a51.51,51.51,0,0,0-2.59-5.53,52.13,52.13,0,0,0-3.66-4.89,16.65,16.65,0,0,1,6.25,10.42Z" style="fill:#263238"></path><path d="M396.77,275.12a4.21,4.21,0,0,1-2,0c-1.12-.13-2-.35-2-.49a4.26,4.26,0,0,1,2.05,0C395.9,274.76,396.79,275,396.77,275.12Z" style="fill:#263238"></path><path d="M366.48,274.21a8.68,8.68,0,0,1,3.31-.71,8.44,8.44,0,0,1,3.39.13,17.15,17.15,0,0,1-3.34.39A15.26,15.26,0,0,1,366.48,274.21Z" style="fill:#263238"></path><path d="M377.2,266.61c-.08.14-2.5-1.21-5.71-2.27s-5.94-1.47-5.91-1.62a22.29,22.29,0,0,1,11.62,3.89Z" style="fill:#263238"></path><path d="M396.21,289.35a14.49,14.49,0,0,0,6.73-11.92,34.8,34.8,0,0,0-1-10l-.69-3a5.23,5.23,0,0,1-.2-1.12,4.44,4.44,0,0,1,.4,1.07c.22.7.52,1.71.85,3a31.75,31.75,0,0,1,1.19,10.15,15.9,15.9,0,0,1-3.81,9.41,10.53,10.53,0,0,1-2.41,2A3.43,3.43,0,0,1,396.21,289.35Z" style="fill:#fff"></path><path d="M447.14,253a8.9,8.9,0,0,1-1.37,2.22,21.44,21.44,0,0,1-10.2,7.24A8.6,8.6,0,0,1,433,263a32.75,32.75,0,0,0,7.89-3.84A33.22,33.22,0,0,0,447.14,253Z" style="fill:#263238"></path><path d="M457.18,254.64a2.83,2.83,0,0,1-.51.75,21,21,0,0,1-1.65,1.83,26.54,26.54,0,0,1-14.35,7.23,20.7,20.7,0,0,1-2.46.24,3.52,3.52,0,0,1-.9,0c0-.1,1.27-.18,3.29-.58A29.57,29.57,0,0,0,454.76,257C456.29,255.56,457.11,254.58,457.18,254.64Z" style="fill:#263238"></path><path d="M436.4,249.06a6.76,6.76,0,0,1-.39,2.24,18.06,18.06,0,0,1-2.36,5,17.83,17.83,0,0,1-3.77,4,6.76,6.76,0,0,1-1.95,1.19,22.78,22.78,0,0,0,8.47-12.41Z" style="fill:#263238"></path><path d="M431.73,248.26a6.13,6.13,0,0,1-.36,2.18,15.72,15.72,0,0,1-2.35,4.78,15.55,15.55,0,0,1-3.79,3.74,6.29,6.29,0,0,1-2,1,24.83,24.83,0,0,0,5.32-5.08A24.36,24.36,0,0,0,431.73,248.26Z" style="fill:#263238"></path><path d="M424.19,243.36a6.06,6.06,0,0,1-.51,2.38,16.78,16.78,0,0,1-3,5.07,32.79,32.79,0,0,1-4.2,4.11,10.71,10.71,0,0,1-2,1.45,11.51,11.51,0,0,1,1.71-1.73,48.46,48.46,0,0,0,4-4.16,20,20,0,0,0,3.06-4.87C423.92,244.25,424.11,243.34,424.19,243.36Z" style="fill:#263238"></path><path d="M413.42,245.31a10.41,10.41,0,0,1-5.06,7.64,38.27,38.27,0,0,0,3-3.52A39.24,39.24,0,0,0,413.42,245.31Z" style="fill:#263238"></path><path d="M404.19,247a6.58,6.58,0,0,1-.54,3.72,6.46,6.46,0,0,1-2.09,3.11c-.12-.09.89-1.42,1.61-3.3S404,247,404.19,247Z" style="fill:#263238"></path><path d="M428.87,294.48a9.9,9.9,0,0,1-.27-1.46,9.2,9.2,0,0,0-1.36-3.19,9.1,9.1,0,0,0-2.47-2.44c-.75-.49-1.28-.71-1.25-.79a2.9,2.9,0,0,1,1.44.48,7.8,7.8,0,0,1,4,5.88A2.88,2.88,0,0,1,428.87,294.48Z" style="fill:#263238"></path><path d="M434.75,288.45c-.08,0-.2-.57-.6-1.41a7.33,7.33,0,0,0-5.51-4.18c-.92-.16-1.51-.12-1.52-.2a2.86,2.86,0,0,1,1.56-.16,6.71,6.71,0,0,1,5.81,4.4A2.85,2.85,0,0,1,434.75,288.45Z" style="fill:#263238"></path><path d="M437.89,282.41a12.46,12.46,0,0,0-3.64-3,12.63,12.63,0,0,0-4.61-1,2.66,2.66,0,0,1,1.42-.25,7.84,7.84,0,0,1,6.15,3C437.76,281.85,438,282.38,437.89,282.41Z" style="fill:#263238"></path><path d="M422.64,299.28a8.26,8.26,0,0,0-3.75-6.08c0-.06.46,0,1.07.4a5.84,5.84,0,0,1,1.94,1.94,6,6,0,0,1,.87,2.61C422.81,298.86,422.7,299.29,422.64,299.28Z" style="fill:#263238"></path><path d="M416.19,303.59a27.36,27.36,0,0,0-.89-3.68,26.61,26.61,0,0,0-1.84-3.31,7.32,7.32,0,0,1,2.73,7Z" style="fill:#263238"></path><path d="M410.13,305.6a27.7,27.7,0,0,0,.26-3.09,24.63,24.63,0,0,0-.6-3,4.3,4.3,0,0,1,1.12,3A4.39,4.39,0,0,1,410.13,305.6Z" style="fill:#263238"></path><path d="M438,274.88c.08,0,0,.45-.11,1.24-.07.4-.18.89-.31,1.47s-.37,1.21-.6,2a43.2,43.2,0,0,1-6,11.58,47.72,47.72,0,0,1-14.24,13.14,51.59,51.59,0,0,1-22.7,6.89,113.29,113.29,0,0,1-23.58-1c-7.15-.92-13.52-1.95-18.9-2.57s-9.73-.93-12.75-1.05-4.71-.12-4.72-.32,1.65-.49,4.71-.69a95,95,0,0,1,12.94.23c5.45.39,11.89,1.23,19,2a120.75,120.75,0,0,0,23.07.75,51.12,51.12,0,0,0,21.71-6.37,48.64,48.64,0,0,0,14-12.18,51,51,0,0,0,6.5-10.84q.47-1,.81-1.83c.21-.54.39-1,.55-1.37C437.68,275.23,437.89,274.86,438,274.88Z" style="fill:#723f33"></path><path d="M58.37,252.15c2.71-6.18,7.86-11.08,13.74-14.39s12.47-5.14,19.1-6.4c17.9-3.39,36.88-2.62,53.73,4.31s31.34,20.43,37.5,37.57a3,3,0,0,1,.18,2.24c-.67,1.44-2.84,1-4.24.22-8.54-4.7-15-12.4-22.87-18.14-13.48-9.83-30.67-13.49-47.35-13.32s-33.11,3.87-49.38,7.56" style="fill:#723f33"></path><path d="M60.86,272.71c-.8,5.78,2,6.91,6.15,11s9.49,6.76,14.74,9.32c10.67,5.23,21.69,10.37,33.51,11.63,14.29,1.52,28.49-2.74,42.22-7a20.11,20.11,0,0,0,8.9-6.52c3-3.72,2.4-7.73-.19-11.71s-6.71-6.68-10.76-9.15c-13.89-8.5-29.17-16.13-45.45-16.06-8.59,0-17,2.22-25.34,4.4-8.74,2.28-16.09,9.31-23.78,14" style="fill:#ebebeb"></path><path d="M96.31,255.9c-6.57,9.3-5.72,24.56,2.31,32.64s22,9.34,31.34,2.83,13-20,8.22-30.37c0,0-10.5-6.08-23-6.34A106.85,106.85,0,0,0,96.31,255.9Z" style="fill:#FFDC2F"></path><path d="M96.31,255.9c0-.25,4.27-1.33,11.88-1.88,1.91-.13,4-.22,6.3-.23a45.86,45.86,0,0,1,7.45.54A55.07,55.07,0,0,1,138.77,260l.32.17.16.36a25.4,25.4,0,0,1,1.91,14.82,26.81,26.81,0,0,1-7.3,14.46,24.3,24.3,0,0,1-13.73,6.73,27.2,27.2,0,0,1-7.32,0,33.57,33.57,0,0,1-3.49-.66,31.8,31.8,0,0,1-3.29-1.12,23.56,23.56,0,0,1-5.79-3.33,26,26,0,0,1-2.41-2.13,23.54,23.54,0,0,1-2-2.41,24.52,24.52,0,0,1-2.8-5.15,28.71,28.71,0,0,1-1.44-5.17,29.58,29.58,0,0,1-.2-9.14,25.19,25.19,0,0,1,1.79-6.64c1.49-3.45,3.11-5.07,3.12-4.9s-1,1.79-2.17,5.26a26.55,26.55,0,0,0-1.29,6.44,29.63,29.63,0,0,0,.55,8.62A28.4,28.4,0,0,0,94.89,281a23.12,23.12,0,0,0,2.69,4.63,22.68,22.68,0,0,0,1.83,2.13,23.74,23.74,0,0,0,2.22,1.86,21.27,21.27,0,0,0,5.3,2.93,26.31,26.31,0,0,0,3,1,30.36,30.36,0,0,0,3.19.56,25.06,25.06,0,0,0,6.64-.09A22,22,0,0,0,132,287.93a24.45,24.45,0,0,0,6.63-13,23.23,23.23,0,0,0-1.55-13.4l.48.52a55.55,55.55,0,0,0-16-5.74,46.77,46.77,0,0,0-7.14-.77c-2.25-.08-4.33-.09-6.22-.06C100.72,255.58,96.35,256.17,96.31,255.9Z" style="fill:#263238"></path><path d="M52.48,254c0-.17,1.92-.86,5.53-1.95s8.84-2.57,15.4-4.14a179.76,179.76,0,0,1,23.37-4.1,106,106,0,0,1,29.14.82,80.31,80.31,0,0,1,14.65,4,69.77,69.77,0,0,1,12.61,6.46,120.68,120.68,0,0,1,10.25,7.53c3.09,2.49,5.91,4.86,8.5,7s5,4,7.08,5.6,4,2.88,5.57,3.9l2.09,1.35,1.55.95c.84.52,1.26.84,1.23.92s-.54-.08-1.47-.46c-.46-.19-1-.42-1.69-.73L184.06,280c-1.67-.91-3.65-2.11-5.9-3.59s-4.7-3.29-7.38-5.35c-5.37-4-11.47-9.26-18.89-13.94A69.4,69.4,0,0,0,139.66,251a80.35,80.35,0,0,0-14.19-3.86,109.57,109.57,0,0,0-28.47-1,206.76,206.76,0,0,0-23.2,3.51C67.24,251,61.94,252.21,58.26,253S52.53,254.12,52.48,254Z" style="fill:#263238"></path><path d="M162.73,295c.06.15-1.31,1-3.94,2.23a78.54,78.54,0,0,1-11.56,4.24,92.21,92.21,0,0,1-18,3.25,93.19,93.19,0,0,1-44-7A91.82,91.82,0,0,1,69.11,289a78.15,78.15,0,0,1-9.66-7.64c-2.11-2-3.16-3.22-3-3.34.3-.34,5,4.06,13.7,9.43a103,103,0,0,0,16,8,98.22,98.22,0,0,0,42.93,6.87,103.38,103.38,0,0,0,17.71-2.64C156.72,297.28,162.55,294.56,162.73,295Z" style="fill:#263238"></path><circle cx="115.92" cy="271.95" r="11.12" transform="translate(-176.8 313.32) rotate(-74.96)" style="fill:#263238"></circle><path d="M129.86,265.24c-.69-1.27-4.44-3.35-5.83-3.95a8.86,8.86,0,0,0-4.4-1,3.54,3.54,0,0,0-3.21,2.74c-.24,1.79,1.33,3.27,2.86,4.22a34.84,34.84,0,0,0,5.49,2.68,9.08,9.08,0,0,0,3,.82,3.39,3.39,0,0,0,2.78-1.07C131.56,268.43,131.05,266.39,129.86,265.24Z" style="fill:#fff"></path><path d="M179.67,291.61c-.25.27-1.91-.84-4.73-3.05s-6.78-5.5-11.75-9.41A148.28,148.28,0,0,0,145,266.7a78.3,78.3,0,0,0-11.59-5.45,62.32,62.32,0,0,0-13.16-3.43,80.21,80.21,0,0,0-26.42,1q-3,.6-5.88,1.3c-1,.23-1.82.5-2.71.74s-1.73.57-2.56.91a67.5,67.5,0,0,0-9,4.46l-7.41,4.35c-2.22,1.27-4.17,2.32-5.82,3.06-3.31,1.52-5.29,2-5.42,1.67s1.51-1.42,4.41-3.43c1.46-1,3.21-2.26,5.25-3.74s4.35-3.21,7-5a62.3,62.3,0,0,1,9.35-5.33c.89-.41,1.84-.75,2.78-1.13s2-.68,3-.95c1.95-.57,4-1.09,6.09-1.57A77.88,77.88,0,0,1,121,252.67a63.57,63.57,0,0,1,14.24,3.81,76.68,76.68,0,0,1,12.2,6.08,119.91,119.91,0,0,1,18.11,13.78c4.75,4.34,8.36,8.08,10.75,10.74S179.92,291.36,179.67,291.61Z" style="fill:#263238"></path><path d="M104.25,288.69a16.49,16.49,0,0,1,5.11-8.3c.12.1-1.34,1.75-2.74,4S104.4,288.75,104.25,288.69Z" style="fill:#263238"></path><path d="M112.1,287.37a12.41,12.41,0,0,1,.48-3.56,12.94,12.94,0,0,1,1-3.45,12.38,12.38,0,0,1-.48,3.56A12.79,12.79,0,0,1,112.1,287.37Z" style="fill:#263238"></path><path d="M119,289.34c-.15,0-.07-1.84-.37-4.07s-.82-4-.67-4a12.65,12.65,0,0,1,1,8.09Z" style="fill:#263238"></path><path d="M126,289.2a52.74,52.74,0,0,0-1.71-5.87,54.06,54.06,0,0,0-2.87-5.38,13.6,13.6,0,0,1,3.35,5.19A13.86,13.86,0,0,1,126,289.2Z" style="fill:#263238"></path><path d="M129.19,276.81c0,.14-.95,0-2-.29s-1.92-.65-1.88-.79.94,0,2,.29S129.22,276.67,129.19,276.81Z" style="fill:#263238"></path><path d="M99.39,271.27a8.44,8.44,0,0,1,3.38-.2,8.67,8.67,0,0,1,3.33.64,15.39,15.39,0,0,1-3.36-.12A17.06,17.06,0,0,1,99.39,271.27Z" style="fill:#263238"></path><path d="M109.17,265.22c-.1.13-2.28-1.57-5.29-3.11s-5.64-2.36-5.6-2.51a17,17,0,0,1,5.84,2A17.28,17.28,0,0,1,109.17,265.22Z" style="fill:#263238"></path><path d="M68.8,267.88a3.72,3.72,0,0,1-.92.35,19.33,19.33,0,0,1-2.61.63A28.21,28.21,0,0,1,48,266.49a20.17,20.17,0,0,1-2.35-1.32,3.28,3.28,0,0,1-.79-.58c0-.08,1.24.66,3.29,1.56a31.26,31.26,0,0,0,17.11,2.35C67.43,268.18,68.77,267.79,68.8,267.88Z" style="fill:#263238"></path><path d="M72.28,265a6,6,0,0,1-2.38.19,12.85,12.85,0,0,1-9.74-5.62,6.23,6.23,0,0,1-1-2.15c.09,0,.47.78,1.33,1.94A14.42,14.42,0,0,0,64.64,263a14.21,14.21,0,0,0,5.29,1.77C71.37,264.94,72.27,264.86,72.28,265Z" style="fill:#263238"></path><path d="M82,260.24a4.09,4.09,0,0,1-1.94.43,8.46,8.46,0,0,1-8-4.61,4,4,0,0,1-.59-1.9c.08,0,.3.7.91,1.72A9,9,0,0,0,80,260.31C81.2,260.33,81.94,260.16,82,260.24Z" style="fill:#263238"></path><path d="M127.31,288.08a16.38,16.38,0,0,0,3.54-2.2,16.19,16.19,0,0,0,5-8.55,35.38,35.38,0,0,0,.52-10.07c-.09-1.21-.16-2.24-.22-3.08a4.27,4.27,0,0,1,0-1.13,5.16,5.16,0,0,1,.22,1.11c.11.72.25,1.77.39,3.07a31.94,31.94,0,0,1-.39,10.22,15.87,15.87,0,0,1-5.21,8.72,10.53,10.53,0,0,1-2.68,1.59A3.83,3.83,0,0,1,127.31,288.08Z" style="fill:#fff"></path><path d="M171.38,300.36c0,.19-1.57.58-4.45,1.32s-7,1.85-12.15,3.3-11.24,3.21-18.23,4.56A87.22,87.22,0,0,1,73.77,297.6c-2.29-1.41-4.23-2.89-6-4.16s-3.06-2.53-4.19-3.51c-2.16-2.09-3.28-3.3-3.16-3.43.32-.38,5.09,4.27,14.26,9.52a93.66,93.66,0,0,0,16.82,7.61,90.23,90.23,0,0,0,44.57,3.55c6.87-1.19,13-2.79,18.2-4s9.45-2.08,12.41-2.51S171.36,300.2,171.38,300.36Z" style="fill:#723f33"></path><path d="M340.09,72.28c8.36-.44-2.43,17-8.92,22.36a25.3,25.3,0,0,1-23.68,4.29,26.55,26.55,0,0,1-40.84,29.14c3.89,2.62,7.86,5.31,10.66,9.07s4.28,8.85,2.59,13.22-7.23,7.24-11.38,5.06c6.31-1.43,9.93-9.7,6.69-15.31-1.81-3.14-5.1-5.09-8.24-6.92s-6.4-3.85-8.12-7-1.14-7.92,2.13-9.5a14.31,14.31,0,0,0,17.71-22.3c-13.47,5.21-30.49-3-34.81-16.78s-.42-39.64,39.68-42.11c0,0,14.64-1.77,18.87,14S313.72,73.65,340.09,72.28Z" style="fill:#263238"></path><path d="M263.35,119s.19.49.62,1.39a12.58,12.58,0,0,0,2.56,3.48,15.08,15.08,0,0,0,5.85,3.47,14.91,14.91,0,0,0,8.93.12,19.39,19.39,0,0,0,9-6,23.74,23.74,0,0,0,5.27-11.31,36.65,36.65,0,0,0-.25-13.9,18.13,18.13,0,0,0-2.73-6.77A10.28,10.28,0,0,0,290,86.94a14.34,14.34,0,0,0-3.44-1.58c-2.43-.81-5-1.18-7.37-2.2a22.14,22.14,0,0,1-6.37-4,24.22,24.22,0,0,1-4.63-5.57,23.4,23.4,0,0,1-2.78-6.36,21.71,21.71,0,0,1,.13-12.69,22.44,22.44,0,0,1,6-9.34,24.92,24.92,0,0,1,7.69-5,23.69,23.69,0,0,1,6.73-1.66,17.31,17.31,0,0,1,2.53-.08,12.83,12.83,0,0,1,1.85.14l1.13.17a1.74,1.74,0,0,1,.38.08,1.89,1.89,0,0,1-.39,0l-1.13-.12a14,14,0,0,0-1.84-.08,19.11,19.11,0,0,0-2.51.12,24.11,24.11,0,0,0-6.64,1.73,24.66,24.66,0,0,0-7.55,5,22.24,22.24,0,0,0-5.82,9.2,21.39,21.39,0,0,0-.08,12.44,23.33,23.33,0,0,0,2.74,6.22,24.47,24.47,0,0,0,4.54,5.45,21.67,21.67,0,0,0,6.24,3.85c2.29,1,4.85,1.36,7.33,2.18a14.79,14.79,0,0,1,3.56,1.65,10.54,10.54,0,0,1,2.78,2.71,18.32,18.32,0,0,1,2.81,7,37.27,37.27,0,0,1,.22,14.1,24.08,24.08,0,0,1-5.42,11.51,19.64,19.64,0,0,1-9.26,6.06,15.4,15.4,0,0,1-15-3.79,12.09,12.09,0,0,1-2.51-3.59A9.07,9.07,0,0,1,263.35,119Z" style="fill:#455a64"></path><path d="M281.9,129.3l.34,0,1,.11a8.91,8.91,0,0,0,1.58.1,13.94,13.94,0,0,0,2.16-.1l1.27-.15,1.39-.31a9.87,9.87,0,0,0,1.48-.44,14.87,14.87,0,0,0,1.56-.58,22.62,22.62,0,0,0,6.54-4.25,24,24,0,0,0,5.58-7.6,22.67,22.67,0,0,0,2.1-10.56c-.18-7.68-4-15.9-10.31-22.08a43.24,43.24,0,0,0-5.08-4.15c-1.78-1.24-3.59-2.39-5.33-3.58-3.47-2.35-6.76-5-8.81-8.36a18.38,18.38,0,0,1-2.61-10.63,17.84,17.84,0,0,1,3-9.07,18.26,18.26,0,0,1,5.81-5.36,18.6,18.6,0,0,1,5.57-2.17,18.21,18.21,0,0,1,3.76-.37l1,.06.33,0a1.8,1.8,0,0,1-.34,0h-1a19.45,19.45,0,0,0-3.72.47,19,19,0,0,0-5.46,2.22,18.13,18.13,0,0,0-5.65,5.31,17.54,17.54,0,0,0-2.89,8.89,18,18,0,0,0,2.59,10.36c2,3.28,5.22,5.85,8.69,8.19,1.74,1.18,3.55,2.33,5.33,3.58a41.48,41.48,0,0,1,5.15,4.2c6.44,6.26,10.27,14.61,10.43,22.44a23,23,0,0,1-2.19,10.75,24.09,24.09,0,0,1-5.72,7.69,22.5,22.5,0,0,1-6.68,4.24,13.32,13.32,0,0,1-1.59.58,10,10,0,0,1-1.5.42l-1.41.3-1.29.13a13.67,13.67,0,0,1-2.19,0,7.8,7.8,0,0,1-1.59-.15l-1-.15A1.3,1.3,0,0,1,281.9,129.3Z" style="fill:#455a64"></path><path d="M309.47,63.23a10,10,0,0,1-.51,1.56c-.35,1-.83,2.43-1.31,4.24A31.41,31.41,0,0,0,307,83.47a22,22,0,0,0,3.09,7.32,19.68,19.68,0,0,0,4.42,4.78,20.53,20.53,0,0,0,5.33,2.8,1.3,1.3,0,0,1-.42-.07,9.9,9.9,0,0,1-1.17-.35,15.2,15.2,0,0,1-4-2.09,19.14,19.14,0,0,1-4.6-4.8,21.88,21.88,0,0,1-3.2-7.48,30.28,30.28,0,0,1,.79-14.65,38.64,38.64,0,0,1,1.47-4.22c.2-.49.38-.85.49-1.11A1.68,1.68,0,0,1,309.47,63.23Z" style="fill:#455a64"></path><path d="M205.19,66c2.63,18-5.27,40.61-18,53.51a59.75,59.75,0,0,1-49.72,16.93,43,43,0,0,1-35.34,18.72c-5.79,0-11.51-1.26-17.3-1.33s-12,1.26-16,5.41C107,116.88,152.72,88.19,205.19,66" style="fill:#263238"></path><path d="M74.55,149.27l.38.12c.25.08.61.23,1.1.38a17.54,17.54,0,0,0,4.4.71,21.86,21.86,0,0,0,7-1,31.89,31.89,0,0,0,8.42-4,88.9,88.9,0,0,0,8.89-7.08,81.57,81.57,0,0,1,10.35-8.06,60.81,60.81,0,0,1,13.18-6c4.78-1.58,9.84-2.8,15-4,10.37-2.27,20.34-4.55,28.52-8.82a50.23,50.23,0,0,0,5.72-3.47,38.8,38.8,0,0,0,4.83-4.06,33,33,0,0,0,6.39-9.29,28.47,28.47,0,0,0,2.47-9,23,23,0,0,0-.39-7,26.79,26.79,0,0,0-2.08-5.65l.2.34.55,1a10.69,10.69,0,0,1,.76,1.75,9.42,9.42,0,0,1,.41,1.14c.11.42.23.87.36,1.34a23.18,23.18,0,0,1,.48,7.1,28.31,28.31,0,0,1-2.43,9.1,33.06,33.06,0,0,1-6.41,9.44,38.68,38.68,0,0,1-4.87,4.13A49.84,49.84,0,0,1,172,112c-8.24,4.33-18.26,6.63-28.62,8.9-5.19,1.16-10.24,2.37-15,3.93a60.88,60.88,0,0,0-13.09,5.93,81.56,81.56,0,0,0-10.31,8,88.29,88.29,0,0,1-9,7.06,31.71,31.71,0,0,1-8.54,4,21.53,21.53,0,0,1-7,.91,16.39,16.39,0,0,1-4.42-.81c-.49-.17-.85-.33-1.09-.43A1.57,1.57,0,0,1,74.55,149.27Z" style="fill:#455a64"></path></g></svg>