<svg width="530.5875122070313px" height="121.60000610351562px" xmlns="http://www.w3.org/2000/svg" viewBox="-15.293756103515648 14.199996948242188 530.5875122070313 121.60000610351562" style="background: rgba(255, 255, 255, 0);" preserveAspectRatio="xMidYMid"><defs><filter id="editing-hover" x="-100%" y="-100%" width="300%" height="300%"><feFlood flood-color="rgba(0%,0%,0%,0.092)" result="flood"></feFlood><feComposite operator="in" in2="SourceAlpha" in="flood" result="shadow"></feComposite><feOffset dx="1.5" dy="-1.4" in="SourceGraphic" result="offset-1"></feOffset><feOffset dx="-1.5" dy="1.4" in="shadow" result="offset-2"></feOffset><feMerge><feMergeNode in="offset-2"></feMergeNode><feMergeNode in="offset-1"></feMergeNode></feMerge></filter></defs><g filter="url(#editing-hover)"><g transform="translate(61.999977707862854, 98.67999649047852)"><path d="M34.50-13.25L34.50-13.25L34.50-13.25Q36.16-12.03 36.16-9.44L36.16-9.44L36.16-9.44Q36.16-6.85 35.04-5.02L35.04-5.02L35.04-5.02Q33.92-3.20 31.74-1.79L31.74-1.79L31.74-1.79Q27.07 1.22 18.91 1.22L18.91 1.22L18.91 1.22Q10.75 1.22 6.30-3.04L6.30-3.04L6.30-3.04Q1.86-7.30 1.86-14.85L1.86-14.85L1.86-14.85Q1.86-25.54 7.42-33.66L7.42-33.66L7.42-33.66Q11.65-39.68 19.20-42.24L19.20-42.24L19.20-42.24Q23.10-43.52 26.94-43.52L26.94-43.52L26.94-43.52Q30.78-43.52 33.15-43.01L33.15-43.01L33.15-43.01Q35.52-42.50 37.31-41.47L37.31-41.47L37.31-41.47Q41.22-39.23 41.22-35.65L41.22-35.65L41.22-35.65Q41.22-32.38 38.14-29.95L38.14-29.95L38.14-29.95Q35.33-27.78 33.02-27.78L33.02-27.78L33.02-27.78Q30.72-27.78 29.76-28.10L29.76-28.10L29.76-28.10Q30.02-30.40 30.02-31.90L30.02-31.90L30.02-31.90Q30.02-33.41 29.95-34.50L29.95-34.50L29.95-34.50Q29.89-35.58 29.57-36.61L29.57-36.61L29.57-36.61Q28.93-38.98 26.98-38.98L26.98-38.98L26.98-38.98Q25.02-38.98 23.07-37.15L23.07-37.15L23.07-37.15Q21.12-35.33 19.46-32.26L19.46-32.26L19.46-32.26Q15.68-25.28 15.68-17.02L15.68-17.02L15.68-17.02Q15.68-13.06 17.92-10.78L17.92-10.78L17.92-10.78Q20.16-8.51 24.96-8.51L24.96-8.51L24.96-8.51Q28.54-8.51 31.94-10.88L31.94-10.88L31.94-10.88Q33.41-11.90 34.50-13.25ZM55.42 1.28L55.42 1.28L55.42 1.28Q41.34 1.28 41.34-11.97L41.34-11.97L41.34-11.97Q41.34-21.38 46.53-27.46L46.53-27.46L46.53-27.46Q52.03-33.92 61.57-33.92L61.57-33.92L61.57-33.92Q68.48-33.92 72-30.72L72-30.72L72-30.72Q75.52-27.52 75.52-20.80L75.52-20.80L75.52-20.80Q75.52-10.56 70.02-4.61L70.02-4.61L70.02-4.61Q64.64 1.28 55.42 1.28ZM57.09-26.56L57.09-26.56L57.09-26.56Q56.32-24.83 55.71-22.24L55.71-22.24L55.71-22.24Q55.10-19.65 54.34-15.55L54.34-15.55L54.34-15.55Q53.57-11.46 53.57-6.40L53.57-6.40L53.57-6.40Q53.57-4.74 54.11-3.65L54.11-3.65L54.11-3.65Q54.66-2.56 56.13-2.56L56.13-2.56L56.13-2.56Q57.60-2.56 58.53-3.26L58.53-3.26L58.53-3.26Q59.46-3.97 60.16-5.63L60.16-5.63L60.16-5.63Q61.44-8.58 62.46-14.05L62.46-14.05L62.46-14.05Q63.49-19.52 63.58-21.89L63.58-21.89L63.58-21.89Q63.68-24.26 63.68-26.02L63.68-26.02L63.68-26.02Q63.68-27.78 63.17-28.93L63.17-28.93L63.17-28.93Q62.66-30.08 61.22-30.08L61.22-30.08L61.22-30.08Q59.78-30.08 58.82-29.18L58.82-29.18L58.82-29.18Q57.86-28.29 57.09-26.56ZM93.25 1.28L93.25 1.28L93.25 1.28Q79.17 1.28 79.17-11.97L79.17-11.97L79.17-11.97Q79.17-21.38 84.35-27.46L84.35-27.46L84.35-27.46Q89.86-33.92 99.39-33.92L99.39-33.92L99.39-33.92Q106.30-33.92 109.82-30.72L109.82-30.72L109.82-30.72Q113.34-27.52 113.34-20.80L113.34-20.80L113.34-20.80Q113.34-10.56 107.84-4.61L107.84-4.61L107.84-4.61Q102.46 1.28 93.25 1.28ZM94.91-26.56L94.91-26.56L94.91-26.56Q94.14-24.83 93.54-22.24L93.54-22.24L93.54-22.24Q92.93-19.65 92.16-15.55L92.16-15.55L92.16-15.55Q91.39-11.46 91.39-6.40L91.39-6.40L91.39-6.40Q91.39-4.74 91.94-3.65L91.94-3.65L91.94-3.65Q92.48-2.56 93.95-2.56L93.95-2.56L93.95-2.56Q95.42-2.56 96.35-3.26L96.35-3.26L96.35-3.26Q97.28-3.97 97.98-5.63L97.98-5.63L97.98-5.63Q99.26-8.58 100.29-14.05L100.29-14.05L100.29-14.05Q101.31-19.52 101.41-21.89L101.41-21.89L101.41-21.89Q101.50-24.26 101.50-26.02L101.50-26.02L101.50-26.02Q101.50-27.78 100.99-28.93L100.99-28.93L100.99-28.93Q100.48-30.08 99.04-30.08L99.04-30.08L99.04-30.08Q97.60-30.08 96.64-29.18L96.64-29.18L96.64-29.18Q95.68-28.29 94.91-26.56ZM132.42-3.52L132.42-3.52L132.42-3.52Q130.43 1.28 124.10 1.28L124.10 1.28L124.10 1.28Q120.90 1.28 118.85-0.96L118.85-0.96L118.85-0.96Q117.18-2.82 117.18-4.93L117.18-4.93L117.18-4.93Q117.18-9.73 119.42-20.22L119.42-20.22L124.10-44.80L137.09-46.08L130.88-13.70L130.88-13.70Q129.79-8.96 129.79-7.30L129.79-7.30L129.79-7.30Q129.79-3.65 132.42-3.52ZM162.82-29.57L162.82-29.57L162.82-29.57Q163.78-31.49 163.78-33.28L163.78-33.28L163.78-33.28Q163.78-35.07 163.58-36.06L163.58-36.06L163.58-36.06Q163.39-37.06 162.94-37.82L162.94-37.82L162.94-37.82Q161.98-39.49 160.06-39.49L160.06-39.49L160.06-39.49Q157.70-39.49 155.78-37.76L155.78-37.76L155.78-37.76Q153.73-35.97 153.73-33.15L153.73-33.15L153.73-33.15Q153.73-31.36 154.98-29.98L154.98-29.98L154.98-29.98Q156.22-28.61 158.14-27.33L158.14-27.33L158.14-27.33Q160.06-26.05 162.24-24.77L162.24-24.77L162.24-24.77Q164.42-23.49 166.34-21.95L166.34-21.95L166.34-21.95Q170.75-18.43 170.75-13.70L170.75-13.70L170.75-13.70Q170.75-10.50 169.06-7.78L169.06-7.78L169.06-7.78Q167.36-5.06 164.54-3.07L164.54-3.07L164.54-3.07Q158.40 1.28 150.27 1.28L150.27 1.28L150.27 1.28Q143.68 1.28 140.29-0.86L140.29-0.86L140.29-0.86Q136.90-3.01 136.90-6.27L136.90-6.27L136.90-6.27Q136.90-12.10 141.44-13.57L141.44-13.57L141.44-13.57Q142.72-14.02 144.67-14.02L144.67-14.02L144.67-14.02Q146.62-14.02 148.86-13.18L148.86-13.18L148.86-13.18Q147.84-10.56 147.84-8.19L147.84-8.19L147.84-8.19Q147.84-3.07 151.49-3.07L151.49-3.07L151.49-3.07Q153.86-3.07 155.81-4.80L155.81-4.80L155.81-4.80Q157.76-6.53 157.76-8.48L157.76-8.48L157.76-8.48Q157.76-10.43 156.51-11.84L156.51-11.84L156.51-11.84Q155.26-13.25 153.41-14.37L153.41-14.37L153.41-14.37Q151.55-15.49 149.41-16.58L149.41-16.58L149.41-16.58Q147.26-17.66 145.41-19.20L145.41-19.20L145.41-19.20Q141.06-22.72 141.06-28.35L141.06-28.35L141.06-28.35Q141.06-32 142.85-34.85L142.85-34.85L142.85-34.85Q144.64-37.70 147.52-39.62L147.52-39.62L147.52-39.62Q153.28-43.52 160.35-43.52L160.35-43.52L160.35-43.52Q167.42-43.52 170.85-41.41L170.85-41.41L170.85-41.41Q174.27-39.30 174.27-35.71L174.27-35.71L174.27-35.71Q174.27-32.58 171.84-30.59L171.84-30.59L171.84-30.59Q169.73-28.93 167.17-28.93L167.17-28.93L167.17-28.93Q164.61-28.93 162.82-29.57ZM207.04-26.62L207.04-26.62L207.04-26.62Q207.04-23.94 204.80-22.27L204.80-22.27L204.80-22.27Q202.56-20.61 198.91-20.61L198.91-20.61L198.91-20.61Q197.38-20.61 196.48-21.06L196.48-21.06L196.48-21.06Q197.18-22.72 197.41-24.80L197.41-24.80L197.41-24.80Q197.63-26.88 197.63-27.46L197.63-27.46L197.63-27.46Q197.63-30.14 195.78-30.14L195.78-30.14L195.78-30.14Q194.50-30.14 193.06-28.54L193.06-28.54L193.06-28.54Q191.62-26.94 190.40-24.45L190.40-24.45L190.40-24.45Q187.71-18.69 187.71-12.86L187.71-12.86L187.71-12.86Q187.71-9.66 188.93-8.22L188.93-8.22L188.93-8.22Q190.14-6.78 192.83-6.78L192.83-6.78L192.83-6.78Q196.54-6.78 199.49-9.86L199.49-9.86L199.49-9.86Q200.32-10.82 200.77-11.90L200.77-11.90L200.77-11.90Q203.20-10.62 203.20-7.10L203.20-7.10L203.20-7.10Q203.20-3.52 199.23-1.15L199.23-1.15L199.23-1.15Q195.14 1.28 188.61 1.28L188.61 1.28L188.61 1.28Q175.62 1.28 175.62-12.48L175.62-12.48L175.62-12.48Q175.62-22.53 181.31-28.29L181.31-28.29L181.31-28.29Q186.82-33.92 196.93-33.92L196.93-33.92L196.93-33.92Q207.04-33.92 207.04-26.62ZM240.96-7.10L240.96-7.10L240.96-7.10Q240.96-4.29 243.84-3.46L243.84-3.46L243.84-3.46Q243.14-1.09 240.38 0.19L240.38 0.19L240.38 0.19Q238.08 1.28 235.55 1.28L235.55 1.28L235.55 1.28Q233.02 1.28 231.71 0.61L231.71 0.61L231.71 0.61Q230.40-0.06 229.70-1.15L229.70-1.15L229.70-1.15Q228.54-2.82 228.54-5.95L228.54-5.95L228.54-5.95Q228.54-7.81 229.57-12.93L229.57-12.93L230.46-17.79L230.46-17.79Q231.55-23.36 231.55-25.41L231.55-25.41L231.55-25.41Q231.55-28.99 229.57-28.99L229.57-28.99L229.57-28.99Q227.07-28.99 225.47-25.34L225.47-25.34L225.47-25.34Q224.83-23.94 224.38-21.82L224.38-21.82L220.03 0L207.17 1.28L216.19-44.80L229.06-46.08L228.54-43.52L228.54-43.52Q226.75-33.66 225.22-30.34L225.22-30.34L225.22-30.34Q228.80-33.92 235.39-33.92L235.39-33.92L235.39-33.92Q242.37-33.92 243.65-29.31L243.65-29.31L243.65-29.31Q244.10-27.84 244.10-26.56L244.10-26.56L244.10-26.56Q244.10-25.28 244-24.29L244-24.29L244-24.29Q243.90-23.30 243.58-21.50L243.58-21.50L242.75-16.90L241.28-9.66L241.28-9.66Q240.96-8.19 240.96-7.10ZM262.98 1.28L262.98 1.28L262.98 1.28Q248.90 1.28 248.90-11.97L248.90-11.97L248.90-11.97Q248.90-21.38 254.08-27.46L254.08-27.46L254.08-27.46Q259.58-33.92 269.12-33.92L269.12-33.92L269.12-33.92Q276.03-33.92 279.55-30.72L279.55-30.72L279.55-30.72Q283.07-27.52 283.07-20.80L283.07-20.80L283.07-20.80Q283.07-10.56 277.57-4.61L277.57-4.61L277.57-4.61Q272.19 1.28 262.98 1.28ZM264.64-26.56L264.64-26.56L264.64-26.56Q263.87-24.83 263.26-22.24L263.26-22.24L263.26-22.24Q262.66-19.65 261.89-15.55L261.89-15.55L261.89-15.55Q261.12-11.46 261.12-6.40L261.12-6.40L261.12-6.40Q261.12-4.74 261.66-3.65L261.66-3.65L261.66-3.65Q262.21-2.56 263.68-2.56L263.68-2.56L263.68-2.56Q265.15-2.56 266.08-3.26L266.08-3.26L266.08-3.26Q267.01-3.97 267.71-5.63L267.71-5.63L267.71-5.63Q268.99-8.58 270.02-14.05L270.02-14.05L270.02-14.05Q271.04-19.52 271.14-21.89L271.14-21.89L271.14-21.89Q271.23-24.26 271.23-26.02L271.23-26.02L271.23-26.02Q271.23-27.78 270.72-28.93L270.72-28.93L270.72-28.93Q270.21-30.08 268.77-30.08L268.77-30.08L268.77-30.08Q267.33-30.08 266.37-29.18L266.37-29.18L266.37-29.18Q265.41-28.29 264.64-26.56ZM300.80 1.28L300.80 1.28L300.80 1.28Q286.72 1.28 286.72-11.97L286.72-11.97L286.72-11.97Q286.72-21.38 291.90-27.46L291.90-27.46L291.90-27.46Q297.41-33.92 306.94-33.92L306.94-33.92L306.94-33.92Q313.86-33.92 317.38-30.72L317.38-30.72L317.38-30.72Q320.90-27.52 320.90-20.80L320.90-20.80L320.90-20.80Q320.90-10.56 315.39-4.61L315.39-4.61L315.39-4.61Q310.02 1.28 300.80 1.28ZM302.46-26.56L302.46-26.56L302.46-26.56Q301.70-24.83 301.09-22.24L301.09-22.24L301.09-22.24Q300.48-19.65 299.71-15.55L299.71-15.55L299.71-15.55Q298.94-11.46 298.94-6.40L298.94-6.40L298.94-6.40Q298.94-4.74 299.49-3.65L299.49-3.65L299.49-3.65Q300.03-2.56 301.50-2.56L301.50-2.56L301.50-2.56Q302.98-2.56 303.90-3.26L303.90-3.26L303.90-3.26Q304.83-3.97 305.54-5.63L305.54-5.63L305.54-5.63Q306.82-8.58 307.84-14.05L307.84-14.05L307.84-14.05Q308.86-19.52 308.96-21.89L308.96-21.89L308.96-21.89Q309.06-24.26 309.06-26.02L309.06-26.02L309.06-26.02Q309.06-27.78 308.54-28.93L308.54-28.93L308.54-28.93Q308.03-30.08 306.59-30.08L306.59-30.08L306.59-30.08Q305.15-30.08 304.19-29.18L304.19-29.18L304.19-29.18Q303.23-28.29 302.46-26.56ZM339.97-3.52L339.97-3.52L339.97-3.52Q337.98 1.28 331.65 1.28L331.65 1.28L331.65 1.28Q328.45 1.28 326.40-0.96L326.40-0.96L326.40-0.96Q324.74-2.82 324.74-4.93L324.74-4.93L324.74-4.93Q324.74-9.73 326.98-20.22L326.98-20.22L331.65-44.80L344.64-46.08L338.43-13.70L338.43-13.70Q337.34-8.96 337.34-7.30L337.34-7.30L337.34-7.30Q337.34-3.65 339.97-3.52ZM364.54-22.46L364.54-22.46L364.54-22.46Q365.44-24.83 365.44-26.88L365.44-26.88L365.44-26.88Q365.44-30.66 362.37-30.66L362.37-30.66L362.37-30.66Q360.77-30.66 359.46-29.22L359.46-29.22L359.46-29.22Q358.14-27.78 358.14-25.98L358.14-25.98L358.14-25.98Q358.14-24.70 359.17-23.68L359.17-23.68L359.17-23.68Q360.64-22.27 364.42-19.97L364.42-19.97L364.42-19.97Q368.19-17.66 369.63-15.78L369.63-15.78L369.63-15.78Q371.07-13.89 371.07-11.30L371.07-11.30L371.07-11.30Q371.07-8.70 369.82-6.34L369.82-6.34L369.82-6.34Q368.58-3.97 366.34-2.30L366.34-2.30L366.34-2.30Q361.54 1.28 353.86 1.28L353.86 1.28L353.86 1.28Q349.70 1.28 346.50-0.90L346.50-0.90L346.50-0.90Q343.30-3.01 343.30-5.50L343.30-5.50L343.30-5.50Q343.30-8 345.12-9.47L345.12-9.47L345.12-9.47Q346.94-10.94 349.63-10.94L349.63-10.94L349.63-10.94Q352.32-10.94 353.98-9.92L353.98-9.92L353.98-9.92Q353.15-7.81 353.15-6.40L353.15-6.40L353.15-6.40Q353.15-2.18 356.74-2.18L356.74-2.18L356.74-2.18Q358.27-2.18 359.30-3.14L359.30-3.14L359.30-3.14Q360.32-4.10 360.32-5.76L360.32-5.76L360.32-5.76Q360.32-9.02 354.82-12.48L354.82-12.48L354.82-12.48Q350.34-15.42 349.31-16.58L349.31-16.58L349.31-16.58Q347.58-18.62 347.58-21.18L347.58-21.18L347.58-21.18Q347.58-23.74 348.80-26.18L348.80-26.18L348.80-26.18Q350.02-28.61 352.26-30.34L352.26-30.34L352.26-30.34Q356.93-33.92 365.06-33.92L365.06-33.92L365.06-33.92Q369.22-33.92 371.68-32.26L371.68-32.26L371.68-32.26Q374.14-30.59 374.14-27.78L374.14-27.78L374.14-27.78Q374.14-24.96 372.45-23.36L372.45-23.36L372.45-23.36Q370.75-21.76 367.68-21.76L367.68-21.76L367.68-21.76Q365.57-21.76 364.54-22.46Z" fill="#00c49a"></path></g></g><style>text {
  font-size: 64px;
  font-family: Arial Black;
  dominant-baseline: central;
  text-anchor: middle;
}</style></svg>