<svg xmlns="http://www.w3.org/2000/svg"  viewBox="0 0 32 32" width="32px" height="32px"><path fill="#1c79a3" d="M23,11H9A1,1,0,0,1,9,9H23a1,1,0,0,1,0,2Z"/><path fill="#1c79a3" d="M23,23H9a1,1,0,0,1,0-2H23a1,1,0,0,1,0,2Z"/><path fill="#1c79a3" d="M23,17H9a1,1,0,0,1,0-2H23a1,1,0,0,1,0,2Z"/><path fill="#063a5e" d="M24,28H8a5.006,5.006,0,0,1-5-5V9A5.006,5.006,0,0,1,8,4H24a5.006,5.006,0,0,1,5,5V23A5.006,5.006,0,0,1,24,28ZM8,6A3,3,0,0,0,5,9V23a3,3,0,0,0,3,3H24a3,3,0,0,0,3-3V9a3,3,0,0,0-3-3Z"/><path fill="#1c79a3" d="M19,13a1,1,0,0,1-1-1V8a1,1,0,0,1,2,0v4A1,1,0,0,1,19,13Z"/><path fill="#1c79a3" d="M21,25a1,1,0,0,1-1-1V20a1,1,0,0,1,2,0v4A1,1,0,0,1,21,25Z"/><path fill="#1c79a3" d="M15,19a1,1,0,0,1-1-1V14a1,1,0,0,1,2,0v4A1,1,0,0,1,15,19Z"/></svg>