<svg xmlns="http://www.w3.org/2000/svg"  viewBox="0 0 100 100" width="100px" height="100px"><path fill="#c7ede6" d="M87.215,56.71C88.351,54.556,89,52.104,89,49.5c0-6.621-4.159-12.257-10.001-14.478L79,35 c0-11.598-9.402-21-21-21c-9.784,0-17.981,6.701-20.313,15.757C36.211,29.271,34.639,29,33,29c-7.692,0-14.022,5.793-14.89,13.252 C12.906,43.353,9,47.969,9,53.5C9,59.852,14.148,65,20.5,65c0.178,0,0.352-0.012,0.526-0.021C21.021,65.153,21,65.324,21,65.5 C21,76.822,30.178,86,41.5,86c6.438,0,12.176-2.973,15.934-7.613C59.612,80.611,62.641,82,66,82c4.65,0,8.674-2.65,10.666-6.518 C77.718,75.816,78.837,76,80,76c6.075,0,11-4.925,11-11C91,61.688,89.53,58.727,87.215,56.71z"/><path fill="#fdfcef" d="M78,82h5.75c2.485,0.75,4.5-1.265,4.5-3.75c0-2.333-1.782-4.229-4.055-4.455 c0.021-0.181,0.055-0.358,0.055-0.545c0-2.485-2.015-4.5-4.5-4.5c-1.438,0-2.703,0.687-3.526,1.735 c-0.141-2.636-2.303-4.735-4.974-4.735c-2.762,0-5,2.238-5,5c0,0.446,0.077,0.87,0.187,1.282c-0.642-0.777-1.601-1.282-2.687-1.282 c-1.78,0-3.234,1.335-3.455,3.055c-0.181-0.021-0.358-0.055-0.545-0.055c-2.485,0-4.5,2.015-4.5,4.5s2.015,4.5,4.5,3.75h9.5H75v1h3 V82z"/><path fill="#472b29" d="M71.5,65c-3.032,0-5.5,2.467-5.5,5.5v0.047C65.397,70.192,64.71,70,64,70 c-1.831,0-3.41,1.261-3.858,3.005L60,73c-3.099,0-5.549,2.834-4.893,6.047C55.587,81.398,57.796,83,60.196,83h14.679 c0.276,0,0.5-0.224,0.5-0.5s-0.224-0.5-0.5-0.5H60.156c-1.92,0-3.687-1.281-4.07-3.163C55.562,76.268,57.521,74,60,74 c0.117,0,0.23,0.017,0.343,0.032l0.142,0.019l0.062,0.004c0.246,0,0.462-0.185,0.495-0.437C61.232,72.125,62.504,71,64,71 c0.885,0,1.723,0.4,2.301,1.1c0.099,0.118,0.241,0.182,0.387,0.182l0.228-0.056c0.209-0.107,0.314-0.346,0.255-0.572 c-0.16-0.601-0.201-1.068-0.147-1.549c0.24-2.127,1.96-3.908,4.093-4.088c2.551-0.215,4.725,1.728,4.858,4.246 c0.012,0.208,0.15,0.387,0.349,0.449l0.152,0.024c0.15,0,0.296-0.069,0.392-0.192C77.638,69.563,78.779,69,80,69 c2.205,0,4,1.794,4,4c0,0.117-0.018,0.23-0.032,0.343l-0.02,0.142c-0.016,0.134,0.022,0.268,0.107,0.373 c0.083,0.104,0.206,0.172,0.34,0.185c2.353,0.234,4.042,2.43,3.504,4.865C87.491,80.761,85.725,82,83.827,82h-5.952 c-0.276,0-0.5,0.224-0.5,0.5s0.224,0.5,0.5,0.5h5.938c2.467,0,4.707-1.704,5.114-4.138c0.462-2.763-1.344-5.22-3.932-5.74L85,73 c0-2.757-2.243-5-5-5c-1.177,0-2.293,0.415-3.184,1.164C76.219,66.76,74.056,65,71.5,65z"/><path fill="#472b29" d="M69.75 72.25c-1.403 0-2.608.998-2.913 2.341-.367-.222-.786-.341-1.212-.341-1.202 0-2.198.896-2.353 2.067-.203-.045-.396-.067-.585-.067-1.529 0-2.811 1.2-2.918 2.732-.009.138.094.257.232.267l.018.001c.13 0 .239-.101.249-.232.089-1.271 1.151-2.268 2.419-2.268.229 0 .47.041.738.127l.066.011.155-.054.103-.209c0-1.034.841-1.875 1.875-1.875.447 0 .885.168 1.231.473l.165.063.094-.019c.088-.035.147-.117.155-.212.102-1.293 1.191-2.305 2.479-2.305.208 0 .426.034.682.106l.07.011c.108 0 .207-.073.238-.183.038-.133-.039-.271-.172-.309C70.267 72.29 70.006 72.25 69.75 72.25zM83.633 73.75c-1.326 0-2.508.896-2.873 2.182-.038.133.039.271.172.309L81 76.25c.108 0 .209-.072.24-.182.305-1.071 1.289-1.818 2.393-1.818.117 0 .23.014.342.028l.035.003c.121 0 .229-.092.246-.217.019-.137-.077-.263-.215-.281C83.907 73.766 83.772 73.75 83.633 73.75z"/><path fill="#fff" d="M70.405 27H60.5c-.276 0-.5-.224-.5-.5s.224-.5.5-.5h9.905c.275 0 .5.224.5.5S70.682 27 70.405 27zM73.5 27h-1c-.276 0-.5-.224-.5-.5s.224-.5.5-.5h1c.276 0 .5.224.5.5S73.777 27 73.5 27zM78.491 29H69.5c-.276 0-.5-.224-.5-.5s.224-.5.5-.5h8.991c.275 0 .5.224.5.5S78.767 29 78.491 29zM67.5 29h-1c-.276 0-.5-.224-.5-.5s.224-.5.5-.5h1c.276 0 .5.224.5.5S67.777 29 67.5 29zM64.5 29h-2c-.276 0-.5-.224-.5-.5s.224-.5.5-.5h2c.276 0 .5.224.5.5S64.777 29 64.5 29zM70.5 31h-2c-.276 0-.5-.224-.5-.5s.224-.5.5-.5h2c.276 0 .5.224.5.5S70.776 31 70.5 31zM73.5 22c-.177 0-.823 0-1 0-.276 0-.5.224-.5.5s.224.5.5.5c.177 0 .823 0 1 0 .276 0 .5-.224.5-.5S73.776 22 73.5 22zM73.5 24c-.177 0-4.823 0-5 0-.276 0-.5.224-.5.5s.224.5.5.5c.177 0 4.823 0 5 0 .276 0 .5-.224.5-.5S73.776 24 73.5 24zM78.5 26c-.177 0-2.823 0-3 0-.276 0-.5.224-.5.5s.224.5.5.5c.177 0 2.823 0 3 0 .276 0 .5-.224.5-.5S78.776 26 78.5 26zM37 80H27c-.276 0-.5-.224-.5-.5S26.724 79 27 79h10c.276 0 .5.224.5.5S37.276 80 37 80zM41 80h-2c-.276 0-.5-.224-.5-.5S38.724 79 39 79h2c.276 0 .5.224.5.5S41.276 80 41 80zM46 82H36c-.276 0-.5-.224-.5-.5S35.724 81 36 81h10c.276 0 .5.224.5.5S46.277 82 46 82zM34 82h-1c-.276 0-.5-.224-.5-.5S32.724 81 33 81h1c.276 0 .5.224.5.5S34.276 82 34 82zM30.875 82H29c-.276 0-.5-.224-.5-.5S28.724 81 29 81h1.875c.276 0 .5.224.5.5S31.151 82 30.875 82zM40 78h-5c-.276 0-.5-.224-.5-.5S34.724 77 35 77h5c.276 0 .5.224.5.5S40.277 78 40 78zM37 84h-2c-.276 0-.5-.224-.5-.5S34.724 83 35 83h2c.276 0 .5.224.5.5S37.276 84 37 84z"/><path fill="#472b29" d="M28.746 46.447L28.746 66.889 30.146 66.889 30.146 46.447"/><path fill="#97aec7" d="M23.686 45.479L51.041 32.987 78.396 45.477 51.041 57.97z"/><path fill="#472b29" d="M51.041,33.757l25.671,11.72L51.041,57.2L25.37,45.479L51.041,33.757 M51.041,32.218L22,45.479 l29.041,13.26l29.041-13.263L51.041,32.218z"/><path fill="#b0c1d4" d="M35.7,59.729V47.267l0.053-0.13C36.425,45.483,42.444,43.7,51,43.7s14.575,1.783,15.247,3.437 l0.053,0.13v12.462H35.7z"/><path fill="#472b29" d="M51,44.4c8.908,0,14.161,1.923,14.599,3l0.001,0.003v11.626H36.4V47.403l0.001-0.003 C36.839,46.323,42.092,44.4,51,44.4 M51,43c-8.235,0-15.011,1.695-15.896,3.873H35v13.556h32V46.873h-0.104 C66.011,44.695,59.235,43,51,43z"/><path fill="#66798f" d="M51 56.7A15.3 4.3 0 1 0 51 65.3A15.3 4.3 0 1 0 51 56.7Z"/><path fill="#472b29" d="M51,57.4c9.633,0,14.6,2.523,14.6,3.6s-4.967,3.6-14.6,3.6S36.4,62.076,36.4,61S41.367,57.4,51,57.4 M51,56c-8.837,0-16,2.238-16,5s7.163,5,16,5s16-2.238,16-5S59.837,56,51,56z"/><path fill="#ecad6f" d="M27.397,68.59l-0.411-0.892c-0.201-0.41-0.303-0.833-0.303-1.257c0-1.585,1.289-2.874,2.874-2.874 s2.874,1.289,2.874,2.874c0,0.587-0.179,1.153-0.519,1.64l-0.03,0.043l-2.357,4.778L27.397,68.59z"/><path fill="#472b29" d="M29.558,64.268c1.199,0,2.175,0.975,2.175,2.174c0,0.442-0.136,0.871-0.393,1.239l-0.061,0.086 l-0.047,0.095l-1.707,3.459l-0.944-1.915h0.021l-0.987-2.016c-0.154-0.314-0.232-0.633-0.232-0.948 C27.383,65.242,28.358,64.268,29.558,64.268 M29.558,62.867c-1.975,0-3.574,1.601-3.574,3.574c0,0.563,0.142,1.09,0.374,1.564 h-0.028l3.196,6.479l2.962-6.003c0.404-0.579,0.645-1.28,0.645-2.04C33.132,64.468,31.531,62.867,29.558,62.867z"/><path fill="#fdfcef" d="M25,31c0,0-1.817,0-3.75,0s-3.5-1.567-3.5-3.5c0-1.78,1.335-3.234,3.055-3.455 c-0.028-0.179-0.055-0.358-0.055-0.545c0-1.933,1.567-3.5,3.5-3.5c1.032,0,1.949,0.455,2.59,1.165 C27.225,19.357,28.827,18,30.75,18c2.209,0,4,1.791,4,4c0,0.191-0.03,0.374-0.057,0.558C35.122,22.214,35.658,22,36.25,22 c1.229,0,2.244,0.888,2.455,2.055C38.884,24.026,39.063,24,39.25,24c1.933,0,3.5,1.567,3.5,3.5s-1.567,3.5-3.5,3.5S32,31,32,31v1 h-7V31z"/><path fill="#472b29" d="M23 26.5c.138 0 .25-.112.25-.25 0-1.224-.995-2.219-2.218-2.219-.034.009-.737-.001-1.244.136-.133.036-.212.173-.176.307.035.134.172.213.306.176.444-.119 1.1-.119 1.112-.118.948 0 1.72.771 1.72 1.719C22.75 26.388 22.861 26.5 23 26.5zM29.5 31A.5.5 0 1 0 29.5 32 .5.5 0 1 0 29.5 31z"/><path fill="#472b29" d="M17.418,29.157C17.923,30.889,19.622,32,21.426,32h3.324c0.276,0,0.5-0.224,0.5-0.5 s-0.224-0.5-0.5-0.5h-3.396c-1.242,0-2.435-0.701-2.886-1.859c-0.754-1.938,0.536-3.86,2.399-4.1 c0.134-0.018,0.256-0.088,0.337-0.196c0.081-0.107,0.114-0.244,0.094-0.377C21.275,24.314,21.25,24.16,21.25,24 c0-1.654,1.346-3,3-3c0.85,0,1.638,0.354,2.22,1c0.125,0.139,0.321,0.197,0.5,0.147c0.182-0.049,0.321-0.195,0.36-0.379 C27.671,20.164,29.109,19,30.75,19c1.93,0,3.5,1.57,3.5,3.5c0,0.144-0.021,0.28-0.041,0.418c-0.029,0.203,0.063,0.438,0.242,0.54 s0.396,0.117,0.556-0.01C35.372,23.155,35.802,23,36.25,23c0.966,0,1.792,0.691,1.963,1.644c0.049,0.267,0.296,0.446,0.569,0.405 C38.936,25.025,39.09,25,39.25,25c1.97,0,3.503,1.908,2.846,3.974C41.7,30.218,40.46,31,39.154,31H31.75 c-0.276,0-0.5,0.224-0.5,0.5s0.224,0.5,0.5,0.5h7.344c1.92,0,3.687-1.281,4.07-3.163C43.688,26.268,41.729,24,39.25,24 l-0.174,0.006C38.662,22.82,37.539,22,36.25,22c-0.349,0-0.688,0.062-1.011,0.18C35.074,19.848,33.124,18,30.75,18 c-1.831,0-3.466,1.127-4.153,2.774C25.917,20.275,25.095,20,24.25,20c-2.205,0-4,1.794-4,4l0.004,0.142 C18.151,24.683,16.75,26.869,17.418,29.157z"/><path fill="#472b29" d="M26.75 31c.159 0 .841 0 1 0 .276 0 .5.224.5.5s-.224.5-.5.5c-.159 0-.841 0-1 0-.276 0-.5-.224-.5-.5S26.474 31 26.75 31zM58.983 54.603c1.671.316 3.3.736 4.859 1.255.262.087.545-.054.632-.316.087-.262-.054-.545-.316-.632-1.604-.535-3.276-.965-4.989-1.29-.271-.051-.533.127-.584.398C58.533 54.29 58.712 54.551 58.983 54.603L58.983 54.603zM54.034 53.97c.892.061 1.779.15 2.658.265.274.036.525-.157.561-.43.036-.274-.157-.525-.43-.561-.9-.119-1.808-.21-2.721-.272-.276-.019-.514.189-.533.465C53.551 53.713 53.759 53.952 54.034 53.97L54.034 53.97zM38.158 55.858c3.978-1.325 8.411-1.992 12.844-1.992.209 0 .418.001.626.005.276.004.503-.216.508-.492.004-.276-.216-.503-.492-.508-.215-.003-.428-.005-.642-.005-4.533 0-9.067.68-13.16 2.043-.262.087-.404.37-.316.632C37.613 55.804 37.896 55.945 38.158 55.858L38.158 55.858z"/></svg>