<svg xmlns="http://www.w3.org/2000/svg"  viewBox="0 0 64 64" width="64px" height="64px"><path fill="#3e3ef4" d="M49.60286,44.14039l-1.59814-2.69433-1.59815,2.69433a1.50211,1.50211,0,0,1-.96094.69825l-3.05615.68652,2.06836,2.35351a1.50128,1.50128,0,0,1,.36719,1.12989l-.291,3.11816,2.87647-1.24023a1.49638,1.49638,0,0,1,1.18847,0l2.87647,1.24023-.291-3.11816a1.50128,1.50128,0,0,1,.36719-1.12989L53.62,45.52516l-3.05615-.68652A1.50213,1.50213,0,0,1,49.60286,44.14039Z"/><path fill="#3e3ef4" d="M60.38411,42.3777a5.778,5.778,0,0,0-7.25146-7.252,5.77875,5.77875,0,0,0-10.25586,0,5.77769,5.77769,0,0,0-7.25147,7.252,5.77756,5.77756,0,0,0,0,10.25586,5.77815,5.77815,0,0,0,7.25147,7.25195,5.77875,5.77875,0,0,0,10.25586,0,5.77818,5.77818,0,0,0,7.25146-7.25195A5.77756,5.77756,0,0,0,60.38411,42.3777ZM57.5428,45.60719l-3.311,3.7666L54.6971,54.366a1.50091,1.50091,0,0,1-2.08789,1.5166l-4.60449-1.98535-4.6045,1.98535a1.5008,1.5008,0,0,1-2.08789-1.5166l.46533-4.99219-3.311-3.7666a1.501,1.501,0,0,1,.79736-2.4541l4.89258-1.09961L46.71468,37.74a1.5012,1.5012,0,0,1,2.58007,0l2.55811,4.31348,4.89258,1.09961A1.50112,1.50112,0,0,1,57.5428,45.60719Z"/><path d="M61.69732,13.72217,33.91265,1.26709A3.02232,3.02232,0,0,0,32.66607,1H31.32622a3.01789,3.01789,0,0,0-1.24511.2666L2.295,13.72217a3.04692,3.04692,0,0,0,0,5.55566L12.392,23.80408,8.53179,41.18164a1.4997,1.4997,0,0,0,.11865.98828c.25537.51758,6.436,12.6875,22.67529,12.83008h.01368a1.5,1.5,0,0,0,.01269-3c-12.8584-.1123-18.56689-8.63477-19.77-10.71582l3.6048-16.2273,3.30926,1.48346v11.612l-1.84179,3.6836a1.50017,1.50017,0,1,0,2.68359,1.34179l.6582-1.3164.65821,1.3164a1.50017,1.50017,0,1,0,2.68359-1.34179l-1.8418-3.6836V27.88519l8.5835,3.84772A3.02232,3.02232,0,0,0,31.32622,32h1.33985a3.01789,3.01789,0,0,0,1.24511-.2666l14.89423-6.67658,1.09064,4.90949a1.5,1.5,0,1,0,2.92871-.65039L51.60027,23.804l10.097-4.52619A3.04692,3.04692,0,0,0,61.69732,13.72217ZM32.66607,29l-1.35743-.00391-9.17993-4.115,10.69947-7.133a1.5,1.5,0,0,0-1.66407-2.4961c-12.7991,8.55441-11.97019,7.93618-12.22906,8.19751C3.63405,16.57949,3.49614,16.60057,3.49614,16.5L31.32622,4l1.35742.00391L60.46978,16.54053Z"/></svg>