<svg xmlns="http://www.w3.org/2000/svg"  viewBox="0 0 64 64" width="64px" height="64px"><radialGradient id="s4kkswaKVOEdXM0bMHjfha" cx="32" cy="31.5" r="30.775" gradientUnits="userSpaceOnUse" spreadMethod="reflect"><stop offset="0" stop-color="#afeeff"/><stop offset=".193" stop-color="#bbf1ff"/><stop offset=".703" stop-color="#d7f8ff"/><stop offset="1" stop-color="#e1faff"/></radialGradient><path fill="url(#s4kkswaKVOEdXM0bMHjfha)" d="M59,20h1.5c2.168,0,3.892-1.998,3.422-4.243C63.58,14.122,62.056,13,60.385,13L53,13 c-1.105,0-2-0.895-2-2c0-1.105,0.895-2,2-2h3.385c1.67,0,3.195-1.122,3.537-2.757C60.392,3.998,58.668,2,56.5,2H34.006H32.5h-24 C6.575,2,5,3.575,5,5.5S6.575,9,8.5,9H10c1.105,0,2,0.895,2,2c0,1.105-0.895,2-2,2l-5.385,0c-1.67,0-3.195,1.122-3.537,2.757 C0.608,18.002,2.332,20,4.5,20H18v12L3.615,32c-1.67,0-3.195,1.122-3.537,2.757C-0.392,37.002,1.332,39,3.5,39H4 c1.105,0,2,0.895,2,2c0,1.105-0.895,2-2,2H3.5c-2.168,0-3.892,1.998-3.422,4.243C0.42,48.878,1.945,50,3.615,50H10 c1.105,0,2,0.895,2,2c0,1.105-0.895,2-2,2l-1.385,0c-1.67,0-3.195,1.122-3.537,2.757C4.608,59.002,6.332,61,8.5,61h22.494H32.5h23 c1.925,0,3.5-1.575,3.5-3.5S57.425,54,55.5,54H55c-1.105,0-2-0.895-2-2c0-1.105,0.895-2,2-2h4.385c1.67,0,3.195-1.122,3.537-2.757 C63.392,44.998,61.668,43,59.5,43H47V31h12.385c1.67,0,3.195-1.122,3.537-2.757C63.392,25.998,61.668,24,59.5,24H59 c-1.105,0-2-0.895-2-2C57,20.895,57.895,20,59,20z"/><linearGradient id="s4kkswaKVOEdXM0bMHjfhb" x1="32" x2="32" y1="3.997" y2="58.003" gradientUnits="userSpaceOnUse" spreadMethod="reflect"><stop offset="0" stop-color="#42d778"/><stop offset=".996" stop-color="#34b171"/><stop offset="1" stop-color="#34b171"/></linearGradient><path fill="url(#s4kkswaKVOEdXM0bMHjfhb)" d="M33.49,4.662l3.387,3.78c0.523,0.583,1.338,0.808,2.086,0.574l4.964-1.551 c1.116-0.349,2.292,0.33,2.548,1.471l1.112,4.961c0.169,0.755,0.759,1.345,1.514,1.514l4.97,1.114 c1.138,0.255,1.817,1.426,1.474,2.54l-1.533,4.978c-0.229,0.744-0.006,1.553,0.572,2.074l3.767,3.395 c0.881,0.794,0.881,2.177,0,2.971l-3.767,3.395c-0.578,0.521-0.802,1.33-0.572,2.074l1.533,4.978 c0.343,1.115-0.336,2.285-1.474,2.54l-4.97,1.114c-0.755,0.169-1.345,0.759-1.514,1.514l-1.112,4.961 c-0.256,1.141-1.432,1.82-2.548,1.471l-4.964-1.551c-0.748-0.234-1.563-0.009-2.086,0.574l-3.387,3.78 c-0.795,0.887-2.184,0.887-2.979,0l-3.387-3.78c-0.523-0.583-1.338-0.808-2.086-0.574l-4.964,1.551 c-1.116,0.349-2.292-0.33-2.548-1.471l-1.112-4.961c-0.169-0.755-0.759-1.345-1.514-1.514l-4.97-1.114 c-1.138-0.255-1.817-1.426-1.474-2.54l1.533-4.978c0.229-0.744,0.006-1.553-0.572-2.074l-3.767-3.395 c-0.881-0.794-0.881-2.177,0-2.971l3.767-3.395c0.578-0.521,0.802-1.33,0.572-2.074l-1.533-4.978 c-0.343-1.115,0.336-2.285,1.474-2.54l4.97-1.114c0.755-0.169,1.345-0.759,1.514-1.514l1.112-4.961 c0.256-1.141,1.432-1.82,2.548-1.471l4.964,1.551c0.748,0.234,1.563,0.009,2.086-0.574l3.387-3.78 C31.305,3.775,32.695,3.775,33.49,4.662z"/><g><path fill="#fff" d="M42.695,21.733L27.5,36.946l-5.235-5.22c-0.977-0.974-2.558-0.973-3.533,0.003l0,0 c-0.977,0.977-0.976,2.562,0.002,3.538l7.002,6.985c0.977,0.975,2.559,0.973,3.534-0.003l16.962-16.982 c0.975-0.977,0.975-2.559-0.001-3.535l0,0C45.254,20.756,43.671,20.756,42.695,21.733z"/></g></svg>